{"glyphs":{"0":{"ha":697,"x_min":40,"x_max":733,"o":"m 707 793 q 727 713 721 757 q 732 620 733 669 q 719 519 731 571 q 688 418 708 468 q 611 272 654 340 q 515 149 568 203 q 401 57 463 94 q 269 4 339 19 q 132 1 194 -32 q 90 32 113 7 q 54 99 68 57 q 42 202 40 142 q 72 340 44 263 q 127 488 99 417 q 194 622 156 560 q 285 738 232 685 q 414 832 338 792 q 481 869 450 856 q 551 888 513 883 q 592 879 568 889 q 640 854 617 869 q 683 822 664 839 q 707 793 703 806 m 565 438 q 610 567 599 507 q 615 671 622 626 q 585 740 608 715 q 524 765 561 765 q 474 755 500 765 q 422 713 449 744 q 372 654 397 692 q 321 569 347 617 q 268 464 294 521 q 215 344 242 407 q 192 285 201 315 q 180 228 182 254 q 185 181 178 201 q 213 150 193 160 q 250 133 235 139 q 278 128 265 128 q 303 136 290 129 q 335 156 317 143 q 365 169 360 178 q 481 294 433 225 q 565 438 529 364 z "},"1":{"ha":376,"x_min":0,"x_max":519,"o":"m 411 914 q 439 910 419 917 q 477 892 458 904 q 508 866 496 881 q 514 838 519 851 q 478 778 507 824 q 407 663 449 732 q 316 508 365 594 q 221 326 267 421 q 149 171 175 232 q 111 73 124 110 q 95 19 99 36 q 92 -6 92 1 q 80 -33 89 -19 q 51 -43 71 -46 q 29 -32 42 -42 q 8 -2 17 -22 q 0 49 0 18 q 14 125 0 81 q 42 201 24 156 q 83 298 60 246 q 133 406 107 350 q 183 512 158 461 q 226 603 207 563 q 258 668 246 644 q 292 735 275 699 q 267 744 278 736 q 249 769 256 751 q 235 804 240 790 q 228 827 229 818 q 234 840 228 836 q 256 843 240 843 q 291 854 269 843 q 335 878 313 865 q 378 903 357 892 q 411 914 399 914 z "},"2":{"ha":656,"x_min":-3,"x_max":708,"o":"m 657 538 q 547 406 606 468 q 431 287 489 343 q 317 183 372 231 q 215 96 261 135 q 278 94 249 96 q 333 90 307 92 q 386 87 360 88 q 442 89 413 86 q 504 97 481 93 q 541 104 528 100 q 560 113 554 108 q 574 124 567 118 q 590 126 581 129 q 606 112 599 122 q 615 85 613 101 q 608 47 617 68 q 587 13 600 26 q 550 -8 574 0 q 490 -19 526 -15 q 400 -25 454 -24 q 340 -24 364 -26 q 295 -18 315 -21 q 256 -12 275 -15 q 210 -10 236 -10 q 149 -16 185 -11 q 61 -33 114 -21 q 36 -42 53 -50 q 11 -14 19 -33 q 1 2 4 -7 q 4 24 -3 11 q 43 75 13 42 q 115 148 74 108 q 202 228 156 188 q 290 303 249 269 q 387 391 336 340 q 480 494 438 442 q 550 594 522 546 q 579 674 578 642 q 541 759 581 743 q 426 747 501 775 q 363 714 389 733 q 316 682 338 694 q 272 669 294 669 q 219 692 250 668 q 191 722 199 707 q 183 751 183 738 q 186 772 182 764 q 194 781 190 781 q 228 799 208 782 q 281 838 247 817 q 367 877 314 858 q 501 899 419 896 q 628 861 582 901 q 692 763 675 821 q 699 642 708 706 q 657 538 689 579 z "},"3":{"ha":694,"x_min":1,"x_max":696,"o":"m 653 464 q 664 385 664 435 q 647 277 664 335 q 596 162 631 219 q 503 61 561 104 q 424 17 469 36 q 333 -15 379 -3 q 241 -28 286 -26 q 163 -17 196 -29 q 78 23 115 0 q 22 72 42 46 q 1 126 1 99 q 28 178 1 154 q 54 185 40 190 q 85 167 68 181 q 122 135 101 153 q 168 104 142 118 q 232 87 194 90 q 308 92 269 83 q 385 119 347 100 q 453 169 424 138 q 481 214 467 185 q 506 277 496 243 q 520 345 517 311 q 517 403 524 379 q 492 439 508 429 q 453 448 476 449 q 401 440 431 447 q 338 422 372 432 q 313 419 318 417 q 280 416 293 411 q 264 433 267 421 q 269 462 261 446 q 301 490 278 478 q 378 530 335 508 q 462 576 422 551 q 530 627 501 600 q 564 686 558 654 q 539 770 575 754 q 424 758 503 786 q 357 726 385 744 q 306 694 329 707 q 262 681 283 682 q 213 703 240 681 q 189 733 194 718 q 185 761 183 749 q 192 782 186 774 q 201 790 197 790 q 237 808 215 792 q 294 846 258 825 q 385 885 331 867 q 519 907 439 904 q 608 890 572 908 q 665 841 644 872 q 690 771 685 810 q 690 692 696 732 q 666 615 683 651 q 622 551 649 578 q 585 522 606 535 q 653 464 636 508 z "},"4":{"ha":593,"x_min":0,"x_max":793,"o":"m 686 901 q 714 898 694 904 q 751 880 733 892 q 781 853 769 868 q 788 825 793 839 q 752 766 781 811 q 683 653 724 721 q 594 501 642 586 q 500 324 546 417 q 536 290 531 308 q 538 261 542 272 q 520 246 532 246 q 497 250 508 246 q 488 253 494 251 q 468 258 481 256 q 411 131 432 181 q 380 49 390 81 q 367 3 369 18 q 364 -18 364 -11 q 353 -45 363 -32 q 325 -56 344 -58 q 303 -44 315 -54 q 282 -15 290 -35 q 274 37 274 6 q 288 113 274 68 q 313 181 297 140 q 350 269 329 221 q 208 269 296 271 q 131 265 168 268 q 61 260 93 263 q 44 247 54 251 q 22 251 35 243 q 7 269 14 257 q 1 299 0 281 q 14 345 1 318 q 58 407 26 372 q 140 484 90 442 q 242 569 189 526 q 344 650 294 613 q 425 713 393 688 q 476 751 449 731 q 533 792 504 772 q 589 828 561 811 q 639 854 617 844 q 663 886 651 874 q 686 901 675 899 m 142 356 q 267 355 201 356 q 386 350 333 354 q 425 433 406 392 q 463 513 444 475 q 497 582 481 550 q 524 638 513 614 q 325 504 435 586 q 214 417 258 454 q 142 356 169 381 z "},"5":{"ha":733,"x_min":-6,"x_max":733,"o":"m 619 742 q 501 734 560 732 q 388 739 443 736 q 351 658 372 703 q 308 572 329 613 q 402 613 360 601 q 480 626 444 625 q 543 622 515 628 q 594 608 571 615 q 665 550 646 592 q 683 461 683 508 q 674 372 683 414 q 658 310 664 329 q 597 177 642 243 q 488 59 551 111 q 349 -24 425 7 q 193 -51 272 -54 q 69 -22 114 -49 q 10 40 25 6 q 5 107 -6 74 q 46 156 15 140 q 113 177 92 178 q 149 164 135 176 q 175 133 163 151 q 217 100 188 114 q 333 97 275 72 q 453 174 390 121 q 512 254 486 201 q 545 363 538 307 q 537 467 553 419 q 469 531 521 514 q 417 528 449 538 q 351 503 385 519 q 287 472 318 488 q 235 449 256 456 q 178 452 204 439 q 160 489 153 465 q 176 535 164 504 q 205 603 189 565 q 238 681 221 640 q 269 756 254 721 q 263 778 265 764 q 263 806 261 792 q 267 831 264 819 q 278 849 271 843 q 298 860 288 857 q 322 863 308 863 q 358 863 338 868 q 396 847 379 858 q 434 839 415 843 q 472 835 453 835 q 583 833 543 833 q 645 835 624 833 q 674 838 667 836 q 689 842 682 839 q 713 847 700 846 q 731 831 725 847 q 732 810 733 822 q 719 785 731 797 q 685 760 708 772 q 619 742 661 749 z "},"6":{"ha":594,"x_min":0,"x_max":589,"o":"m 413 808 q 476 833 444 824 q 531 839 508 842 q 560 828 550 838 q 576 807 569 818 q 588 772 589 789 q 580 742 588 754 q 561 722 572 729 q 542 718 550 715 q 508 718 528 722 q 468 706 489 714 q 426 685 447 697 q 392 661 406 674 q 348 622 372 644 q 297 565 324 599 q 240 487 269 532 q 185 379 211 442 q 144 190 132 260 q 208 93 156 119 q 271 88 235 81 q 340 118 307 96 q 397 174 374 140 q 421 244 421 207 q 395 319 421 296 q 335 349 369 343 q 268 351 300 356 q 224 342 236 346 q 199 342 211 338 q 187 356 188 346 q 201 384 186 367 q 261 424 217 401 q 366 456 317 453 q 454 443 415 458 q 519 397 493 428 q 553 324 544 365 q 541 202 565 263 q 476 92 517 142 q 392 7 436 42 q 322 -39 349 -28 q 210 -53 269 -61 q 96 -8 151 -44 q 46 53 68 10 q 12 148 24 96 q 1 255 0 200 q 19 350 1 310 q 92 487 50 418 q 185 617 135 556 q 294 728 236 678 q 413 808 351 778 z "},"7":{"ha":481,"x_min":19,"x_max":626,"o":"m 531 901 q 556 898 539 904 q 590 880 574 892 q 617 853 607 868 q 619 825 626 839 q 578 765 611 811 q 497 651 544 719 q 392 495 449 582 q 282 314 336 408 q 197 158 228 219 q 149 60 165 97 q 128 6 133 24 q 122 -18 124 -11 q 113 -45 119 -32 q 86 -56 106 -58 q 65 -44 76 -54 q 47 -15 53 -35 q 43 37 40 6 q 64 113 46 68 q 98 188 75 142 q 149 285 121 233 q 207 393 176 338 q 266 499 238 449 q 318 591 294 550 q 356 656 342 632 q 381 697 368 675 q 406 742 393 718 q 333 737 374 739 q 249 734 292 735 q 165 735 206 733 q 92 741 124 736 q 40 753 60 746 q 19 774 19 761 q 22 835 19 818 q 54 843 25 851 q 88 842 61 840 q 155 848 115 844 q 242 856 194 851 q 337 867 289 861 q 428 876 385 872 q 504 883 472 881 q 531 901 518 897 z "},"8":{"ha":600,"x_min":-3,"x_max":674,"o":"m 564 907 q 635 867 610 897 q 667 797 660 836 q 665 718 674 758 q 638 651 657 678 q 590 587 618 624 q 528 515 561 550 q 464 453 496 479 q 406 421 432 426 q 462 327 439 381 q 468 208 485 274 q 412 101 453 150 q 319 19 371 53 q 210 -28 267 -14 q 108 -33 154 -43 q 38 8 63 -24 q 5 78 13 39 q 6 156 -3 117 q 33 224 14 196 q 81 288 53 250 q 142 360 110 325 q 207 421 175 394 q 265 453 239 447 q 209 547 232 493 q 203 665 186 600 q 259 772 218 724 q 352 854 300 821 q 460 902 404 888 q 564 907 517 917 m 349 203 q 371 276 374 233 q 350 361 368 318 l 347 358 q 293 326 325 347 q 230 278 261 306 q 175 217 199 250 q 146 151 151 185 q 155 106 142 124 q 195 89 168 88 q 261 117 222 90 q 349 203 300 143 m 532 708 q 531 751 542 732 q 495 772 521 771 q 430 751 469 774 q 343 669 390 729 q 317 600 319 640 q 328 519 315 560 q 392 554 360 532 q 451 603 424 576 q 499 657 478 629 q 532 708 521 685 z "},"9":{"ha":586,"x_min":-1,"x_max":671,"o":"m 604 869 q 653 835 636 867 q 650 733 671 804 q 632 666 643 710 q 605 568 621 622 q 569 453 589 514 q 523 332 549 392 q 467 219 497 272 q 403 128 438 165 q 310 36 350 71 q 237 -15 271 1 q 169 -33 203 -32 q 97 -28 136 -35 q 36 -6 57 -21 q 7 25 15 8 q 0 59 -1 42 q 7 89 1 76 q 22 103 13 101 q 42 99 31 104 q 64 83 53 93 q 83 64 75 74 q 115 54 92 54 q 171 74 138 54 q 246 138 204 93 q 332 264 288 182 q 363 324 347 292 q 392 387 378 356 q 417 447 406 418 q 436 497 428 476 q 397 449 419 474 q 344 399 375 424 q 295 369 322 381 q 241 354 268 357 q 190 357 214 351 q 150 378 165 363 q 125 424 138 389 q 112 506 113 458 q 127 612 111 554 q 188 728 143 669 q 279 807 228 779 q 381 847 331 835 q 472 856 431 858 q 535 849 514 854 q 604 869 560 871 m 282 478 q 322 487 297 472 q 375 526 347 501 q 429 579 403 550 q 474 632 456 608 q 478 656 476 646 q 481 672 479 665 q 483 688 482 679 q 488 706 485 696 q 476 711 482 707 q 435 719 461 721 q 382 708 410 718 q 326 678 354 697 q 278 636 299 660 q 253 592 261 617 q 244 545 244 568 q 253 504 244 522 q 282 478 263 486 z "},"\u0000":{"ha":0,"x_min":0,"x_max":0,"o":""},"\r":{"ha":460,"x_min":0,"x_max":0,"o":""}," ":{"ha":460,"x_min":0,"x_max":0,"o":""},"e":{"ha":493,"x_min":-15,"x_max":546,"o":"m 485 213 q 533 231 521 233 q 543 217 546 229 q 527 187 540 204 q 499 160 514 169 q 435 124 483 150 q 329 70 388 99 q 213 17 271 42 q 118 -15 154 -7 q 54 -15 81 -24 q 12 11 28 -7 q -10 52 -4 29 q -11 96 -15 75 q 5 147 -7 117 q 35 211 17 178 q 78 278 54 244 q 131 338 103 311 q 181 378 157 363 q 226 400 206 393 q 262 409 246 407 q 289 410 278 411 q 319 397 303 408 q 351 367 336 385 q 376 328 365 350 q 389 285 386 306 q 377 244 390 264 q 343 208 364 225 q 298 178 322 192 q 253 156 274 165 q 213 136 232 146 q 178 124 194 126 q 145 126 161 121 q 115 154 129 132 q 106 138 111 149 q 103 118 101 128 q 115 101 104 108 q 153 96 126 94 q 221 108 179 97 q 309 134 263 118 q 402 171 356 150 q 485 213 449 192 m 265 293 q 216 266 233 281 q 178 226 199 251 q 201 235 188 229 q 228 249 214 240 q 252 269 242 258 q 265 293 263 281 z "},"f":{"ha":439,"x_min":-221,"x_max":510,"o":"m 374 147 q 459 153 440 157 q 475 140 478 149 q 465 124 474 136 q 438 97 456 111 q 394 67 421 82 q 332 47 368 53 q 253 33 299 40 q 161 18 208 25 q 88 -135 122 -58 q 23 -284 53 -212 q -32 -417 -7 -356 q -76 -525 -57 -479 q -92 -594 -94 -568 q -85 -638 -90 -621 q -78 -667 -79 -656 q -94 -692 -76 -679 q -136 -703 -114 -704 q -178 -687 -158 -701 q -209 -643 -197 -672 q -217 -569 -221 -614 q -192 -472 -214 -536 q -137 -328 -169 -407 q -66 -165 -104 -250 q 8 -4 -28 -79 q -2 -5 3 -4 q -10 -6 -7 -6 q -40 10 -28 -6 q -57 48 -53 26 q -58 89 -61 69 q -42 114 -54 108 q -21 122 -28 119 q -8 124 -14 124 q 8 124 -1 124 q 36 124 18 124 q 49 124 40 124 q 71 125 58 125 q 76 137 74 132 q 82 147 79 142 q 151 283 114 214 q 227 411 189 353 q 301 510 265 469 q 365 558 336 550 q 408 556 382 563 q 457 533 433 549 q 495 494 481 517 q 501 444 510 471 q 487 430 499 436 q 458 417 475 424 q 423 399 442 410 q 388 369 404 388 q 303 261 344 321 q 224 133 263 201 q 306 140 267 136 q 374 147 346 143 z "},"g":{"ha":608,"x_min":-236,"x_max":574,"o":"m 538 182 q 560 167 574 186 q 485 125 547 147 q 463 117 474 122 q 413 -16 439 50 q 358 -129 386 -82 q 244 -272 308 -215 q 115 -365 181 -329 q -9 -419 50 -400 q -107 -446 -68 -437 q -163 -440 -136 -453 q -208 -399 -190 -426 q -231 -331 -226 -371 q -219 -243 -236 -292 q -160 -151 -206 -201 q -40 -49 -114 -101 q 137 52 35 3 q 367 139 239 101 q 397 237 386 194 q 413 300 407 279 q 415 308 414 304 q 415 315 415 311 q 277 227 342 264 q 175 171 213 190 q 132 165 154 160 q 93 183 110 169 q 67 213 76 196 q 61 244 58 229 q 85 282 64 260 q 135 328 107 304 q 193 372 163 351 q 244 406 224 393 q 282 420 263 417 q 319 423 301 424 q 351 419 336 422 q 374 414 365 415 q 390 406 386 411 q 390 394 393 400 q 381 383 388 389 q 371 376 375 378 q 327 351 354 369 q 279 314 300 332 q 251 285 258 296 q 267 283 243 275 q 311 306 288 292 q 357 338 335 321 q 398 372 379 356 q 428 397 417 388 q 443 421 435 428 q 467 411 451 417 q 497 397 482 406 q 521 376 511 389 q 529 344 531 363 q 513 280 526 328 q 481 169 500 232 q 508 176 494 172 q 538 182 522 179 m 258 -101 q 304 -17 283 -60 q 342 68 325 26 q 196 -1 274 39 q 43 -89 118 -40 q -60 -175 -18 -129 q -125 -260 -103 -221 q -149 -323 -147 -299 q -129 -346 -150 -347 q -59 -328 -108 -344 q 49 -283 -10 -312 q 164 -208 107 -253 q 258 -101 221 -162 z "},"h":{"ha":693,"x_min":-81,"x_max":750,"o":"m 428 906 q 453 878 443 897 q 457 847 464 858 q 432 805 454 843 q 376 706 410 767 q 302 570 343 646 q 222 417 261 494 q 151 268 183 340 q 100 143 118 196 q 192 232 138 188 q 301 312 246 276 q 403 369 356 347 q 476 389 451 390 q 543 353 525 386 q 535 260 561 319 q 501 173 507 200 q 528 156 496 146 q 569 173 543 160 q 622 202 594 186 q 677 234 650 218 q 722 263 704 250 q 745 267 740 274 q 742 241 750 260 q 715 195 735 222 q 664 139 696 168 q 603 85 632 110 q 549 43 575 61 q 496 17 522 25 q 440 14 469 10 q 395 42 411 18 q 374 97 379 65 q 376 166 369 129 q 401 233 383 203 q 369 229 393 239 q 311 199 344 219 q 240 147 278 178 q 168 79 203 117 q 52 -40 99 4 q -24 -82 6 -85 q -51 -61 -39 -81 q -72 -17 -64 -42 q -80 34 -79 8 q -72 75 -81 60 q -47 124 -67 85 q 2 217 -26 163 q 63 337 31 272 q 127 462 96 401 q 185 573 158 522 q 228 651 213 624 q 272 734 251 693 q 309 810 293 775 q 335 868 325 844 q 349 900 346 892 q 372 922 356 915 q 428 906 389 928 z "},"i":{"ha":351,"x_min":8,"x_max":492,"o":"m 444 257 q 474 269 463 268 q 488 263 485 269 q 485 243 492 256 q 461 215 478 231 q 423 184 450 206 q 362 137 396 163 q 289 84 328 111 q 215 33 250 57 q 152 -7 181 10 q 111 -26 124 -24 q 72 -26 92 -32 q 38 -6 53 -21 q 16 33 24 10 q 11 86 8 57 q 26 153 14 115 q 53 231 38 192 q 87 303 69 269 q 118 353 104 336 q 157 393 146 388 q 176 399 168 399 q 200 389 186 399 q 226 366 214 379 q 246 339 238 353 q 253 317 254 325 q 243 294 251 300 q 215 278 235 289 q 199 258 210 274 q 176 221 188 242 q 153 176 164 200 q 137 134 143 153 q 131 104 131 115 q 140 96 131 93 q 198 122 156 100 q 290 170 240 144 q 383 221 339 196 q 444 257 426 246 m 289 486 q 266 472 281 479 q 236 463 251 465 q 208 463 221 460 q 189 478 194 465 q 176 506 182 490 q 169 535 171 521 q 168 560 167 549 q 178 574 169 571 q 199 581 186 576 q 225 588 213 585 q 247 594 238 592 q 260 596 257 596 q 276 590 268 597 q 292 574 285 583 q 306 553 299 564 q 319 533 313 542 q 319 509 332 518 q 289 486 306 500 z "},"j":{"ha":329,"x_min":-539,"x_max":415,"o":"m 206 482 q 235 479 214 482 q 278 469 257 476 q 312 447 299 461 q 318 411 325 433 q 300 365 314 399 q 265 283 286 331 q 218 178 244 235 q 165 63 192 121 q 149 28 161 50 q 124 -17 138 7 q 97 -61 110 -40 q 79 -90 85 -82 q -25 -246 25 -183 q -124 -349 -75 -308 q -222 -412 -174 -390 q -319 -446 -269 -435 q -401 -436 -357 -454 q -478 -381 -446 -418 q -525 -293 -511 -344 q -515 -183 -539 -242 q -444 -66 -490 -118 q -347 22 -397 -14 q -249 76 -296 57 q -176 97 -203 96 q -153 82 -150 99 q -203 29 -156 65 q -321 -87 -275 -25 q -387 -203 -367 -150 q -404 -292 -408 -256 q -372 -328 -400 -328 q -282 -308 -328 -328 q -186 -239 -236 -289 q -81 -103 -136 -189 q 39 115 -25 -17 q 107 285 83 217 q 144 383 131 353 q 158 414 151 397 q 173 446 165 431 q 189 472 181 461 q 206 482 197 482 m 382 726 q 411 660 407 699 q 396 603 415 622 q 349 576 376 583 q 299 579 321 569 q 272 609 276 590 q 260 644 267 628 q 251 665 257 653 q 241 690 246 678 q 235 713 236 703 q 244 726 235 722 q 279 738 260 732 q 317 745 299 743 q 353 743 336 747 q 382 726 369 739 z "},"k":{"ha":475,"x_min":-61,"x_max":536,"o":"m 511 475 q 531 453 536 474 q 510 410 526 433 q 472 369 493 388 q 440 353 450 351 q 410 344 432 353 q 358 322 388 336 q 294 288 328 307 q 226 246 260 268 q 240 190 233 221 q 260 125 247 160 q 301 69 272 90 q 371 60 331 49 q 431 85 397 67 q 492 122 464 104 q 510 124 506 131 q 508 102 514 118 q 488 65 503 86 q 447 21 472 43 q 406 -15 424 -1 q 372 -36 388 -29 q 342 -45 356 -43 q 313 -47 328 -47 q 251 -22 282 -47 q 196 37 221 3 q 156 109 171 71 q 140 175 140 147 q 122 156 131 165 q 100 139 113 146 q 34 -6 61 47 q -17 -57 7 -60 q -42 -39 -32 -56 q -56 1 -51 -22 q -60 47 -61 24 q -50 86 -58 71 q -26 133 -44 96 q 18 223 -8 169 q 76 341 44 276 q 139 471 107 406 q 201 597 171 536 q 254 704 231 658 q 315 850 297 789 q 339 926 332 911 q 371 947 346 942 q 436 931 396 953 q 462 903 451 922 q 465 872 472 883 q 446 840 463 869 q 403 765 429 811 q 345 661 378 719 q 280 540 313 603 q 216 413 247 476 q 163 293 185 349 q 260 360 208 326 q 359 419 311 393 q 447 461 407 446 q 511 475 488 476 z "},"l":{"ha":303,"x_min":-46,"x_max":663,"o":"m 635 949 q 588 887 618 926 q 513 781 558 847 q 410 614 468 714 q 279 371 351 514 q 164 135 206 228 q 100 -16 122 42 q 69 -104 78 -74 q 56 -151 61 -135 q 22 -199 44 -186 q -24 -182 -1 -212 q -38 -96 -46 -153 q 1 32 -31 -39 q 33 107 11 56 q 83 226 54 158 q 146 372 113 294 q 214 526 179 450 q 283 669 249 601 q 346 783 317 736 q 481 990 433 926 q 554 1049 529 1053 q 585 1037 567 1046 q 619 1017 603 1028 q 648 996 636 1007 q 660 979 660 985 q 653 963 663 967 q 635 949 643 960 z "},"m":{"ha":928,"x_min":0,"x_max":979,"o":"m 957 235 q 976 238 974 243 q 972 218 979 232 q 951 185 965 204 q 915 149 936 167 q 858 103 894 131 q 784 50 822 76 q 714 2 746 24 q 669 -25 682 -19 q 642 -33 658 -31 q 610 -31 625 -35 q 584 -16 594 -26 q 574 14 574 -6 q 563 82 553 42 q 578 131 568 100 q 599 192 588 161 q 624 265 611 228 q 578 222 607 247 q 517 172 549 197 q 458 123 486 146 q 414 85 429 100 q 390 58 399 69 q 374 40 382 47 q 358 30 367 33 q 336 26 350 26 q 284 47 307 28 q 263 99 261 67 q 274 141 263 114 q 297 194 285 168 q 331 258 313 225 q 277 208 308 238 q 215 147 246 178 q 159 90 185 117 q 121 53 133 64 q 101 32 108 40 q 87 21 93 24 q 72 20 81 18 q 49 31 63 22 q 26 53 33 39 q 16 81 19 67 q 10 106 13 94 q 4 121 8 117 q 2 135 0 125 q 10 159 4 146 q 24 186 15 172 q 44 213 33 200 q 80 256 54 225 q 133 320 106 286 q 184 384 161 354 q 211 424 207 414 q 232 461 221 443 q 257 474 243 479 q 284 466 272 469 q 303 456 296 463 q 318 439 314 449 q 311 407 322 429 q 289 369 304 396 q 256 315 274 343 q 211 244 235 282 q 255 283 225 258 q 315 333 285 308 q 370 378 346 358 q 400 400 394 397 q 426 410 411 407 q 475 393 442 413 q 513 361 508 374 q 510 336 517 349 q 497 313 506 329 q 478 281 488 297 q 454 239 467 261 q 579 325 526 290 q 647 367 632 360 q 672 365 656 369 q 706 352 689 361 q 735 330 722 343 q 746 300 747 317 q 738 260 746 286 q 719 206 731 235 q 696 147 708 176 q 674 93 683 117 q 685 85 676 76 q 712 102 692 90 q 758 129 732 114 q 815 160 785 144 q 874 191 846 176 q 924 217 901 206 q 957 235 946 229 z "},"n":{"ha":703,"x_min":0,"x_max":732,"o":"m 271 493 q 295 467 286 485 q 297 439 304 450 q 283 419 294 435 q 256 374 272 404 q 217 294 239 343 q 169 172 194 244 q 258 248 211 203 q 350 335 306 293 q 431 405 394 376 q 490 432 468 433 q 551 399 535 429 q 543 315 567 368 q 522 253 531 288 q 511 190 514 219 q 513 142 508 161 q 531 128 517 124 q 567 144 544 132 q 616 170 590 156 q 666 199 642 185 q 707 225 690 214 q 728 228 724 235 q 725 206 732 222 q 701 165 718 189 q 654 114 683 140 q 599 65 625 88 q 549 26 574 42 q 501 3 525 11 q 451 0 478 -4 q 411 40 425 4 q 394 122 397 75 q 399 215 392 168 q 422 290 406 263 q 392 272 415 294 q 337 213 368 249 q 270 134 306 176 q 204 58 235 92 q 150 6 172 25 q 110 -24 128 -14 q 79 -35 93 -33 q 51 -36 65 -37 q 26 -17 38 -35 q 8 23 15 0 q 1 69 1 46 q 8 106 0 93 q 24 131 17 119 q 41 157 32 142 q 62 197 50 172 q 89 263 74 222 q 119 338 104 301 q 144 406 133 375 q 164 458 156 436 q 175 486 172 479 q 208 507 182 501 q 271 493 235 513 z "},"o":{"ha":339,"x_min":-14,"x_max":338,"o":"m 217 397 q 247 372 225 390 q 291 326 269 354 q 325 263 313 299 q 326 185 338 226 q 286 108 315 143 q 219 48 257 72 q 141 13 182 24 q 67 10 100 3 q 15 39 33 17 q -8 90 -3 61 q -8 147 -14 118 q 13 194 -1 175 q 47 241 26 214 q 92 294 68 268 q 138 338 115 319 q 181 361 161 357 q 188 363 185 363 q 196 365 192 364 q 181 382 190 375 q 165 402 164 396 q 174 409 165 408 q 195 406 182 410 q 217 397 208 403 m 126 144 q 133 139 125 138 q 155 147 142 140 q 182 164 168 153 q 206 189 196 175 q 217 217 213 199 q 221 256 221 235 q 190 225 206 242 q 160 192 174 208 q 137 163 146 175 q 126 144 128 150 z "},"p":{"ha":735,"x_min":-218,"x_max":786,"o":"m 772 222 q 778 207 786 214 q 750 192 769 200 q 706 178 731 185 q 664 164 682 171 q 590 138 638 153 q 501 110 543 124 q 447 63 476 85 q 386 22 418 40 q 306 -24 340 -4 q 245 -51 271 -43 q 199 -51 219 -58 q 163 -15 179 -43 q 161 45 146 13 q 215 109 176 78 q 311 167 254 140 q 433 208 368 193 q 469 261 463 229 q 458 310 476 293 q 437 309 456 313 q 383 284 418 306 q 294 217 347 263 q 168 93 240 172 q 158 81 163 86 q 149 72 153 76 q 110 -17 135 38 q 58 -133 86 -71 q -1 -260 29 -196 q -56 -380 -31 -325 q -99 -474 -81 -435 q -121 -526 -117 -514 q -145 -592 -136 -571 q -178 -607 -154 -614 q -200 -587 -190 -604 q -214 -548 -210 -571 q -216 -499 -218 -525 q -201 -449 -214 -472 q -175 -392 -193 -432 q -133 -298 -157 -351 q -83 -181 -110 -244 q -29 -53 -57 -118 q 24 72 -1 11 q 70 183 50 133 q 104 265 90 232 q 122 307 118 299 q 156 364 136 340 q 188 390 175 388 q 217 388 204 393 q 242 375 231 383 q 263 356 254 367 q 276 340 271 346 q 272 315 281 336 q 311 348 293 332 q 348 376 329 364 q 390 399 367 389 q 446 413 414 408 q 569 391 533 424 q 603 290 606 358 q 585 226 603 265 q 630 233 603 231 q 684 235 657 235 q 735 232 711 235 q 772 222 760 229 z "},"q":{"ha":521,"x_min":-56,"x_max":517,"o":"m 511 383 q 508 356 517 378 q 483 301 499 335 q 448 226 467 268 q 414 136 429 183 q 386 54 404 104 q 346 -54 368 4 q 301 -172 324 -112 q 260 -283 279 -232 q 226 -372 240 -335 q 210 -419 213 -408 q 192 -480 199 -460 q 163 -496 185 -500 q 142 -480 151 -494 q 127 -445 132 -465 q 122 -401 122 -425 q 132 -354 122 -376 q 153 -302 139 -339 q 184 -216 167 -265 q 222 -108 201 -167 q 262 10 242 -50 q 301 126 282 69 q 336 228 321 182 q 188 134 257 174 q 76 75 118 94 q 28 67 53 63 q -15 87 4 72 q -44 122 -33 101 q -51 158 -56 142 q -24 201 -47 175 q 31 253 0 226 q 97 303 63 279 q 156 340 131 326 q 199 356 176 353 q 240 359 221 360 q 276 355 260 358 q 303 350 292 351 q 320 341 317 347 q 320 328 324 335 q 310 315 317 321 q 299 308 304 310 q 267 291 286 303 q 230 265 249 279 q 194 237 211 251 q 169 212 178 222 q 163 198 161 201 q 181 201 164 194 q 237 231 207 211 q 294 273 267 251 q 344 313 322 294 q 374 339 365 331 q 374 341 374 340 q 375 343 375 342 q 402 397 386 375 q 429 422 418 419 q 456 422 443 426 q 478 411 468 418 q 497 397 489 404 q 511 383 506 389 z "},"r":{"ha":475,"x_min":-25,"x_max":443,"o":"m 438 290 q 440 217 443 242 q 417 193 436 193 q 392 197 407 193 q 364 208 378 201 q 341 226 350 215 q 335 251 332 238 q 322 287 338 279 q 283 283 306 294 q 259 272 276 279 q 222 254 242 264 q 188 188 201 217 q 165 131 174 158 q 152 81 154 103 q 144 39 150 58 q 123 2 138 19 q 72 -35 108 -15 q 21 -49 43 -50 q -12 -19 -1 -49 q -8 67 -25 13 q 35 176 8 121 q 88 276 61 231 q 122 339 115 322 q 132 369 129 356 q 138 392 135 382 q 146 412 140 403 q 163 429 151 421 q 213 460 196 453 q 246 443 231 467 q 265 429 253 432 q 286 421 278 426 q 295 401 294 415 q 278 354 296 388 q 358 408 319 383 q 417 432 397 432 q 438 419 433 432 q 442 385 443 406 q 438 339 440 364 q 438 290 435 314 z "},"s":{"ha":363,"x_min":-31,"x_max":471,"o":"m 307 325 q 379 351 346 343 q 435 362 413 360 q 464 360 457 364 q 457 350 471 356 q 406 324 436 340 q 342 285 376 307 q 272 241 307 264 q 206 196 236 218 q 208 179 207 188 q 211 163 208 171 q 212 50 224 103 q 161 -32 200 -3 q 83 -58 125 -60 q 14 -33 40 -57 q -6 -12 3 -25 q -24 8 -15 1 q -29 23 -28 13 q -28 47 -31 33 q -19 77 -25 61 q -6 107 -14 93 q 39 158 10 132 q 108 213 68 185 q 101 235 106 224 q 93 257 96 246 q 93 364 74 317 q 139 438 113 411 q 184 467 158 457 q 233 481 210 478 q 277 483 257 485 q 306 476 297 481 q 324 450 322 468 q 319 428 326 432 q 310 422 314 422 q 296 421 306 421 q 213 347 243 421 q 199 267 199 315 q 255 299 226 283 q 307 325 283 314 m 126 51 q 128 90 132 68 q 122 139 125 111 q 115 133 119 138 q 76 96 90 114 q 55 63 61 78 q 48 38 49 49 q 47 22 47 28 q 60 3 49 11 q 97 14 76 3 q 126 51 118 25 z "},"t":{"ha":299,"x_min":-140,"x_max":567,"o":"m 565 890 q 557 874 567 878 q 540 860 547 871 q 506 814 528 842 q 454 743 485 786 q 384 639 424 700 q 297 493 344 578 q 354 498 328 496 q 400 503 381 500 q 454 508 433 507 q 487 508 475 510 q 501 504 499 507 q 503 497 504 501 q 492 480 501 493 q 465 452 482 467 q 421 423 447 438 q 358 403 394 408 q 303 394 335 399 q 236 382 271 389 q 210 334 224 358 q 183 282 197 310 q 69 46 111 139 q 6 -105 28 -47 q -25 -193 -17 -162 q -39 -240 -33 -224 q -73 -288 -50 -275 q -118 -272 -96 -301 q -133 -185 -140 -242 q -93 -57 -125 -128 q -67 6 -85 -36 q -26 103 -49 47 q 26 226 -3 160 q 83 358 54 292 q 44 353 61 356 q 17 351 28 351 q -13 367 -1 350 q -30 404 -25 383 q -31 444 -35 425 q -14 469 -28 464 q 6 477 -1 475 q 19 480 13 479 q 35 480 26 481 q 63 481 44 479 q 92 481 71 481 q 140 483 113 482 q 198 600 169 546 q 250 694 226 654 q 385 901 338 838 q 458 960 433 964 q 489 948 471 957 q 524 928 507 939 q 552 907 540 918 q 565 890 564 896 z "},"u":{"ha":522,"x_min":-11,"x_max":525,"o":"m 244 408 q 259 387 254 403 q 236 333 264 371 q 201 278 222 314 q 164 208 181 242 q 140 151 147 174 q 146 139 133 129 q 192 176 158 149 q 263 240 225 204 q 335 314 301 275 q 385 383 369 353 q 406 413 397 410 q 432 413 414 415 q 458 404 440 411 q 492 387 476 397 q 517 364 508 376 q 517 339 525 351 q 489 294 508 326 q 449 223 469 261 q 409 149 428 185 q 385 96 390 114 q 376 62 378 78 q 374 33 375 46 q 369 12 372 21 q 358 -3 367 3 q 326 -8 342 -14 q 288 22 310 -1 q 272 51 276 33 q 269 90 268 69 q 274 131 269 110 q 282 168 278 151 q 230 124 253 146 q 185 84 207 103 q 140 51 163 65 q 89 29 118 36 q 42 34 60 22 q 13 66 24 46 q -3 106 1 86 q -10 136 -8 126 q 3 178 -11 146 q 38 250 18 211 q 77 324 58 289 q 104 375 96 360 q 129 413 119 406 q 164 422 139 421 q 244 408 213 424 z "},"v":{"ha":447,"x_min":-1,"x_max":447,"o":"m 78 485 q 124 519 107 511 q 165 501 142 526 q 190 485 176 489 q 213 475 204 482 q 224 450 222 468 q 213 390 225 432 q 168 237 189 307 q 147 121 147 167 q 219 172 178 131 q 299 262 260 213 q 371 358 339 311 q 415 426 403 406 q 435 433 422 439 q 447 393 447 428 q 442 359 447 381 q 427 312 436 338 q 405 259 418 286 q 375 208 392 232 q 257 72 324 133 q 122 -33 190 11 q 70 -50 94 -51 q 24 -15 46 -49 q 1 81 -1 21 q 15 202 3 140 q 42 315 26 264 q 60 385 57 365 q 62 417 63 403 q 61 444 61 432 q 64 465 61 456 q 78 485 67 475 z "},"w":{"ha":699,"x_min":-1,"x_max":699,"o":"m 78 485 q 124 519 107 511 q 165 501 142 526 q 190 485 176 489 q 213 475 204 482 q 224 450 222 468 q 213 390 225 432 q 172 236 189 307 q 156 119 156 165 q 221 191 186 146 q 288 276 256 236 q 346 344 319 317 q 385 363 372 371 q 421 324 404 350 q 428 251 438 299 q 419 206 425 235 q 411 136 413 176 q 434 143 419 136 q 465 162 449 150 q 499 188 482 174 q 528 218 515 203 q 588 302 563 258 q 633 379 614 346 q 666 430 653 413 q 689 435 679 447 q 698 392 699 422 q 688 322 697 361 q 663 240 679 282 q 624 163 646 197 q 565 89 600 126 q 491 20 529 51 q 416 -31 453 -11 q 353 -51 379 -51 q 317 -33 332 -51 q 292 13 301 -14 q 278 69 282 40 q 279 118 275 97 q 209 56 244 93 q 140 -10 174 18 q 77 -44 107 -37 q 24 -15 47 -51 q 1 81 -1 21 q 15 202 3 140 q 42 315 26 264 q 60 385 57 365 q 62 417 63 403 q 61 444 61 432 q 64 465 61 456 q 78 485 67 475 z "},"x":{"ha":494,"x_min":-10,"x_max":515,"o":"m 490 129 q 512 134 508 140 q 508 113 515 128 q 487 77 501 97 q 456 42 472 57 q 388 -13 424 13 q 313 -36 353 -39 q 281 -31 299 -36 q 242 -12 263 -26 q 201 25 222 1 q 160 86 181 49 q 118 51 136 67 q 89 26 100 36 q 56 -1 68 8 q 35 -15 43 -11 q 19 -17 26 -18 q 1 -11 11 -15 q -9 2 -10 -6 q 0 23 -8 10 q 24 56 8 36 q 57 106 39 76 q 84 138 68 121 q 121 175 100 156 q 103 235 111 204 q 89 296 94 267 q 81 349 83 325 q 81 388 78 374 q 95 421 85 411 q 113 433 106 431 q 142 438 125 438 q 176 434 160 438 q 204 424 192 431 q 221 410 217 418 q 222 365 229 392 q 214 322 214 339 q 215 290 213 307 q 219 253 217 272 q 310 313 264 285 q 392 357 356 340 q 487 381 468 393 q 442 315 506 368 q 413 292 433 308 q 366 254 393 276 q 308 206 339 232 q 244 154 276 181 q 249 140 247 147 q 254 128 251 133 q 266 108 258 119 q 282 87 274 97 q 298 69 290 76 q 311 60 306 61 q 364 57 339 51 q 411 75 389 63 q 453 103 433 88 q 490 129 472 118 z "},"y":{"ha":556,"x_min":-249,"x_max":561,"o":"m 525 126 q 548 111 561 131 q 472 69 535 92 q 453 63 464 67 q 428 56 442 60 q 388 -45 408 3 q 346 -129 367 -93 q 232 -272 296 -215 q 103 -365 168 -329 q -22 -419 38 -400 q -119 -446 -81 -437 q -176 -440 -149 -453 q -221 -399 -203 -426 q -244 -331 -239 -371 q -232 -243 -249 -292 q -174 -160 -218 -203 q -58 -75 -131 -117 q 112 7 14 -33 q 333 81 210 47 q 371 191 357 140 q 393 274 385 242 q 277 183 326 222 q 182 132 228 144 q 133 133 158 125 q 86 156 107 140 q 53 195 65 172 q 49 244 42 218 q 67 281 53 258 q 102 328 82 304 q 146 372 122 351 q 190 406 169 393 q 221 422 208 417 q 242 430 233 428 q 259 431 251 432 q 275 429 267 431 q 292 422 288 426 q 294 410 296 417 q 287 394 293 403 q 275 378 281 386 q 257 355 269 371 q 231 320 244 339 q 207 282 218 301 q 194 250 196 263 q 204 235 193 238 q 246 244 215 232 q 291 272 267 253 q 339 314 315 292 q 383 358 363 336 q 415 393 403 379 q 431 421 419 428 q 454 411 439 417 q 484 397 469 406 q 508 376 499 389 q 517 344 518 363 q 510 310 515 333 q 494 256 504 288 q 473 188 485 225 q 447 110 461 150 q 486 118 467 114 q 525 126 506 122 m 246 -101 q 307 17 282 -43 q 163 -38 239 -6 q 17 -117 88 -71 q -85 -199 -44 -157 q -145 -274 -125 -240 q -164 -327 -165 -307 q -142 -346 -162 -347 q -72 -328 -121 -344 q 36 -283 -22 -312 q 151 -208 94 -253 q 246 -101 208 -162 z "},"z":{"ha":536,"x_min":19,"x_max":507,"o":"m 142 440 q 249 456 199 449 q 340 467 299 464 q 413 468 381 471 q 465 453 444 465 q 506 390 506 428 q 456 313 507 353 q 408 280 438 299 q 344 240 378 261 q 276 198 310 219 q 217 159 242 176 q 180 130 192 142 q 179 117 168 118 q 224 112 196 113 q 285 112 253 111 q 348 114 317 113 q 400 118 379 115 q 422 111 421 119 q 408 90 424 103 q 363 62 393 76 q 290 38 332 47 q 144 21 207 17 q 35 61 82 25 q 29 95 19 72 q 65 147 39 118 q 126 206 90 175 q 200 265 163 236 q 271 316 238 293 q 325 351 304 339 q 265 357 317 368 q 117 313 213 346 q 72 307 85 301 q 61 326 60 313 q 74 360 63 340 q 98 398 85 381 q 124 428 111 415 q 142 440 136 440 z "},"d":{"ha":569,"x_min":0,"x_max":740,"o":"m 733 851 q 715 822 732 849 q 674 755 699 796 q 619 660 650 714 q 559 549 589 607 q 502 433 529 492 q 457 321 475 374 q 433 256 446 290 q 404 189 419 222 q 459 213 425 197 q 528 245 493 229 q 594 272 564 261 q 640 283 625 283 q 651 265 664 282 q 610 224 639 249 q 546 174 582 200 q 488 129 510 149 q 396 60 442 89 q 319 36 350 32 q 271 56 290 40 q 247 89 251 72 q 242 110 244 97 q 239 133 240 122 q 236 161 238 147 q 209 138 228 153 q 167 110 190 124 q 119 89 144 97 q 72 83 94 81 q 39 95 51 86 q 19 115 26 104 q 8 134 11 125 q 3 147 6 143 q 0 165 0 151 q 6 197 0 178 q 23 237 11 215 q 57 282 35 258 q 110 330 78 304 q 177 377 142 356 q 248 415 213 399 q 311 439 283 432 q 350 439 333 444 q 378 422 367 433 l 504 656 q 549 738 528 697 q 585 814 569 779 q 612 872 601 849 q 625 904 622 896 q 649 926 632 919 q 704 910 665 932 q 730 882 719 901 q 733 851 740 863 m 151 211 q 212 231 172 218 q 289 271 251 243 l 303 281 l 333 338 l 303 329 q 263 306 288 324 q 215 267 239 288 q 172 229 190 246 q 151 211 154 213 z "},"A":{"ha":788,"x_min":-86,"x_max":936,"o":"m 808 964 q 860 956 832 964 q 908 926 889 949 q 932 862 928 903 q 914 756 936 821 q 854 608 894 700 q 765 413 814 517 q 819 406 800 413 q 844 389 839 399 q 842 367 850 379 q 814 346 833 356 q 779 335 803 340 q 722 322 756 329 q 668 209 694 264 q 620 108 642 154 q 581 25 599 61 q 556 -31 564 -11 q 529 -95 538 -71 q 518 -134 521 -119 q 516 -157 515 -149 q 519 -175 517 -165 q 515 -193 521 -185 q 497 -204 508 -201 q 469 -202 485 -207 q 436 -181 453 -197 q 410 -142 419 -164 q 403 -89 401 -119 q 419 -18 406 -58 q 461 75 433 22 q 509 169 481 111 q 571 299 538 228 q 492 288 531 293 q 419 280 453 283 q 356 274 385 276 q 311 271 328 271 q 266 272 288 269 q 225 276 244 274 q 105 80 143 154 q 56 -19 67 6 q 47 -52 49 -35 q 41 -83 44 -69 q 31 -103 38 -96 q 11 -108 25 -111 q -26 -94 -7 -104 q -60 -69 -46 -83 q -80 -39 -74 -54 q -78 -8 -86 -24 q 63 226 -14 107 q 228 458 140 344 q 411 674 315 571 q 608 864 507 778 q 673 914 644 894 q 725 944 701 933 q 769 960 749 956 q 808 964 789 964 m 617 399 q 670 523 643 460 q 722 647 697 586 q 766 765 746 708 q 800 867 786 821 q 724 836 772 867 q 613 749 675 806 q 476 609 550 692 q 326 422 403 526 q 302 389 314 406 q 279 357 290 372 q 349 365 308 360 q 434 375 389 369 q 526 387 479 381 q 617 399 574 393 z "},"B":{"ha":844,"x_min":-114,"x_max":932,"o":"m 675 440 q 778 404 744 431 q 819 342 811 378 q 813 266 826 307 q 772 185 799 225 q 707 119 757 163 q 580 31 657 76 q 403 -50 503 -14 q 189 -96 303 -86 q 99 -101 138 -101 q 35 -96 61 -100 q 17 -133 26 -115 q 0 -165 8 -150 q -33 -206 -18 -190 q -60 -219 -49 -221 q -86 -203 -75 -218 q -104 -162 -97 -187 q -112 -104 -111 -137 q -107 -35 -114 -71 q -79 33 -106 -24 q -13 169 -53 89 q 73 344 26 250 q 164 525 119 439 q 244 678 208 611 q 294 774 279 746 q 339 856 318 815 q 376 931 360 896 q 402 989 392 965 q 415 1021 413 1013 q 438 1043 422 1036 q 494 1028 454 1050 q 520 999 510 1018 q 524 969 531 981 q 506 938 521 967 q 467 861 490 908 q 629 963 553 935 q 765 987 706 992 q 865 949 825 982 q 919 868 906 917 q 915 772 932 826 q 849 657 897 717 q 719 535 800 597 q 521 415 638 474 q 619 436 579 429 q 675 440 660 443 m 378 692 q 285 502 332 600 q 203 322 238 404 l 204 326 q 305 383 243 349 q 434 460 367 418 q 567 550 501 503 q 682 645 633 597 q 755 739 731 693 q 763 824 779 785 q 718 864 747 857 q 651 860 689 871 q 572 828 614 850 q 493 780 531 806 q 424 730 456 754 q 378 692 393 706 m 49 -60 q 234 -33 147 -60 q 392 35 321 -6 q 518 124 464 75 q 606 219 572 174 q 649 299 639 264 q 643 350 660 335 q 580 363 628 364 q 466 350 532 363 q 324 314 400 338 q 176 258 247 290 l 176 257 q 150 201 167 242 q 115 112 133 160 q 78 17 96 64 q 49 -60 60 -31 z "},"C":{"ha":660,"x_min":-22,"x_max":983,"o":"m 785 1039 q 828 1044 803 1044 q 881 1036 854 1043 q 928 1015 907 1029 q 961 981 950 1001 q 978 917 983 939 q 949 896 972 894 q 926 905 938 897 q 900 921 915 913 q 863 933 885 929 q 808 932 842 938 q 601 859 700 911 q 419 732 503 807 q 271 563 336 657 q 165 363 206 468 q 149 284 151 326 q 153 203 146 242 q 179 134 161 164 q 226 92 197 104 q 297 78 257 79 q 378 85 338 78 q 453 106 418 92 q 511 135 489 119 q 547 153 539 154 q 550 136 556 151 q 527 96 544 121 q 484 44 510 71 q 426 -8 458 17 q 361 -47 394 -33 q 297 -66 332 -60 q 226 -71 261 -72 q 160 -60 192 -69 q 108 -33 129 -50 q 61 6 90 -19 q 10 76 32 32 q -17 189 -11 121 q 7 357 -22 257 q 116 583 40 475 q 295 779 192 690 q 524 935 399 868 q 785 1039 650 1001 z "},"D":{"ha":931,"x_min":-67,"x_max":1013,"o":"m 754 1042 q 838 1027 797 1047 q 913 967 879 1007 q 969 874 946 928 q 1003 756 993 819 q 1007 624 1013 693 q 975 488 1001 556 q 862 299 936 386 q 693 147 788 211 q 492 44 599 82 q 281 1 385 6 q 188 3 222 -1 q 137 17 154 8 q 115 35 119 25 q 114 56 111 46 q 134 69 117 65 q 175 72 151 72 q 223 72 199 72 q 263 75 247 72 q 469 142 382 97 q 621 244 557 186 q 729 371 685 303 q 806 510 774 439 q 851 658 842 589 q 849 777 861 726 q 802 857 836 828 q 717 886 768 886 q 553 842 633 886 q 401 732 474 799 q 340 610 372 674 q 279 485 308 547 q 224 367 250 424 q 182 264 199 310 q 158 215 171 246 q 131 151 144 185 q 105 88 117 118 q 88 42 93 58 q 69 -1 79 19 q 49 -39 58 -22 q 16 -79 31 -64 q -11 -93 1 -94 q -39 -72 -26 -92 q -58 -28 -51 -53 q -66 22 -65 -3 q -58 63 -67 47 q -28 122 -53 72 q 31 242 -4 171 q 106 395 65 313 q 184 553 146 478 q 253 690 222 629 q 300 779 285 751 q 344 862 324 821 q 381 938 365 903 q 408 996 397 972 q 421 1028 418 1019 q 444 1049 428 1043 q 500 1033 460 1056 q 526 1006 515 1025 q 529 975 536 986 q 510 940 526 972 q 465 856 493 908 q 524 915 494 885 q 589 972 554 946 q 664 1017 624 999 q 754 1042 704 1036 z "},"E":{"ha":564,"x_min":-15,"x_max":1058,"o":"m 1026 999 q 1052 980 1046 993 q 1053 951 1058 967 q 1034 919 1049 935 q 997 893 1019 903 q 960 883 978 885 q 924 884 943 882 q 880 889 904 886 q 821 892 856 892 q 766 890 793 890 q 712 887 739 890 q 658 876 685 883 q 604 853 632 868 q 475 756 538 814 q 357 629 413 699 q 436 635 396 631 q 521 645 476 639 q 617 661 565 651 q 729 683 668 671 q 764 683 747 696 q 783 645 781 669 q 767 593 786 621 q 697 551 749 565 q 581 528 638 535 q 471 520 524 522 q 369 519 418 518 q 279 519 321 521 q 178 322 217 424 q 161 244 164 286 q 166 163 158 201 q 192 94 174 124 q 239 51 210 64 q 310 38 269 39 q 392 44 351 38 q 467 65 432 51 q 524 94 503 79 q 560 113 551 114 q 564 96 569 111 q 541 56 558 81 q 497 3 524 31 q 439 -49 471 -24 q 374 -87 407 -74 q 310 -106 346 -100 q 240 -111 275 -112 q 174 -100 206 -110 q 122 -74 143 -90 q 75 -34 104 -60 q 24 36 46 -8 q -4 149 1 81 q 19 317 -10 217 q 55 413 33 365 q 104 507 76 460 q 62 503 79 504 q 32 499 44 501 q -1 513 13 496 q -3 558 -15 531 q 19 591 7 578 q 53 611 32 604 q 105 622 74 618 q 185 626 136 625 q 290 745 233 689 q 411 850 347 801 l 410 850 q 373 848 392 838 q 349 880 354 858 q 359 926 343 901 q 428 964 375 950 q 493 975 449 969 q 587 985 538 981 q 680 992 636 989 q 743 996 724 994 q 769 997 756 996 q 797 999 782 997 q 850 1002 818 1000 q 915 1005 882 1004 q 979 1004 949 1006 q 1026 999 1010 1003 z "},"F":{"ha":593,"x_min":-54,"x_max":914,"o":"m 900 1124 q 909 1101 904 1119 q 908 1062 914 1082 q 879 1026 901 1042 q 806 1015 857 1011 q 753 1007 779 1017 q 702 980 726 997 q 659 940 678 963 q 629 896 640 918 q 561 765 597 833 q 489 628 525 697 q 607 651 547 638 q 744 683 667 664 q 777 677 763 696 q 791 628 792 658 q 769 568 790 599 q 694 526 749 538 q 551 508 618 511 q 424 504 483 504 q 380 419 400 460 q 342 343 360 379 q 249 142 285 224 q 188 1 214 61 q 139 -107 161 -60 q 86 -204 117 -154 q 63 -229 76 -219 q 42 -271 51 -253 q 8 -311 22 -296 q -18 -325 -7 -326 q -42 -304 -33 -324 q -52 -260 -50 -285 q -51 -209 -54 -235 q -39 -168 -47 -183 q -15 -115 -33 -158 q 28 -7 3 -71 q 88 133 54 57 q 157 282 121 208 q 173 317 165 301 q 189 347 181 333 q 192 353 192 353 q 233 435 214 397 q 268 503 253 474 q 260 502 264 503 q 251 501 256 501 q 117 491 163 494 q 47 482 71 488 q 14 497 28 479 q 13 542 0 514 q 37 576 22 563 q 76 597 51 590 q 140 607 101 604 q 239 610 179 610 q 279 610 260 610 q 317 611 299 610 q 375 773 351 699 q 401 892 399 847 q 417 962 403 922 q 456 1040 432 1001 q 510 1111 479 1079 q 572 1160 540 1143 q 708 1204 651 1200 q 803 1195 764 1208 q 865 1159 842 1182 q 900 1124 888 1136 z "},"G":{"ha":975,"x_min":-33,"x_max":972,"o":"m 799 956 q 592 883 690 935 q 410 757 493 832 q 261 588 326 682 q 154 388 196 493 q 137 308 140 351 q 142 225 133 264 q 169 156 150 186 q 217 117 188 126 q 335 110 276 97 q 450 158 394 124 q 556 244 506 193 q 651 352 607 296 q 733 465 696 408 q 797 567 769 521 q 808 617 801 599 q 826 628 815 635 q 858 616 836 622 q 901 600 879 610 q 938 575 922 590 q 950 538 953 560 q 939 465 947 521 q 915 333 931 410 q 876 165 899 256 q 822 -12 853 74 q 928 -17 875 -12 q 955 -28 947 -19 q 956 -44 963 -36 q 928 -58 950 -53 q 869 -61 907 -64 q 840 -59 856 -60 q 806 -58 825 -58 q 773 -134 790 -99 q 736 -201 756 -169 q 597 -369 675 -301 q 441 -478 519 -436 q 292 -543 363 -521 q 175 -575 221 -565 q 106 -567 140 -583 q 48 -517 71 -550 q 21 -437 25 -483 q 42 -336 17 -390 q 133 -217 72 -271 q 276 -122 193 -162 q 462 -53 360 -81 q 679 -17 564 -26 q 719 105 701 43 q 749 225 736 167 q 769 335 761 283 q 782 424 778 386 q 733 350 763 390 q 681 280 713 321 q 609 194 649 239 q 524 107 569 150 q 428 30 478 64 q 328 -25 379 -4 q 226 -46 276 -46 q 155 -37 189 -46 q 99 -10 121 -28 q 51 31 81 6 q 0 101 22 56 q -28 214 -22 146 q -4 382 -33 282 q 106 608 31 500 q 285 804 181 715 q 514 960 389 893 q 774 1064 639 1026 q 817 1068 792 1069 q 869 1060 843 1067 q 918 1039 896 1053 q 951 1004 940 1025 q 967 941 972 963 q 939 921 963 919 q 917 929 928 921 q 890 946 906 938 q 853 958 875 954 q 799 956 832 963 m 604 -169 q 633 -121 619 -146 q 658 -68 646 -96 q 501 -106 583 -79 q 343 -183 419 -132 q 222 -281 271 -232 q 149 -370 174 -331 q 123 -435 124 -410 q 147 -457 122 -460 q 230 -437 172 -456 q 356 -382 288 -418 q 492 -293 425 -346 q 604 -169 560 -240 z "},"H":{"ha":821,"x_min":-60,"x_max":1206,"o":"m 1203 999 q 1196 982 1206 986 q 1178 967 1186 978 q 1131 905 1161 944 q 1056 799 1101 865 q 953 633 1011 732 q 822 390 894 533 q 707 154 749 247 q 643 3 665 61 q 613 -86 621 -56 q 599 -133 604 -117 q 565 -181 588 -168 q 519 -164 542 -194 q 505 -78 497 -135 q 544 50 513 -21 q 586 157 558 81 q 650 331 614 233 q 533 308 590 314 q 422 300 475 301 q 319 299 368 299 q 228 299 271 300 q 216 276 221 288 q 204 253 211 264 q 123 74 153 146 q 78 -42 93 3 q 60 -110 64 -87 q 54 -140 56 -132 q 46 -170 53 -156 q 17 -182 39 -185 q -8 -169 6 -181 q -31 -136 -22 -158 q -40 -79 -40 -114 q -25 6 -40 -44 q 19 122 -12 46 q 92 289 51 199 q 28 283 53 286 q -11 278 4 281 q -45 292 -31 275 q -46 338 -60 310 q -24 370 -36 357 q 10 390 -11 383 q 63 401 31 397 q 144 406 96 404 q 193 512 169 460 q 238 608 217 564 q 275 687 258 653 q 301 740 292 721 q 344 826 322 781 q 390 913 367 872 q 433 981 413 953 q 472 1015 454 1010 q 502 1011 482 1018 q 542 992 522 1004 q 574 963 563 979 q 579 931 586 946 q 544 869 574 918 q 474 747 515 819 q 382 587 432 675 q 283 407 332 499 q 369 412 326 408 q 459 422 411 415 q 563 439 507 429 q 686 463 618 449 q 704 468 693 468 q 783 657 743 567 q 861 808 824 747 q 997 1014 949 950 q 1069 1072 1044 1078 q 1104 1060 1082 1069 q 1148 1040 1126 1051 q 1186 1016 1169 1028 q 1203 999 1203 1004 z "},"I":{"ha":347,"x_min":-107,"x_max":713,"o":"m 646 993 q 693 980 674 996 q 711 947 713 964 q 685 916 711 929 q 596 900 660 903 l 586 900 q 518 784 560 854 q 430 631 476 714 q 335 457 383 547 q 244 282 286 367 q 158 90 188 165 q 114 -29 128 15 q 138 -27 125 -28 q 165 -24 151 -26 q 210 -28 192 -18 q 228 -54 229 -37 q 203 -90 228 -71 q 118 -121 178 -108 q 105 -123 111 -122 q 92 -125 99 -124 q 81 -147 89 -137 q 57 -153 74 -156 q 26 -135 40 -150 q -47 -139 -18 -139 q -85 -131 -72 -139 q -103 -112 -99 -124 q -103 -85 -107 -100 q -92 -58 -100 -71 q -56 -33 -78 -37 q 1 -29 -33 -28 q 6 1 3 -15 q 15 35 10 17 q 50 128 25 68 q 106 260 75 188 q 174 413 138 333 q 242 562 210 492 q 301 688 275 632 q 342 769 328 743 q 370 827 356 797 q 400 888 385 857 q 372 884 385 885 q 351 881 358 883 q 326 881 340 876 q 301 896 311 886 q 287 919 290 906 q 292 949 283 933 q 320 984 306 972 q 363 1003 335 996 q 402 1006 376 1007 q 467 1003 428 1006 q 513 1044 493 1039 q 532 1043 519 1046 q 559 1033 544 1040 q 588 1016 574 1026 q 611 994 603 1006 q 628 994 619 994 q 646 993 636 994 z "},"J":{"ha":526,"x_min":-168,"x_max":865,"o":"m 824 961 q 844 951 835 963 q 860 922 854 939 q 865 887 865 906 q 856 854 864 868 q 836 832 846 840 q 813 819 826 824 q 781 814 800 815 q 735 813 763 813 q 682 708 715 776 q 600 540 649 640 q 585 508 592 524 q 569 481 578 493 l 568 475 q 538 400 558 457 q 488 267 518 343 q 421 104 458 190 q 342 -59 383 18 q 256 -194 301 -136 q 167 -269 211 -251 q 77 -288 122 -287 q -7 -281 32 -289 q -75 -258 -46 -272 q -117 -231 -104 -243 q -150 -176 -137 -208 q -165 -113 -162 -144 q -161 -56 -168 -82 q -137 -22 -154 -31 q -118 -37 -132 -19 q -85 -76 -104 -54 q -45 -119 -67 -99 q -3 -140 -24 -139 q 70 -135 36 -144 q 133 -110 104 -126 q 181 -72 161 -93 q 213 -29 201 -50 q 266 85 239 21 q 320 219 293 150 q 374 356 347 288 q 428 483 401 424 q 478 599 458 550 q 515 684 499 647 q 544 751 531 721 q 572 811 557 781 q 536 814 556 813 q 490 816 517 815 q 426 815 463 817 q 339 806 389 813 q 292 810 311 799 q 272 838 272 821 q 299 875 272 856 q 389 907 325 894 q 503 928 444 918 q 611 942 561 939 q 628 943 617 943 l 628 944 l 649 983 q 665 998 657 994 q 682 1001 674 1001 q 697 997 690 1000 q 710 993 704 994 q 731 981 721 992 q 747 953 740 969 q 792 957 775 956 q 824 961 808 958 z "},"K":{"ha":714,"x_min":-47,"x_max":863,"o":"m 829 776 q 858 759 854 775 q 854 720 863 743 q 827 671 846 697 q 788 623 808 644 q 749 588 768 601 q 721 575 731 574 q 669 559 707 574 q 581 520 632 544 q 472 463 531 496 q 358 390 414 429 q 359 324 360 358 q 360 258 358 290 q 374 188 360 221 q 410 133 389 156 q 453 101 431 111 q 494 96 476 90 q 542 116 513 101 q 604 149 572 131 q 667 186 636 167 q 719 219 699 206 q 747 225 740 233 q 744 194 753 217 q 712 141 735 172 q 651 76 689 110 q 582 14 614 43 q 519 -35 550 -15 q 457 -65 488 -56 q 393 -69 426 -75 q 324 -33 360 -64 q 260 42 288 -1 q 216 134 232 85 q 204 226 200 183 q 205 246 204 236 q 207 265 206 256 l 206 265 q 167 229 176 235 q 103 84 126 143 q 69 -13 81 25 q 53 -71 57 -51 q 50 -97 50 -90 q 41 -128 47 -114 q 11 -140 35 -143 q -14 -128 0 -139 q -37 -94 -28 -117 q -47 -35 -46 -71 q -32 53 -47 1 q 4 149 -21 88 q 62 285 29 210 q 131 440 94 360 q 202 594 168 521 q 263 724 236 667 q 304 808 290 781 q 348 896 325 849 q 394 984 371 943 q 439 1055 417 1025 q 479 1090 461 1085 q 510 1086 489 1093 q 551 1066 532 1079 q 583 1036 571 1053 q 589 1003 596 1019 q 557 945 583 990 q 492 833 531 900 q 405 682 453 765 q 310 511 357 599 q 456 608 379 560 q 606 695 533 657 q 737 756 678 733 q 829 776 796 778 z "},"L":{"ha":631,"x_min":-32,"x_max":658,"o":"m 349 814 q 388 901 372 861 q 418 949 403 940 q 448 963 435 958 q 478 967 461 968 q 516 960 494 967 q 571 940 538 954 q 596 908 600 928 q 573 865 592 888 q 530 818 554 842 q 493 775 506 794 q 445 694 472 742 q 388 591 418 646 q 326 481 357 536 q 270 377 296 425 q 226 294 244 329 q 201 247 208 260 q 174 185 192 228 q 144 94 157 142 q 126 3 131 46 q 139 -56 122 -39 q 182 -65 151 -67 q 253 -56 213 -64 q 342 -39 294 -49 q 438 -22 390 -29 q 488 -13 460 -19 q 544 -1 517 -7 q 597 7 572 4 q 636 6 622 10 q 657 -21 656 0 q 643 -65 658 -42 q 597 -106 628 -87 q 521 -126 567 -125 q 395 -141 456 -128 q 281 -167 335 -154 q 179 -189 226 -181 q 92 -189 132 -197 q 52 -182 74 -185 q 12 -172 31 -179 q -19 -150 -7 -164 q -32 -110 -32 -136 q -18 -15 -31 -67 q 13 85 -6 36 q 49 178 31 135 q 79 250 67 221 q 140 390 106 317 q 211 538 175 464 q 283 682 247 611 q 349 814 318 753 z "},"M":{"ha":1194,"x_min":-89,"x_max":1189,"o":"m 1075 -165 q 1048 -169 1063 -171 q 1021 -162 1033 -168 q 1000 -147 1008 -156 q 990 -129 992 -139 q 964 -87 975 -112 q 945 -31 953 -61 q 933 29 938 -1 q 929 88 929 60 q 934 153 929 111 q 947 246 939 194 q 966 356 956 297 q 988 471 976 414 q 1046 760 1013 604 q 993 678 1026 728 q 919 572 960 629 q 836 453 879 514 q 753 338 793 393 q 681 237 713 282 q 631 165 649 192 q 591 97 604 125 q 565 49 578 68 q 535 21 553 31 q 482 10 517 11 q 438 29 460 8 q 411 114 417 50 q 411 173 408 135 q 419 259 414 211 q 433 360 425 307 q 449 467 440 414 q 494 733 468 590 q 433 640 468 697 q 359 516 397 582 q 281 380 321 450 q 207 249 242 310 q 144 140 172 188 q 103 72 117 93 q 70 6 82 40 q 44 -54 58 -29 q 8 -86 31 -79 q -56 -69 -14 -93 q -85 -12 -89 -50 q -29 104 -82 26 q -6 142 -22 115 q 31 204 10 168 q 76 283 51 240 q 123 366 100 325 q 167 443 146 407 q 203 504 188 479 q 246 569 218 531 q 307 653 274 608 q 376 742 340 697 q 442 825 411 788 q 494 889 472 863 q 525 921 517 915 q 565 935 547 939 q 604 919 582 931 q 656 882 640 901 q 673 842 671 863 q 669 803 675 822 q 660 768 664 785 q 652 733 657 760 q 640 669 647 707 q 626 585 633 631 q 610 493 618 539 q 571 251 592 385 q 665 358 617 297 q 760 483 714 418 q 849 612 807 549 q 927 726 892 675 q 988 811 963 778 q 1025 850 1013 844 q 1066 856 1042 858 q 1114 840 1090 854 q 1157 799 1138 826 q 1185 729 1176 772 q 1185 659 1189 704 q 1171 556 1181 614 q 1148 435 1161 499 q 1122 308 1135 371 q 1097 188 1108 244 q 1081 90 1086 132 q 1090 -3 1078 32 q 1124 -67 1103 -39 q 1128 -83 1129 -69 q 1122 -112 1128 -96 q 1103 -143 1115 -128 q 1075 -165 1092 -158 z "},"N":{"ha":743,"x_min":-71,"x_max":999,"o":"m 997 831 q 991 798 999 815 q 979 774 983 781 q 934 696 963 744 q 871 590 906 647 q 799 472 836 533 q 729 353 763 410 q 669 251 696 297 q 626 179 642 206 q 594 110 604 139 q 574 63 585 82 q 547 35 564 44 q 494 24 529 25 q 449 43 474 22 q 413 128 425 64 q 406 187 408 149 q 405 273 404 225 q 408 374 406 321 q 413 481 410 428 q 431 747 418 604 q 380 655 408 711 q 320 533 351 599 q 258 401 289 468 q 201 274 228 333 q 152 167 174 214 q 118 100 131 121 q 90 31 100 68 q 68 -34 81 -7 q 33 -70 56 -61 q -33 -56 10 -79 q -70 2 -69 -36 q -26 118 -71 40 q -8 155 -21 128 q 23 218 6 182 q 60 297 40 254 q 99 380 79 339 q 135 457 118 421 q 164 518 151 493 q 200 583 176 544 q 252 664 224 621 q 311 750 281 707 q 369 829 342 793 q 415 890 396 865 q 442 921 435 915 q 480 935 463 939 q 521 919 497 931 q 579 884 560 901 q 606 849 599 867 q 611 815 613 832 q 606 782 610 799 q 601 747 604 774 q 593 681 597 719 q 584 597 589 643 q 574 503 579 550 q 547 257 561 392 q 618 346 582 294 q 690 453 654 397 q 760 565 726 508 q 824 674 794 622 q 878 766 854 725 q 918 831 901 807 q 933 854 929 844 q 942 867 936 864 q 978 863 961 875 q 997 831 994 850 z "},"O":{"ha":924,"x_min":-8,"x_max":1007,"o":"m 943 906 q 982 809 967 863 q 1002 697 997 756 q 999 577 1007 639 q 969 454 992 515 q 873 277 935 360 q 731 129 811 194 q 559 19 651 64 q 374 -44 467 -26 q 321 -61 350 -56 q 262 -67 292 -67 q 203 -64 232 -68 q 151 -49 174 -60 q 123 -37 132 -44 q 110 -22 114 -31 q 63 21 89 -6 q 17 92 36 47 q -5 201 -1 136 q 19 360 -8 267 q 99 540 46 453 q 225 703 153 626 q 386 844 297 779 q 575 957 475 908 q 653 1008 611 988 q 749 1036 696 1029 q 765 1038 757 1038 q 781 1038 772 1038 l 797 1042 q 843 1028 815 1047 q 895 983 871 1008 q 935 933 919 957 q 943 906 950 910 m 800 478 q 846 633 836 561 q 843 759 856 706 q 797 843 831 813 q 711 874 763 874 q 646 865 679 874 q 581 842 613 857 q 340 639 444 763 q 178 365 236 515 q 161 287 164 329 q 166 206 158 244 q 192 137 174 167 q 239 94 210 107 q 310 81 269 82 q 390 88 350 81 q 466 108 431 94 q 524 138 501 122 q 564 154 558 164 q 706 305 651 221 q 800 478 761 389 z "},"P":{"ha":626,"x_min":0,"x_max":1036,"o":"m 567 913 q 745 985 658 972 q 898 976 832 997 q 1000 907 964 954 q 1026 801 1036 860 q 967 669 1017 743 q 824 524 917 594 q 593 395 731 453 q 272 313 456 338 q 260 283 265 297 q 249 254 254 268 q 224 206 238 236 q 197 142 210 175 q 172 78 183 108 q 154 33 160 49 q 115 -49 135 -14 q 82 -89 97 -74 q 56 -103 67 -104 q 28 -82 40 -101 q 8 -37 15 -62 q 1 13 1 -12 q 8 54 0 39 q 38 113 14 64 q 97 233 63 163 q 172 385 132 303 q 251 544 213 468 q 320 682 289 621 q 367 771 351 743 q 411 853 390 813 q 448 928 432 893 q 474 986 464 963 q 488 1018 485 1010 q 510 1040 494 1033 q 567 1025 526 1047 q 592 997 582 1017 q 596 967 603 978 q 587 950 594 964 q 567 913 579 936 m 847 769 q 843 838 856 815 q 803 867 831 861 q 739 864 776 872 q 658 839 701 856 q 570 799 615 822 q 485 756 525 776 q 394 577 442 672 q 307 394 347 482 q 481 458 390 419 q 650 547 572 497 q 782 653 728 596 q 847 769 836 710 z "},"Q":{"ha":907,"x_min":-10,"x_max":1007,"o":"m 969 453 q 896 309 942 378 q 791 183 850 240 q 663 78 732 125 q 519 0 593 32 q 563 -42 540 -25 q 608 -71 585 -60 q 706 -87 653 -92 q 805 -69 758 -83 q 886 -40 851 -56 q 931 -19 921 -24 q 944 -22 940 -15 q 944 -41 947 -29 q 933 -68 942 -53 q 911 -97 925 -83 q 866 -130 897 -111 q 794 -165 835 -149 q 704 -190 753 -181 q 608 -192 656 -199 q 476 -140 533 -181 q 375 -44 418 -99 q 372 -46 374 -44 q 260 -68 324 -67 q 150 -49 197 -69 q 110 -22 117 -40 q 62 21 89 -6 q 16 92 35 47 q -6 201 -3 136 q 18 360 -10 267 q 101 544 46 456 q 233 713 157 633 q 244 746 238 731 q 309 869 269 807 q 403 978 349 931 q 525 1054 457 1026 q 674 1075 593 1082 q 801 1050 758 1068 q 858 1015 843 1032 q 893 983 876 1001 q 922 949 910 965 q 940 920 935 932 q 942 906 946 908 q 981 809 965 863 q 1002 697 997 756 q 999 576 1007 639 q 969 453 992 514 m 647 974 q 610 963 629 969 q 574 947 592 957 q 667 960 614 958 q 752 958 715 963 q 801 943 789 953 q 800 944 801 944 l 797 947 q 769 965 788 958 q 728 975 750 972 q 685 977 707 978 q 647 974 664 976 m 239 94 q 294 82 264 85 q 277 120 285 101 q 263 156 269 139 q 232 284 244 204 q 215 451 219 364 q 194 409 204 431 q 176 365 185 388 q 160 287 163 329 q 165 206 157 244 q 191 137 172 167 q 239 94 210 107 m 564 154 q 706 305 650 221 q 799 478 761 389 q 823 564 811 504 q 839 692 835 624 q 837 827 843 761 q 807 935 831 893 q 772 902 806 922 q 682 872 738 882 q 670 871 675 872 q 660 868 665 869 q 581 842 615 860 q 482 776 529 813 q 392 697 435 739 q 387 676 389 686 q 382 656 385 667 q 372 557 374 614 q 376 439 371 500 q 392 317 381 378 q 418 210 403 257 q 438 154 428 179 q 457 106 447 129 q 522 138 500 121 q 564 154 557 163 z "},"R":{"ha":811,"x_min":-11,"x_max":1071,"o":"m 951 -274 q 973 -284 969 -268 q 965 -319 976 -300 q 928 -351 954 -337 q 860 -357 901 -365 q 776 -309 822 -349 q 683 -208 731 -269 q 588 -71 635 -147 q 503 86 542 6 q 426 277 450 193 q 400 393 401 361 q 347 376 374 385 q 290 358 319 367 q 277 331 283 344 q 264 306 271 318 q 172 105 206 186 q 122 -28 139 24 q 101 -104 106 -79 q 96 -137 96 -129 q 85 -172 93 -156 q 53 -185 78 -189 q 25 -171 40 -183 q 0 -133 10 -158 q -10 -69 -10 -108 q 7 26 -11 -31 q 46 131 18 64 q 109 281 74 199 q 185 451 144 363 q 262 619 225 539 q 328 760 299 699 q 374 853 358 822 q 422 949 396 897 q 472 1047 447 1001 q 522 1124 497 1092 q 565 1163 546 1156 q 599 1158 575 1165 q 644 1135 622 1150 q 680 1103 665 1121 q 686 1067 694 1085 q 660 1019 681 1056 q 607 928 639 983 q 776 1053 700 1017 q 910 1085 853 1089 q 1004 1047 967 1082 q 1057 958 1042 1011 q 1046 847 1071 910 q 956 714 1021 783 q 783 574 890 644 q 524 440 675 503 q 536 372 529 408 q 559 288 543 336 q 606 175 575 240 q 689 18 636 110 q 782 -120 736 -64 q 865 -210 828 -176 q 925 -260 901 -244 q 951 -274 949 -275 m 504 753 q 409 583 458 672 q 315 406 360 494 q 424 467 360 431 q 559 547 489 504 q 696 638 629 590 q 812 734 763 686 q 885 827 861 782 q 893 911 910 872 q 849 951 878 944 q 783 945 819 957 q 704 908 746 933 q 624 854 663 883 q 554 797 586 825 q 504 753 522 769 z "},"S":{"ha":617,"x_min":-6,"x_max":718,"o":"m 678 929 q 654 926 665 929 q 628 915 643 924 q 590 891 613 907 q 535 846 568 875 q 477 799 513 826 q 401 737 442 771 q 319 665 361 703 q 240 588 276 626 q 176 509 203 549 q 138 435 149 469 q 133 383 128 403 q 156 349 139 363 q 198 328 172 336 q 256 311 224 319 q 377 273 318 293 q 476 217 436 253 q 526 147 508 188 q 533 64 543 107 q 484 -44 524 15 q 388 -155 444 -103 q 265 -243 332 -207 q 133 -282 199 -279 q 43 -256 68 -285 q 17 -188 18 -228 q 31 -108 15 -149 q 61 -46 46 -67 q 109 8 76 -25 q 177 72 142 40 q 242 128 213 104 q 282 157 272 153 q 295 148 303 167 q 247 76 288 129 q 215 32 233 58 q 176 -24 196 6 q 137 -84 156 -54 q 107 -138 118 -114 q 93 -178 96 -162 q 103 -194 90 -194 q 166 -179 126 -196 q 248 -129 206 -162 q 332 -46 290 -96 q 401 71 374 4 q 419 128 417 103 q 407 165 421 154 q 355 195 386 182 q 299 215 324 208 q 234 232 276 221 q 147 262 192 243 q 65 308 103 281 q 13 376 26 336 q 2 476 -6 426 q 34 572 10 525 q 92 663 58 619 q 161 742 126 706 q 217 798 183 765 q 287 865 250 831 q 360 935 324 900 q 429 998 397 969 q 484 1046 461 1026 q 514 1069 507 1065 q 581 1086 538 1081 q 664 1076 625 1092 q 706 1040 693 1064 q 717 991 718 1015 q 706 948 717 967 q 678 929 694 929 z "},"T":{"ha":435,"x_min":-3,"x_max":978,"o":"m 926 1086 q 944 1090 933 1092 q 963 1080 954 1089 q 974 1055 971 1071 q 972 1017 978 1039 q 952 978 965 993 q 913 954 939 964 q 847 940 888 944 q 747 935 807 936 q 706 934 728 935 q 661 932 685 933 q 593 815 633 885 q 506 664 553 746 q 413 494 460 582 q 325 324 365 407 q 247 147 274 217 q 208 35 219 78 q 194 -27 196 -7 q 192 -56 193 -47 q 190 -74 192 -64 q 181 -92 188 -83 q 165 -107 175 -101 q 138 -111 154 -112 q 113 -100 126 -111 q 90 -67 99 -89 q 81 -9 81 -44 q 96 76 81 26 q 133 169 107 110 q 194 302 160 229 q 268 454 229 375 q 343 603 307 533 q 408 729 379 674 q 450 811 436 785 q 477 863 464 836 q 504 918 490 890 q 285 890 399 907 q 67 849 171 872 q 48 837 61 835 q 23 851 35 839 q 4 881 11 863 q 2 919 -3 900 q 28 956 7 939 q 96 981 50 972 q 195 996 139 989 q 314 1009 251 1003 q 442 1020 376 1015 q 567 1029 507 1025 q 621 1086 597 1078 q 659 1076 635 1090 q 696 1039 683 1061 q 782 1047 751 1043 q 851 1056 826 1051 q 891 1065 876 1060 q 913 1074 906 1069 q 926 1086 919 1079 z "},"U":{"ha":888,"x_min":-4,"x_max":1258,"o":"m 1172 1144 q 1197 1140 1181 1147 q 1227 1121 1213 1133 q 1250 1092 1242 1108 q 1251 1060 1258 1075 q 1226 1015 1246 1050 q 1176 928 1207 981 q 1108 811 1146 876 q 1031 674 1071 746 q 951 528 990 603 q 876 382 911 453 q 798 206 825 275 q 759 94 771 136 q 745 31 747 51 q 743 3 743 11 q 740 -15 742 -6 q 732 -34 738 -25 q 716 -49 726 -43 q 689 -53 706 -54 q 664 -42 678 -53 q 641 -8 650 -31 q 632 49 632 14 q 647 135 632 85 q 669 194 654 158 q 706 275 685 229 q 636 188 671 229 q 568 110 601 146 q 503 49 535 75 q 444 11 471 24 q 329 -28 383 -17 q 230 -37 275 -39 q 151 -19 185 -35 q 94 19 117 -4 q 36 106 61 57 q 3 215 11 156 q 9 342 -4 275 q 64 481 22 408 q 145 628 106 553 q 218 769 185 704 q 275 883 251 835 q 308 947 299 931 q 331 982 317 963 q 363 1019 346 1001 q 397 1051 379 1038 q 428 1072 414 1065 q 504 1076 474 1093 q 531 1019 535 1060 q 520 983 528 1000 q 501 952 513 967 q 476 922 489 938 q 450 889 463 907 q 422 847 442 876 q 375 776 401 817 q 319 687 349 735 q 263 592 290 639 q 214 505 236 546 q 181 436 192 464 q 165 340 164 394 q 181 238 165 286 q 226 156 196 190 q 297 119 256 121 q 397 144 339 117 q 527 231 456 172 q 682 377 599 289 q 856 585 765 465 q 902 676 879 632 q 944 758 925 721 q 978 824 963 796 q 1001 869 993 853 q 1044 956 1022 910 q 1089 1042 1067 1001 q 1133 1110 1111 1082 q 1172 1144 1154 1139 z "},"V":{"ha":467,"x_min":-1,"x_max":849,"o":"m 847 1003 q 841 970 849 988 q 829 946 833 953 q 772 848 813 917 q 678 691 731 779 q 567 505 625 603 q 457 320 508 407 q 366 167 406 233 q 311 74 326 100 q 278 5 289 33 q 258 -42 268 -24 q 231 -71 247 -61 q 179 -82 214 -81 q 134 -62 158 -83 q 97 22 110 -42 q 88 88 93 43 q 76 193 82 133 q 65 322 71 253 q 54 458 60 390 q 29 808 42 618 q 3 842 8 817 q 3 894 -1 867 q 19 948 8 922 q 40 982 29 974 q 78 996 61 1000 q 119 981 96 992 q 177 945 158 963 q 203 910 196 928 q 209 876 211 893 q 204 843 207 860 q 203 801 203 835 q 205 716 203 767 q 210 604 207 665 q 215 481 213 543 q 232 151 222 333 q 315 261 267 190 q 418 419 364 332 q 528 599 472 506 q 631 774 583 692 q 715 917 679 856 q 768 1003 751 979 q 782 1026 778 1017 q 792 1039 786 1036 q 828 1035 811 1047 q 847 1003 844 1024 z "},"W":{"ha":960,"x_min":-1,"x_max":1210,"o":"m 1175 961 q 1201 940 1193 953 q 1209 906 1210 926 q 1197 856 1208 885 q 1161 786 1185 826 q 1142 747 1156 775 q 1110 681 1128 719 q 1071 599 1092 643 q 1030 513 1050 556 q 991 433 1010 471 q 960 371 972 396 q 921 302 946 343 q 866 214 896 261 q 804 119 836 167 q 744 32 772 72 q 697 -35 717 -8 q 669 -69 676 -62 q 631 -85 647 -89 q 590 -74 614 -82 q 536 -41 553 -60 q 515 -3 519 -22 q 515 37 511 17 q 524 74 519 57 q 528 109 525 82 q 536 174 532 136 q 544 258 540 213 q 553 351 549 304 q 574 596 563 461 q 488 483 532 547 q 403 350 444 418 q 323 215 361 282 q 253 95 285 149 q 199 6 222 42 q 165 -35 176 -29 q 144 -42 160 -39 q 126 -67 139 -58 q 90 -75 114 -76 q 68 -69 79 -75 q 47 -51 57 -64 q 28 -17 36 -39 q 17 36 21 4 q 15 55 15 44 q 14 78 15 65 q 14 99 11 90 q 13 187 13 136 q 13 296 13 238 q 14 415 13 354 q 17 535 15 476 q 25 819 19 672 q 1 854 4 829 q 6 907 -1 879 q 25 959 13 935 q 49 992 38 983 q 89 1001 72 1007 q 129 983 106 996 q 184 944 167 963 q 207 908 201 925 q 210 874 213 890 q 203 840 207 857 q 197 798 200 832 q 191 715 194 764 q 184 604 188 665 q 178 481 181 543 q 161 154 171 333 q 156 119 157 136 q 153 83 154 101 q 204 174 174 122 q 269 283 235 225 q 340 399 304 340 q 409 511 376 458 q 467 607 442 564 q 508 676 493 650 q 543 748 532 718 q 565 798 554 778 q 593 828 576 818 q 644 843 610 839 q 690 826 667 846 q 724 744 713 807 q 728 684 728 722 q 726 598 728 646 q 720 496 724 550 q 713 389 717 442 q 686 119 701 264 q 741 218 710 158 q 806 347 772 278 q 873 488 839 415 q 938 624 907 561 q 992 737 968 688 q 1028 808 1015 786 q 1056 878 1047 842 q 1077 939 1065 914 q 1110 973 1089 964 q 1175 961 1132 982 z "},"X":{"ha":793,"x_min":-25,"x_max":1050,"o":"m 1029 958 q 1047 937 1043 950 q 1040 903 1050 924 q 1007 853 1031 882 q 944 783 983 824 q 913 747 935 772 q 860 688 890 722 q 794 613 829 654 q 722 532 758 572 q 653 454 686 492 q 594 389 619 417 q 618 301 607 342 q 638 228 629 260 q 656 161 647 192 q 720 228 694 218 q 757 219 746 238 q 767 161 768 200 q 751 83 765 122 q 733 15 738 43 q 723 -33 729 -14 q 702 -61 717 -51 q 653 -72 688 -71 q 603 -53 632 -74 q 549 32 575 -32 q 517 122 538 60 q 474 264 497 183 q 363 158 422 214 q 250 53 303 101 q 158 -31 197 4 q 107 -72 118 -65 q 62 -88 78 -92 q 26 -76 46 -85 q -15 -44 -6 -62 q -21 -6 -25 -25 q -4 34 -17 14 q 19 71 8 54 q 59 97 31 88 q 119 110 88 106 q 200 117 156 115 q 307 228 244 160 q 440 376 369 297 q 394 535 417 456 q 354 676 372 614 q 314 818 333 750 q 280 851 290 826 q 268 904 269 876 q 273 958 267 932 q 288 992 279 983 q 323 1006 304 1010 q 367 990 342 1001 q 433 955 410 972 q 466 920 456 938 q 478 886 476 903 q 481 853 481 869 q 488 813 481 844 q 506 736 494 782 q 533 633 518 690 q 563 515 547 575 q 645 610 606 564 q 719 694 685 656 q 778 761 753 732 q 819 806 804 790 q 876 875 853 839 q 923 936 900 911 q 970 970 946 961 q 1029 958 994 979 z "},"Y":{"ha":608,"x_min":-1,"x_max":854,"o":"m 831 1092 q 839 988 854 1054 q 779 840 824 921 q 740 758 764 814 q 685 631 715 701 q 622 482 656 560 q 558 333 589 404 q 499 206 526 263 q 453 122 472 150 q 273 -109 338 -40 q 179 -169 208 -178 q 143 -153 164 -165 q 103 -127 122 -142 q 70 -99 83 -112 q 60 -78 57 -85 q 81 -53 64 -64 q 128 -18 97 -42 q 203 49 158 6 q 311 172 249 93 q 385 288 346 218 q 465 437 425 357 q 542 601 504 517 q 613 764 579 686 q 550 671 582 718 q 490 581 518 624 q 438 503 461 538 q 400 450 414 469 q 360 401 378 419 q 328 373 343 383 q 299 360 314 363 q 269 358 285 357 q 242 361 257 358 q 213 372 228 364 q 185 397 199 381 q 161 442 171 413 q 145 493 154 461 q 126 563 136 525 q 107 644 117 601 q 88 729 97 688 q 40 938 64 826 q 7 971 15 949 q 2 1017 -1 993 q 16 1061 6 1042 q 38 1088 26 1081 q 80 1092 60 1099 q 128 1072 100 1086 q 197 1033 174 1051 q 230 998 221 1014 q 239 967 239 982 q 236 939 239 953 q 237 911 235 932 q 243 860 239 890 q 253 794 247 831 q 267 722 260 758 q 303 532 282 636 q 342 524 314 507 q 408 583 371 540 q 488 683 446 625 q 570 797 531 740 q 641 899 610 853 q 689 963 672 944 q 693 967 692 965 q 697 972 694 969 q 722 1032 713 1008 q 733 1063 731 1056 q 778 1116 750 1103 q 831 1092 807 1129 z "},"Z":{"ha":876,"x_min":-49,"x_max":967,"o":"m 958 979 q 965 942 963 964 q 963 892 967 919 q 944 835 958 865 q 903 774 931 804 q 830 701 883 753 q 705 581 776 650 q 552 434 633 513 q 397 281 471 356 l 399 281 q 376 258 394 276 q 336 219 357 240 q 298 179 315 197 q 279 160 281 161 q 215 92 243 124 q 164 35 186 61 q 313 37 231 35 q 472 42 394 39 q 611 49 549 46 q 700 57 674 53 q 754 68 735 63 q 785 79 774 74 q 801 91 796 85 q 813 106 807 97 q 826 112 818 114 q 842 99 835 110 q 851 67 849 88 q 849 19 854 47 q 833 -27 843 -8 q 803 -57 822 -46 q 752 -74 783 -68 q 674 -81 721 -79 q 551 -83 629 -82 q 383 -90 472 -85 q 202 -104 293 -94 q 42 -132 111 -114 q 24 -154 35 -144 q -4 -157 13 -164 q -28 -140 -15 -160 q -44 -91 -40 -119 q -37 -33 -49 -62 q 11 14 -26 -3 l 24 32 q 97 122 51 68 q 194 239 142 176 q 253 300 214 261 q 344 388 293 339 q 454 494 396 438 q 568 605 513 550 q 672 710 624 660 q 751 801 719 761 q 794 865 783 840 q 783 893 804 890 q 578 872 671 882 q 499 864 538 868 q 428 856 460 860 q 373 847 396 851 q 343 840 350 843 q 314 829 329 833 q 280 830 299 825 q 238 853 261 835 q 183 911 214 871 q 153 953 164 935 q 150 999 142 972 q 173 1028 154 1011 q 216 1055 192 1044 q 265 1063 240 1065 q 307 1039 290 1061 q 535 1053 428 1047 q 627 1058 581 1056 q 716 1062 674 1060 q 793 1065 758 1064 q 850 1064 828 1065 q 901 1053 882 1063 q 933 1032 921 1044 q 950 1006 944 1019 q 958 979 956 992 z "},"a":{"ha":594,"x_min":-3,"x_max":753,"o":"m 356 357 q 318 341 349 357 q 253 302 288 325 q 190 254 218 279 q 163 214 163 229 q 183 222 165 214 q 227 242 201 231 q 281 265 253 253 q 335 288 310 278 q 378 305 361 299 q 397 310 394 311 q 417 280 413 299 q 410 247 422 261 q 392 226 401 238 q 378 207 383 215 q 375 197 374 199 q 390 203 376 194 q 424 219 399 208 q 481 242 449 229 q 552 269 514 256 q 625 297 590 283 q 688 319 660 310 q 728 333 715 329 q 750 333 747 340 q 742 311 753 326 q 712 276 732 296 q 665 240 692 257 q 593 198 639 224 q 499 147 547 172 q 410 103 451 122 q 354 78 369 83 q 317 73 339 72 q 278 83 296 74 q 253 111 261 93 q 254 157 244 129 q 178 122 217 135 q 115 99 139 108 q 82 99 103 94 q 42 117 61 103 q 10 154 22 131 q 3 213 -3 178 q 37 281 8 247 q 101 342 65 314 q 170 388 136 369 q 221 411 204 407 q 259 417 238 415 q 302 417 281 419 q 344 407 324 415 q 378 383 364 399 q 377 365 385 376 q 356 357 369 354 z "},"b":{"ha":654,"x_min":-42,"x_max":631,"o":"m 525 1004 q 551 976 540 996 q 554 946 561 957 q 529 900 551 942 q 474 794 507 858 q 399 649 440 729 q 319 488 358 568 q 247 332 281 407 q 196 204 214 257 q 273 292 231 249 q 358 369 315 335 q 440 424 400 403 q 510 444 479 444 q 602 401 574 444 q 619 292 631 357 q 596 213 614 260 q 543 122 578 167 q 457 42 508 78 q 333 -6 406 6 q 217 -10 263 -17 q 153 10 172 -3 q 140 33 135 22 q 175 42 146 44 q 245 53 208 38 q 317 93 282 68 q 381 149 351 118 q 429 209 410 181 q 456 260 449 238 q 453 289 463 282 q 419 283 444 294 q 360 248 394 271 q 287 192 325 225 q 214 122 249 160 q 149 41 179 85 q 94 -40 119 -3 q 49 -101 69 -76 q 14 -124 29 -125 q -14 -103 -1 -122 q -33 -58 -26 -83 q -41 -8 -40 -33 q -33 33 -42 18 q -3 92 -28 43 q 56 212 21 142 q 131 365 90 282 q 209 524 171 447 q 278 661 247 600 q 325 750 310 722 q 369 832 349 792 q 406 907 390 872 q 433 965 422 942 q 446 997 443 989 q 469 1019 453 1013 q 525 1004 486 1026 z "},"c":{"ha":564,"x_min":-29,"x_max":692,"o":"m 271 474 q 306 476 285 476 q 346 470 326 475 q 383 455 365 465 q 408 428 400 444 q 421 378 425 396 q 399 363 417 361 q 385 369 390 363 q 374 382 381 376 q 354 388 367 388 q 319 374 342 388 q 265 331 296 360 q 205 267 235 301 q 151 198 175 232 q 118 142 126 164 q 110 101 110 119 q 121 71 110 82 q 156 58 132 60 q 217 69 179 57 q 313 107 256 82 q 431 165 369 132 q 555 233 493 197 q 667 304 617 269 q 689 301 686 317 q 661 246 692 286 q 615 206 651 232 q 527 149 578 181 q 417 83 476 117 q 303 20 358 49 q 204 -28 249 -8 q 138 -50 160 -47 q 49 -30 89 -57 q -6 36 10 -3 q -25 112 -21 75 q -6 194 -29 149 q 20 235 1 210 q 64 291 39 261 q 117 351 89 321 q 174 408 146 382 q 227 451 201 433 q 271 474 253 469 z "},"%":{"ha":968,"x_min":129,"x_max":981,"o":"m 742 300 q 767 275 749 293 q 802 229 786 257 q 823 165 818 201 q 807 88 828 129 q 751 10 788 46 q 671 -49 714 -25 q 585 -84 628 -74 q 510 -87 542 -94 q 465 -58 478 -81 q 453 -8 451 -36 q 466 49 454 21 q 496 97 478 78 q 541 144 514 117 q 597 197 568 171 q 653 241 625 222 q 700 264 681 260 q 715 268 704 265 q 704 285 711 278 q 692 305 690 299 q 703 312 694 311 q 723 309 711 313 q 742 300 735 306 m 688 92 q 704 120 697 103 q 717 160 711 138 q 678 128 697 146 q 642 95 658 111 q 613 66 625 79 q 599 47 601 53 q 605 42 596 40 q 628 49 614 43 q 659 67 643 56 q 688 92 675 78 m 882 1067 q 911 1063 892 1069 q 947 1043 931 1056 q 972 1014 964 1031 q 971 982 981 997 q 936 938 964 972 q 867 851 908 903 q 775 733 826 799 q 668 597 724 668 q 556 450 613 525 q 451 304 500 375 q 333 126 378 197 q 263 9 288 54 q 228 -58 238 -36 q 218 -89 219 -81 q 203 -119 213 -104 q 171 -131 193 -133 q 149 -118 160 -129 q 133 -85 138 -107 q 136 -28 129 -62 q 169 57 143 7 q 224 150 188 90 q 308 283 261 210 q 408 435 356 356 q 509 584 461 514 q 595 710 557 654 q 653 792 633 765 q 706 867 678 828 q 761 943 733 907 q 685 943 732 943 q 594 944 639 943 q 515 946 549 944 q 476 949 481 947 q 476 936 472 950 q 486 902 479 922 q 499 860 493 882 q 504 826 504 839 q 503 824 503 825 q 499 792 503 808 q 488 758 496 776 q 431 681 468 717 q 351 622 393 646 q 265 587 308 597 q 190 583 222 576 q 145 613 158 590 q 133 663 132 635 q 145 720 133 692 q 175 768 157 749 q 220 815 193 788 q 276 867 247 842 q 333 912 306 893 q 379 935 360 931 l 396 939 q 392 946 393 943 q 388 951 390 949 l 383 956 q 382 964 381 961 q 380 979 379 975 q 406 990 381 983 q 447 997 415 993 q 523 1006 479 1001 q 616 1016 567 1011 q 710 1024 665 1021 q 788 1031 754 1028 q 833 1035 821 1033 l 838 1035 q 882 1067 865 1063 m 368 763 q 385 790 378 772 q 397 831 392 808 q 358 799 378 817 q 322 766 339 782 q 294 737 306 750 q 279 718 282 724 q 285 713 276 711 q 308 720 293 714 q 339 738 322 726 q 368 763 356 749 z "},"?":{"ha":674,"x_min":38,"x_max":658,"o":"m 549 1010 q 601 970 578 993 q 639 916 625 947 q 656 842 653 885 q 646 744 658 800 q 622 658 633 689 q 597 610 611 628 q 568 578 583 592 q 532 543 553 565 q 474 494 513 521 q 397 441 436 468 q 327 388 358 414 q 290 343 296 363 q 264 292 281 315 q 230 255 247 268 q 198 242 213 242 q 178 258 183 242 q 177 301 172 275 q 192 354 182 326 q 217 410 203 382 q 244 460 231 438 q 291 506 258 482 q 360 559 324 531 q 430 621 397 588 q 476 693 463 654 q 499 803 500 760 q 486 872 499 846 q 453 908 474 897 q 418 919 433 918 q 340 901 375 922 q 272 851 304 879 q 206 797 239 824 q 133 764 172 771 q 72 772 94 757 q 44 811 50 786 q 47 865 38 836 q 76 913 56 893 q 192 991 135 964 q 293 1029 250 1018 q 351 1040 318 1036 q 419 1042 385 1043 q 488 1034 454 1042 q 549 1010 521 1026 m 139 113 q 169 116 151 117 q 205 110 188 115 q 238 97 222 106 q 264 78 254 89 q 278 43 283 57 q 257 14 272 29 q 219 -7 242 -1 q 178 -6 196 -12 q 158 18 161 3 q 150 47 154 33 q 142 64 147 54 q 134 83 138 74 q 131 101 131 93 q 139 113 131 110 z "},"!":{"ha":563,"x_min":13,"x_max":565,"o":"m 449 1040 q 480 1036 458 1043 q 521 1016 501 1029 q 553 986 540 1003 q 558 953 565 969 q 535 915 551 936 q 490 853 518 893 q 420 747 461 813 q 325 575 379 681 q 248 425 276 482 q 205 335 219 368 q 186 286 190 301 q 181 263 182 271 q 165 232 179 247 q 129 221 151 217 q 108 227 118 222 q 94 247 99 232 q 94 290 90 261 q 114 371 97 319 q 189 575 146 475 q 274 758 232 675 q 317 846 294 799 q 363 934 340 893 q 408 1005 386 975 q 449 1040 431 1035 m 21 94 q 51 98 33 99 q 85 92 68 97 q 119 79 103 88 q 144 60 135 71 q 158 25 164 39 q 138 -4 153 11 q 99 -25 122 -19 q 60 -24 76 -31 q 38 0 42 -15 q 31 29 35 15 q 24 46 28 36 q 16 65 19 56 q 13 83 13 75 q 21 94 13 92 z "},".":{"ha":276,"x_min":54,"x_max":206,"o":"m 63 94 q 92 98 75 99 q 127 92 110 97 q 160 79 144 88 q 186 60 176 71 q 200 25 206 39 q 179 -4 194 11 q 141 -25 164 -19 q 101 -24 118 -31 q 80 0 83 -15 q 72 29 76 15 q 65 46 69 36 q 58 65 61 56 q 54 83 54 75 q 63 94 54 92 z "},",":{"ha":200,"x_min":-18,"x_max":193,"o":"m 178 64 q 192 32 193 46 q 176 -40 193 10 q 148 -93 168 -68 q 106 -137 128 -118 q 63 -167 83 -156 q 35 -179 43 -178 q 7 -176 19 -182 q -12 -160 -6 -169 q -17 -138 -18 -150 q -1 -115 -15 -126 q 7 -115 1 -114 q 19 -114 13 -115 q 35 -106 26 -112 q 54 -85 43 -100 q 69 -35 69 -64 q 65 21 69 -6 q 64 27 64 24 q 63 33 64 31 q 55 62 58 47 q 64 88 51 76 q 92 100 76 99 q 124 97 108 101 q 153 84 139 93 q 178 64 168 75 z "},";":{"ha":325,"x_min":22,"x_max":315,"o":"m 172 411 q 202 415 185 415 q 237 409 219 414 q 270 396 254 404 q 296 376 286 388 q 310 342 315 356 q 289 313 304 328 q 251 292 274 297 q 211 293 228 286 q 190 317 193 301 q 182 346 186 332 q 175 363 179 353 q 167 382 171 372 q 164 400 164 392 q 172 411 164 408 m 218 64 q 232 32 233 46 q 217 -40 233 10 q 188 -93 208 -68 q 146 -137 168 -118 q 103 -167 124 -156 q 75 -179 83 -178 q 47 -176 60 -182 q 28 -160 35 -169 q 24 -138 22 -150 q 39 -115 25 -126 q 47 -115 42 -114 q 60 -114 53 -115 q 75 -106 67 -112 q 94 -85 83 -100 q 110 -35 110 -64 q 106 21 110 -6 q 104 27 104 24 q 103 33 104 31 q 95 62 99 47 q 104 88 92 76 q 133 100 117 99 q 164 97 149 101 q 194 84 179 93 q 218 64 208 75 z "},":":{"ha":333,"x_min":54,"x_max":288,"o":"m 144 414 q 174 417 157 418 q 209 412 192 417 q 242 399 226 407 q 268 379 258 390 q 282 344 288 358 q 261 315 276 331 q 223 294 246 300 q 183 296 200 289 q 162 319 165 304 q 154 349 158 335 q 147 365 151 356 q 140 385 143 375 q 136 403 136 394 q 144 414 136 411 m 63 94 q 92 98 75 99 q 127 92 110 97 q 160 79 144 88 q 186 60 176 71 q 200 25 206 39 q 179 -4 194 11 q 141 -25 164 -19 q 101 -24 118 -31 q 80 0 83 -15 q 72 29 76 15 q 65 46 69 36 q 58 65 61 56 q 54 83 54 75 q 63 94 54 92 z "},"+":{"ha":694,"x_min":83,"x_max":632,"o":"m 614 375 q 625 356 618 365 q 629 335 632 346 q 608 315 626 325 q 539 296 589 306 q 452 283 492 285 q 375 281 413 282 q 339 167 351 214 q 326 108 326 119 q 317 80 328 93 q 283 69 306 67 q 263 75 272 71 q 248 93 254 79 q 242 134 242 107 q 250 210 242 161 l 263 275 q 159 273 200 272 q 96 293 118 274 q 86 318 89 300 q 86 356 83 336 q 97 390 89 375 q 122 407 106 406 q 197 400 154 410 q 292 390 240 390 l 306 431 q 349 557 332 508 q 399 617 365 606 q 425 614 407 619 q 460 597 443 608 q 489 571 478 586 q 496 542 500 556 q 463 478 486 511 q 419 400 439 444 l 417 392 q 511 393 476 392 q 556 399 546 394 q 588 400 569 406 q 614 375 607 394 z "},"-":{"ha":656,"x_min":67,"x_max":615,"o":"m 79 293 q 69 318 72 300 q 69 356 67 336 q 81 390 72 375 q 106 407 89 406 q 181 400 138 410 q 275 390 224 390 q 459 392 393 390 q 539 399 525 393 q 572 400 553 406 q 597 375 590 394 q 608 356 601 365 q 613 335 615 346 q 591 315 610 325 q 522 296 572 306 q 406 281 457 282 q 301 279 354 281 q 160 272 215 275 q 79 293 106 268 z "},"#":{"ha":694,"x_min":-1,"x_max":657,"o":"m 564 429 q 506 421 536 422 q 485 369 494 396 q 464 314 475 342 q 528 321 519 317 q 560 322 542 326 q 586 296 579 317 q 597 276 590 286 q 601 256 604 267 q 580 236 599 246 q 511 217 561 226 q 470 210 492 213 q 425 206 449 208 q 394 115 406 153 q 383 71 383 78 q 373 42 385 56 q 340 32 361 29 q 319 38 329 33 q 304 56 310 42 q 298 97 299 69 q 306 172 297 124 q 309 186 308 179 q 313 201 310 193 q 269 200 289 200 q 232 199 250 200 q 201 198 217 199 q 172 196 186 197 q 144 113 154 147 q 133 71 133 78 q 123 42 135 56 q 90 32 111 29 q 69 38 79 33 q 54 56 60 42 q 49 97 49 69 q 57 172 49 124 q 61 193 57 182 q 11 214 31 197 q 1 238 4 219 q 1 275 -1 256 q 11 310 3 294 q 36 326 19 325 q 65 326 50 328 q 97 322 81 325 q 112 365 104 343 q 126 406 119 386 q 64 426 82 408 q 54 450 57 432 q 53 488 51 468 q 64 522 56 507 q 89 539 72 538 q 126 538 107 540 q 169 532 146 535 q 204 626 189 590 q 247 671 219 661 q 274 667 256 674 q 309 650 292 661 q 338 624 326 639 q 344 594 349 610 q 328 560 339 578 q 306 524 318 543 l 417 524 q 461 643 439 590 q 511 706 483 696 q 538 702 519 708 q 573 685 556 696 q 601 659 590 674 q 608 629 613 644 q 588 585 603 611 q 557 529 574 558 q 581 533 579 532 q 613 534 594 539 q 639 508 632 529 q 650 489 643 499 q 654 469 657 479 q 633 449 651 458 q 564 429 614 439 m 344 311 q 362 365 353 339 q 379 414 371 390 q 328 413 353 414 q 285 411 304 413 q 268 410 276 411 q 251 410 260 410 q 233 361 242 386 q 214 311 224 336 l 344 311 z "},"\"":{"ha":683,"x_min":125,"x_max":543,"o":"m 333 849 q 331 818 335 836 q 319 776 326 800 q 290 724 311 749 q 247 680 269 699 q 206 650 225 661 q 178 638 186 639 q 150 641 163 635 q 131 657 138 647 q 126 678 125 667 q 142 701 128 690 q 149 702 144 703 q 162 703 154 701 q 178 710 169 704 q 197 732 186 717 q 211 782 211 753 q 207 838 211 811 q 206 844 206 840 q 204 850 206 847 q 197 878 200 864 q 207 904 193 893 q 235 917 219 915 q 266 914 250 918 q 296 901 282 910 q 319 881 310 892 q 333 849 335 863 m 528 881 q 542 849 543 863 q 539 818 543 836 q 528 776 535 800 q 499 724 519 749 q 456 680 478 699 q 414 650 433 661 q 386 638 394 639 q 358 641 371 635 q 340 657 346 647 q 335 678 333 667 q 350 701 336 690 q 358 702 353 703 q 370 703 363 701 q 386 710 378 704 q 406 732 394 717 q 419 782 419 753 q 415 838 419 811 q 414 844 414 840 q 413 850 414 847 q 405 878 408 864 q 415 904 401 893 q 443 917 428 915 q 474 914 458 918 q 504 901 490 910 q 528 881 518 892 z "},"$":{"ha":729,"x_min":47,"x_max":703,"o":"m 639 808 q 678 767 664 790 q 698 722 693 744 q 697 682 703 700 q 678 657 692 664 q 621 660 657 647 l 568 686 q 508 583 540 638 q 443 468 475 528 l 499 436 q 545 389 525 419 q 576 319 565 358 q 585 238 586 281 q 566 157 583 196 q 514 86 549 118 q 422 38 479 54 q 236 10 308 4 q 229 -19 231 -8 q 226 -33 228 -29 q 221 -59 226 -47 q 196 -68 215 -71 q 180 -61 189 -67 q 164 -43 171 -56 q 153 -12 157 -31 q 151 32 149 6 q 96 80 117 50 q 61 150 75 110 q 54 235 47 196 q 75 299 61 275 q 103 328 89 324 q 118 310 118 333 q 121 272 118 293 q 131 227 124 250 q 150 182 138 204 q 183 144 163 160 q 236 267 204 196 q 300 411 268 338 q 242 464 268 436 q 200 522 217 492 q 178 584 183 551 q 185 653 174 617 q 233 741 200 703 q 309 804 265 779 q 406 840 353 829 q 514 847 458 851 q 542 888 529 871 q 568 908 556 904 q 592 904 575 910 q 624 888 608 899 q 650 865 640 878 q 654 839 660 851 q 639 808 651 831 m 382 353 l 349 286 q 274 115 299 182 q 313 119 292 115 q 401 153 365 128 q 451 210 438 178 q 452 279 465 243 q 393 346 439 315 l 382 353 m 451 728 q 374 727 411 735 q 306 688 336 719 q 278 642 283 664 q 282 599 274 619 q 309 559 290 578 q 353 524 328 540 q 397 621 376 578 q 428 683 418 664 l 451 728 z "},"/":{"ha":622,"x_min":-56,"x_max":682,"o":"m 575 1108 q 605 1104 585 1111 q 643 1085 625 1097 q 672 1056 661 1072 q 674 1024 682 1039 q 644 978 668 1013 q 585 892 621 944 q 504 775 549 840 q 413 638 460 710 q 317 492 365 567 q 228 346 269 417 q 128 167 165 239 q 70 51 90 96 q 44 -17 50 6 q 36 -47 38 -39 q 24 -77 32 -62 q -6 -89 15 -92 q -29 -76 -17 -87 q -49 -43 -42 -65 q -52 14 -56 -21 q -28 99 -49 49 q 17 192 -14 132 q 87 324 47 251 q 170 476 126 397 q 254 626 214 556 q 326 751 294 696 q 375 833 358 807 q 427 919 400 874 q 481 1006 454 965 q 532 1074 508 1046 q 575 1108 556 1103 z "},"=":{"ha":656,"x_min":67,"x_max":668,"o":"m 79 197 q 69 222 72 204 q 69 260 67 240 q 81 294 72 279 q 106 311 89 310 q 181 304 138 314 q 275 294 224 294 q 459 296 393 294 q 539 303 525 297 q 572 304 553 310 q 597 279 590 299 q 608 260 601 269 q 613 240 615 250 q 591 219 610 229 q 522 200 572 210 q 406 185 457 186 q 301 183 354 185 q 160 176 215 179 q 79 197 106 172 m 132 439 q 122 464 125 446 q 122 501 119 482 q 133 536 125 521 q 158 553 142 551 q 233 546 190 556 q 328 536 276 536 q 512 538 446 536 q 592 544 578 539 q 624 546 606 551 q 650 521 643 540 q 661 501 654 511 q 665 481 668 492 q 644 461 663 471 q 575 442 625 451 q 458 427 510 428 q 354 425 407 426 q 213 417 268 421 q 132 439 158 414 z "},"'":{"ha":461,"x_min":224,"x_max":433,"o":"m 432 835 q 429 804 433 822 q 418 763 425 786 q 389 710 410 735 q 346 666 368 685 q 304 636 324 647 q 276 624 285 625 q 249 627 261 621 q 230 643 236 633 q 225 665 224 653 q 240 688 226 676 q 248 688 243 689 q 260 689 253 688 q 276 697 268 690 q 296 718 285 703 q 310 768 310 739 q 306 824 310 797 q 304 830 304 826 q 303 836 304 833 q 295 865 299 850 q 306 890 292 879 q 333 903 318 901 q 365 900 349 904 q 394 887 381 896 q 418 867 408 878 q 432 835 433 849 z "},"@":{"ha":1079,"x_min":92,"x_max":1035,"o":"m 710 213 q 673 208 694 207 q 634 218 651 208 q 608 246 617 228 q 611 292 600 264 q 534 256 574 269 q 471 233 494 243 q 439 233 460 229 q 398 251 418 238 q 365 289 378 265 q 358 347 353 313 q 393 415 364 382 q 458 476 422 449 q 527 523 493 504 q 578 546 561 542 q 615 552 594 550 q 658 552 636 554 q 699 542 679 550 q 733 518 719 533 q 733 500 740 511 q 713 492 725 489 q 674 476 706 492 q 609 437 643 460 q 547 389 575 414 q 519 349 519 364 q 540 357 522 349 q 583 376 558 365 q 638 400 608 388 q 692 423 667 413 q 734 440 717 433 q 754 444 751 446 q 774 415 769 433 q 767 382 778 396 q 774 377 775 382 q 766 365 772 372 q 753 349 760 357 q 742 335 746 340 q 746 338 743 335 q 760 335 756 343 q 812 365 781 344 q 871 416 843 386 q 917 483 899 446 q 932 564 935 521 q 899 647 929 607 q 820 713 869 686 q 706 747 771 739 q 565 736 640 754 q 422 680 488 717 q 310 591 357 643 q 236 472 263 539 q 213 325 210 406 q 242 203 214 260 q 319 106 269 146 q 440 49 369 67 q 596 47 510 32 q 700 76 656 57 q 775 115 744 96 q 822 149 806 135 q 846 167 839 164 q 851 154 851 168 q 843 119 851 140 q 819 72 835 97 q 779 28 803 47 q 723 -10 756 8 q 649 -40 690 -28 q 559 -55 608 -51 q 451 -50 510 -58 q 330 -16 390 -40 q 221 52 269 8 q 139 160 172 96 q 99 311 106 224 q 119 467 92 385 q 205 623 147 550 q 349 751 263 696 q 549 828 436 807 q 769 835 681 853 q 912 778 857 818 q 993 687 967 739 q 1026 589 1019 635 q 1008 469 1035 532 q 933 351 981 406 q 826 258 886 296 q 710 213 767 219 z "},"|":{"ha":572,"x_min":140,"x_max":468,"o":"m 331 1113 q 372 1119 347 1121 q 419 1107 397 1117 q 455 1080 442 1097 q 463 1040 468 1063 q 450 994 460 1029 q 426 906 440 958 q 394 785 411 853 q 358 644 376 718 q 324 494 340 571 q 294 344 307 417 q 263 163 275 236 q 244 43 251 89 q 236 -26 238 -3 q 236 -56 235 -49 q 230 -87 239 -71 q 199 -101 221 -103 q 158 -60 175 -100 q 142 82 140 -19 q 148 176 142 115 q 163 311 154 238 q 184 465 172 385 q 208 617 196 544 q 228 745 219 689 q 243 829 238 801 q 260 917 251 871 q 278 1005 268 964 q 301 1076 289 1046 q 331 1113 314 1106 z "},"":{"ha":460,"x_min":-60,"x_max":640,"o":"m 575 1108 q 598 1104 585 1111 q 622 1085 611 1097 q 636 1056 632 1072 q 632 1024 640 1039 q 603 978 626 1013 q 547 892 581 944 q 469 775 513 840 q 381 638 426 710 q 288 492 335 567 q 200 346 242 417 q 102 167 138 239 q 49 51 67 96 q 28 -17 32 6 q 22 -47 24 -39 q 10 -77 18 -62 q -19 -89 1 -92 q -41 -76 -31 -87 q -56 -43 -51 -65 q -54 14 -60 -21 q -28 99 -49 49 q 17 192 -14 132 q 87 324 47 251 q 170 476 126 397 q 254 626 214 556 q 326 751 294 696 q 375 833 358 807 q 427 919 400 874 q 481 1006 454 965 q 532 1074 508 1046 q 575 1108 556 1103 z "},"\\":{"ha":726,"x_min":-58,"x_max":724,"o":"m -54 1047 q -37 1071 -53 1057 q -1 1094 -21 1085 q 38 1106 18 1104 q 67 1092 57 1107 q 91 1044 72 1082 q 138 951 110 1007 q 202 824 167 894 q 277 676 238 753 q 359 522 317 600 q 443 374 401 444 q 550 199 506 267 q 625 92 594 132 q 672 36 656 53 q 694 15 688 19 q 715 -10 706 4 q 711 -42 724 -25 q 689 -56 704 -50 q 651 -57 674 -62 q 599 -32 628 -51 q 536 31 569 -12 q 476 115 514 58 q 394 240 439 171 q 301 386 349 310 q 212 532 254 463 q 137 656 169 601 q 89 739 104 711 q 39 826 65 781 q -10 915 13 872 q -45 992 -32 957 q -54 1047 -58 1028 z "},"_":{"ha":750,"x_min":63,"x_max":708,"o":"m 71 -37 q 103 -18 83 -24 q 150 -10 122 -12 q 213 -8 178 -8 q 290 -7 247 -8 q 358 -3 317 -6 q 445 2 400 0 q 535 4 490 4 q 613 0 579 4 q 682 -15 663 -7 q 705 -33 701 -24 q 702 -53 708 -43 q 693 -74 696 -64 q 669 -101 686 -94 q 636 -101 651 -107 q 594 -101 629 -100 q 506 -104 558 -101 q 393 -111 454 -107 q 272 -119 332 -115 q 180 -135 222 -122 q 104 -147 138 -149 q 78 -133 88 -147 q 66 -99 69 -118 q 64 -62 63 -81 q 71 -37 65 -44 z "},"&":{"ha":731,"x_min":64,"x_max":699,"o":"m 694 796 q 697 756 699 772 q 684 729 694 739 q 652 717 674 719 q 593 721 631 714 q 554 742 567 725 q 531 775 542 758 q 504 803 519 792 q 457 808 489 814 q 399 783 424 801 q 360 742 375 765 q 340 697 346 719 q 340 663 335 675 q 386 596 358 622 q 456 563 414 569 q 516 540 496 556 q 532 508 536 525 q 515 481 529 496 q 482 456 501 465 q 440 446 463 447 q 396 458 417 444 q 303 480 351 486 q 229 433 256 474 q 208 386 217 413 q 204 335 200 360 q 227 289 208 310 q 286 258 246 268 q 352 249 326 249 q 397 253 378 249 q 432 264 415 257 q 471 275 449 271 q 509 282 493 279 q 538 282 525 285 q 559 268 550 279 q 578 233 568 257 q 562 183 586 211 q 494 132 538 156 q 397 95 451 108 q 292 90 343 82 q 274 5 276 32 q 271 -31 271 -22 q 265 -58 271 -44 q 240 -71 260 -72 q 217 -62 231 -71 q 194 -34 204 -53 q 181 17 185 -15 q 188 94 178 49 q 190 109 189 101 q 194 125 192 117 q 95 225 126 165 q 71 346 64 285 q 102 444 78 404 q 156 510 126 485 q 215 545 185 535 q 265 554 246 556 q 239 601 249 572 q 226 659 229 629 q 225 717 222 689 q 239 763 228 744 q 335 858 274 825 q 465 907 396 890 q 506 999 485 958 q 547 1046 528 1039 q 574 1045 556 1050 q 612 1031 593 1040 q 643 1007 631 1021 q 651 979 656 993 q 638 947 649 971 q 610 886 626 922 q 668 844 644 869 q 694 796 692 819 z "},"(":{"ha":399,"x_min":24,"x_max":650,"o":"m 594 1272 q 616 1253 603 1269 q 638 1215 629 1236 q 649 1174 647 1194 q 638 1143 650 1153 q 608 1119 632 1136 q 551 1074 585 1103 q 474 1005 517 1046 q 390 908 432 964 q 306 788 347 854 q 232 649 265 722 q 175 499 199 576 q 142 347 151 422 q 128 210 131 274 q 127 94 125 147 q 135 -2 129 40 q 149 -78 142 -44 q 176 -175 164 -144 q 194 -217 189 -206 q 203 -239 199 -228 q 210 -260 208 -250 q 208 -277 211 -269 q 194 -289 204 -285 q 172 -285 185 -292 q 135 -251 160 -278 q 92 -177 111 -225 q 58 -51 74 -129 q 37 49 50 -14 q 26 189 24 113 q 38 349 28 267 q 68 514 49 432 q 108 667 88 594 q 157 800 128 740 q 213 901 186 860 q 253 964 239 943 q 290 1013 268 986 q 338 1067 313 1039 q 392 1122 364 1094 q 446 1172 419 1149 q 538 1248 499 1221 q 594 1272 576 1275 z "},")":{"ha":496,"x_min":-247,"x_max":389,"o":"m 308 1218 q 329 1178 318 1207 q 350 1110 340 1150 q 368 1023 360 1069 q 381 931 376 976 q 388 839 386 885 q 388 749 389 793 q 385 667 388 706 q 378 597 382 628 q 367 513 375 568 q 343 392 360 458 q 300 252 326 325 q 236 111 274 179 q 159 -15 200 42 q 78 -114 118 -71 q 4 -185 39 -157 q -53 -229 -31 -214 q -135 -274 -101 -261 q -192 -287 -169 -287 q -227 -280 -215 -287 q -240 -262 -239 -272 q -234 -232 -247 -242 q -206 -217 -221 -222 q -178 -204 -199 -214 q -117 -165 -157 -194 q -72 -128 -97 -150 q -18 -76 -47 -107 q 43 -2 11 -44 q 110 99 75 40 q 174 229 144 157 q 225 383 204 301 q 258 552 247 467 q 269 721 268 638 q 261 880 269 804 q 240 1017 253 956 q 217 1115 229 1076 q 204 1165 206 1154 q 210 1205 199 1189 q 241 1227 222 1221 q 279 1231 260 1233 q 308 1218 299 1229 z "},"*":{"ha":472,"x_min":21,"x_max":458,"o":"m 435 951 q 447 932 440 947 q 456 899 454 917 q 456 867 458 882 q 440 849 453 853 q 421 845 431 846 q 396 843 411 844 q 357 840 381 842 q 296 831 333 838 q 349 775 324 800 q 385 747 375 750 q 403 728 396 742 q 403 700 410 715 q 393 688 399 693 q 376 683 388 682 q 346 692 365 683 q 294 725 326 701 q 267 745 279 736 q 244 761 256 754 q 231 707 236 731 q 226 675 225 683 q 219 651 228 664 q 194 638 211 639 q 179 639 186 638 q 167 651 172 640 q 160 683 161 661 q 163 743 158 704 q 165 777 164 763 q 169 804 167 792 q 110 788 136 796 q 78 775 85 781 q 53 769 68 768 q 29 783 39 769 q 23 798 25 790 q 27 815 21 806 q 51 837 33 825 q 104 865 68 849 q 124 874 118 871 q 90 906 103 893 q 69 928 76 918 q 58 947 61 938 q 54 968 54 956 q 65 988 54 975 q 88 1012 75 1001 q 116 1027 101 1022 q 140 1024 131 1032 q 152 1012 147 1018 q 163 997 157 1006 q 178 974 169 988 q 200 943 186 961 q 201 950 200 947 q 215 1003 210 982 q 224 1037 219 1024 q 234 1058 228 1050 q 253 1072 240 1065 q 275 1074 258 1076 q 308 1066 292 1072 q 335 1049 324 1060 q 344 1026 347 1039 q 339 1010 342 1018 q 331 993 336 1003 q 319 969 326 983 q 304 935 313 956 q 356 949 336 943 q 390 958 376 956 q 413 960 403 961 q 435 951 422 958 z "},"[":{"ha":311,"x_min":-243,"x_max":774,"o":"m 772 1144 q 771 1119 774 1133 q 753 1091 768 1104 q 709 1068 739 1078 q 628 1057 679 1058 q 570 1059 600 1056 q 496 1068 540 1063 q 445 983 476 1033 q 377 869 414 932 q 299 738 340 807 q 219 597 258 668 q 142 458 179 526 q 76 331 106 390 q -26 99 11 196 q -83 -56 -64 3 q 30 -69 -18 -65 q 89 -71 78 -74 q 117 -76 104 -68 q 133 -106 129 -83 q 132 -131 135 -117 q 117 -157 129 -144 q 85 -177 106 -169 q 32 -183 65 -185 q 1 -181 15 -183 q -28 -177 -12 -179 q -65 -172 -44 -175 q -111 -165 -85 -169 q -143 -181 -119 -182 q -176 -158 -161 -178 l -181 -158 q -197 -156 -192 -156 q -236 -134 -229 -151 q -243 -101 -243 -117 q -233 -80 -243 -86 q -222 -62 -224 -74 q -196 -40 -219 -49 q -190 -17 -193 -29 q -185 7 -187 -6 q -148 106 -175 40 q -85 253 -121 172 q -10 423 -50 335 q 66 590 29 511 q 131 731 103 669 q 174 818 160 792 q 205 878 186 843 q 245 953 224 914 q 290 1033 267 993 q 335 1107 313 1072 q 330 1122 331 1114 q 329 1136 329 1129 q 339 1158 329 1151 q 350 1176 349 1165 q 383 1199 353 1194 q 401 1194 394 1196 q 418 1206 411 1204 q 446 1201 426 1208 q 485 1182 465 1194 q 562 1174 522 1178 q 635 1169 601 1171 q 692 1166 668 1167 q 721 1167 715 1165 q 752 1168 736 1169 q 772 1144 768 1167 z "},"]":{"ha":814,"x_min":-168,"x_max":806,"o":"m 692 1194 q 722 1190 701 1197 q 762 1169 742 1182 q 794 1140 782 1157 q 799 1108 806 1124 q 769 1055 794 1097 q 705 949 743 1013 q 619 805 667 885 q 524 641 572 725 q 431 474 476 557 q 351 319 386 390 q 242 75 281 176 q 186 -85 204 -26 q 208 -117 204 -92 q 206 -142 210 -128 q 192 -168 203 -156 q 160 -188 181 -181 q 107 -194 139 -196 q 68 -191 86 -193 q 27 -185 50 -189 q -28 -178 4 -182 q -107 -169 -60 -174 q -115 -167 -111 -168 q -122 -167 -118 -167 q -161 -145 -154 -162 q -168 -112 -168 -128 q -158 -91 -168 -97 q -147 -74 -149 -85 q -114 -50 -144 -56 q -14 -67 -64 -60 q 76 -78 36 -74 q 90 -4 79 -43 q 127 95 100 29 q 190 242 154 161 q 265 412 225 324 q 341 579 304 500 q 406 719 378 658 q 449 807 435 781 q 474 856 458 828 q 506 917 489 885 q 542 982 524 949 q 581 1047 561 1015 q 505 1056 549 1050 q 394 1069 461 1063 q 387 1071 390 1071 q 379 1072 383 1071 q 340 1092 347 1075 q 333 1125 333 1110 q 343 1147 333 1140 q 354 1165 353 1154 q 388 1188 357 1183 q 444 1177 411 1182 q 514 1168 478 1172 q 587 1161 550 1164 q 653 1157 624 1158 q 692 1194 678 1190 z "},"{":{"ha":446,"x_min":-7,"x_max":789,"o":"m 728 1246 q 763 1225 749 1242 q 783 1188 776 1208 q 787 1147 789 1167 q 772 1117 785 1126 q 749 1113 767 1110 q 701 1105 731 1115 q 630 1060 671 1094 q 538 949 589 1026 q 504 893 522 925 q 467 825 486 861 q 430 751 449 789 q 394 682 411 714 q 348 600 375 632 q 292 547 321 568 q 239 510 264 525 q 199 481 214 496 q 248 414 228 461 q 264 313 268 367 q 268 275 265 292 q 261 51 253 144 q 282 -104 269 -43 q 310 -201 297 -171 q 328 -243 322 -232 q 344 -286 339 -264 q 329 -315 349 -308 q 299 -311 318 -318 q 254 -278 279 -304 q 206 -203 231 -251 q 165 -78 181 -156 q 144 23 157 -40 q 132 163 131 86 q 135 215 133 189 q 139 269 136 242 q 138 272 139 271 q 138 274 138 272 q 125 319 136 300 q 99 355 114 339 q 66 385 83 371 q 33 414 49 399 q -1 477 4 443 q 24 561 -7 511 q 66 597 38 585 q 126 621 94 610 q 189 647 158 632 q 239 689 219 661 q 258 733 249 713 q 276 774 267 754 q 332 882 306 833 q 372 951 358 931 q 407 1006 388 974 q 449 1072 426 1038 q 497 1138 472 1106 q 549 1193 522 1169 q 603 1228 575 1217 q 656 1244 631 1240 q 700 1248 681 1249 q 728 1246 719 1247 z "},"":{"ha":683,"x_min":125,"x_max":543,"o":"m 333 69 q 331 39 335 57 q 319 -3 326 21 q 290 -56 311 -31 q 247 -99 269 -81 q 206 -129 225 -118 q 178 -142 186 -140 q 150 -138 163 -144 q 131 -122 138 -132 q 126 -101 125 -112 q 142 -78 128 -89 q 149 -77 144 -76 q 162 -76 154 -78 q 178 -69 169 -75 q 197 -47 186 -62 q 211 3 211 -26 q 207 58 211 32 q 206 65 206 61 q 204 71 206 68 q 197 99 200 85 q 207 125 193 114 q 235 138 219 136 q 266 135 250 139 q 296 122 282 131 q 319 101 310 113 q 333 69 335 83 m 528 101 q 542 69 543 83 q 539 39 543 57 q 528 -3 535 21 q 499 -56 519 -31 q 456 -99 478 -81 q 414 -129 433 -118 q 386 -142 394 -140 q 358 -138 371 -144 q 340 -122 346 -132 q 335 -101 333 -112 q 350 -78 336 -89 q 358 -77 353 -76 q 370 -76 363 -78 q 386 -69 378 -75 q 406 -47 394 -62 q 419 3 419 -26 q 415 58 419 32 q 414 65 414 61 q 413 71 414 68 q 405 99 408 85 q 415 125 401 114 q 443 138 428 136 q 474 135 458 139 q 504 122 490 131 q 528 101 518 113 z "},"":{"ha":829,"x_min":54,"x_max":758,"o":"m 63 94 q 92 98 75 99 q 127 92 110 97 q 160 79 144 88 q 186 60 176 71 q 200 25 206 39 q 179 -4 194 11 q 141 -25 164 -19 q 101 -24 118 -31 q 80 0 83 -15 q 72 29 76 15 q 65 46 69 36 q 58 65 61 56 q 54 83 54 75 q 63 94 54 92 m 339 94 q 369 98 351 99 q 403 92 386 97 q 437 79 421 88 q 463 60 453 71 q 476 25 482 39 q 456 -4 471 11 q 417 -25 440 -19 q 378 -24 394 -31 q 356 0 360 -15 q 349 29 353 15 q 342 46 346 36 q 334 65 338 56 q 331 83 331 75 q 339 94 331 92 m 615 94 q 645 98 628 99 q 680 92 663 97 q 713 79 697 88 q 739 60 729 71 q 753 25 758 39 q 732 -4 747 11 q 694 -25 717 -19 q 654 -24 671 -31 q 633 0 636 -15 q 625 29 629 15 q 618 46 622 36 q 610 65 614 56 q 607 83 607 75 q 615 94 607 92 z "},"":{"ha":683,"x_min":224,"x_max":433,"o":"m 432 56 q 429 25 433 43 q 418 -17 425 7 q 389 -69 410 -44 q 346 -113 368 -94 q 304 -143 324 -132 q 276 -156 285 -154 q 249 -152 261 -158 q 230 -136 236 -146 q 225 -115 224 -126 q 240 -92 226 -103 q 248 -91 243 -90 q 260 -90 253 -92 q 276 -83 268 -89 q 296 -61 285 -76 q 310 -11 310 -40 q 306 44 310 18 q 304 51 304 47 q 303 57 304 54 q 295 85 299 71 q 306 111 292 100 q 333 124 318 122 q 365 121 349 125 q 394 108 381 117 q 418 88 408 99 q 432 56 433 69 z "},"":{"ha":335,"x_min":97,"x_max":307,"o":"m 99 692 q 101 722 97 704 q 113 764 106 740 q 142 817 121 792 q 185 860 163 842 q 226 890 207 879 q 254 903 246 901 q 281 899 268 904 q 301 883 294 893 q 306 862 307 874 q 290 839 304 850 q 283 838 288 836 q 270 838 278 839 q 253 830 263 836 q 235 808 244 824 q 221 758 221 788 q 225 703 221 729 l 228 690 q 235 662 232 676 q 225 636 239 647 q 197 624 213 625 q 166 626 182 622 q 136 640 150 631 q 113 660 122 649 q 99 692 97 678 z "},"":{"ha":335,"x_min":97,"x_max":307,"o":"m 306 835 q 303 804 307 822 q 292 763 299 786 q 263 710 283 735 q 219 666 242 685 q 178 636 197 647 q 150 624 158 625 q 122 627 135 621 q 103 643 110 633 q 99 665 97 653 q 114 688 100 676 q 122 688 117 689 q 134 689 126 688 q 150 697 142 690 q 169 718 158 703 q 183 768 183 739 q 179 824 183 797 q 178 830 178 826 q 176 836 178 833 q 169 865 172 850 q 179 890 165 879 q 207 903 192 901 q 238 900 222 904 q 268 887 254 896 q 292 867 282 878 q 306 835 307 849 z "},"":{"ha":543,"x_min":97,"x_max":515,"o":"m 99 692 q 101 722 97 704 q 113 764 106 740 q 142 817 121 792 q 185 860 163 842 q 226 890 207 879 q 254 903 246 901 q 281 899 268 904 q 301 883 294 893 q 306 862 307 874 q 290 839 304 850 q 283 838 288 836 q 270 838 278 839 q 253 830 263 836 q 235 808 244 824 q 221 758 221 788 q 225 703 221 729 l 228 690 q 235 662 232 676 q 225 636 239 647 q 197 624 213 625 q 166 626 182 622 q 136 640 150 631 q 113 660 122 649 q 99 692 97 678 m 307 692 q 310 722 306 704 q 321 764 314 740 q 350 817 329 792 q 393 860 371 842 q 435 890 415 879 q 463 903 454 901 q 490 899 476 904 q 509 883 503 893 q 514 862 515 874 q 499 839 513 850 q 491 838 496 836 q 478 838 486 839 q 462 830 471 836 q 443 808 453 824 q 429 758 429 788 q 433 703 429 729 l 436 690 q 444 662 440 676 q 433 636 447 647 q 406 624 421 625 q 374 626 390 622 q 344 640 358 631 q 321 660 331 649 q 307 692 306 678 z "},"":{"ha":543,"x_min":97,"x_max":515,"o":"m 306 821 q 303 790 307 808 q 292 749 299 772 q 263 696 283 721 q 219 652 242 671 q 178 622 197 633 q 150 610 158 611 q 122 613 135 607 q 103 629 110 619 q 99 651 97 639 q 114 674 100 663 q 122 674 117 675 q 134 675 126 674 q 150 683 142 676 q 169 704 158 689 q 183 754 183 725 q 179 810 183 783 q 178 816 178 813 q 176 822 178 819 q 169 851 172 836 q 179 876 165 865 q 207 889 192 888 q 238 886 222 890 q 268 873 254 882 q 292 853 282 864 q 306 821 307 835 m 500 853 q 514 821 515 835 q 511 790 515 808 q 500 749 507 772 q 471 696 492 721 q 428 652 450 671 q 386 622 406 633 q 358 610 367 611 q 331 613 343 607 q 312 629 318 619 q 307 651 306 639 q 322 674 308 663 q 330 674 325 675 q 342 675 335 674 q 358 683 350 676 q 378 704 367 689 q 392 754 392 725 q 388 810 392 783 q 386 816 386 813 q 385 822 386 819 q 377 851 381 836 q 388 876 374 865 q 415 889 400 888 q 447 886 431 890 q 476 873 463 882 q 500 853 490 864 z "},"":{"ha":679,"x_min":67,"x_max":615,"o":"m 79 293 q 69 318 72 300 q 69 356 67 336 q 81 390 72 375 q 106 407 89 406 q 181 400 138 410 q 275 390 224 390 q 459 392 393 390 q 539 399 525 393 q 572 400 553 406 q 597 375 590 394 q 608 356 601 365 q 613 335 615 346 q 591 315 610 325 q 522 296 572 306 q 406 281 457 282 q 301 279 354 281 q 160 272 215 275 q 79 293 106 268 z "},"":{"ha":856,"x_min":67,"x_max":782,"o":"m 79 293 q 69 318 72 300 q 69 356 67 336 q 81 390 72 375 q 106 407 89 406 q 154 406 122 408 q 223 399 186 403 q 297 393 260 396 q 358 390 333 390 q 476 390 417 390 q 584 392 535 390 q 666 394 633 393 q 706 399 699 396 q 738 400 719 406 q 764 375 757 394 q 775 356 768 365 q 779 335 782 346 q 758 315 776 325 q 689 296 739 306 q 614 286 656 289 q 531 282 572 283 q 450 281 489 281 q 385 279 411 281 q 294 274 342 276 q 202 271 246 271 q 125 276 158 271 q 79 293 92 281 z "},"}":{"ha":1157,"x_min":-282,"x_max":561,"o":"m 553 563 q 541 478 561 513 q 478 415 521 444 q 433 386 457 400 q 388 356 410 372 q 346 321 365 340 q 313 276 326 301 q 275 181 296 229 q 229 86 254 132 q 147 -44 193 17 q 57 -152 101 -104 q -27 -233 13 -200 q -89 -282 -67 -267 q -172 -322 -137 -314 q -228 -326 -206 -331 q -262 -310 -250 -322 q -276 -287 -274 -297 q -269 -257 -282 -267 q -242 -242 -257 -247 q -212 -229 -233 -239 q -151 -190 -192 -219 q -108 -153 -132 -175 q -54 -101 -83 -132 q 7 -27 -25 -69 q 74 74 39 15 q 116 152 96 110 q 153 242 136 194 l 154 243 q 192 325 169 285 q 240 398 214 365 q 292 453 265 431 q 342 482 318 475 q 315 512 333 497 q 277 549 296 526 q 245 603 258 571 q 236 688 232 636 q 237 700 236 694 q 239 713 238 706 q 235 776 238 743 q 231 842 233 810 q 224 901 228 874 q 215 950 219 929 q 173 1062 199 1028 q 122 1106 147 1096 q 78 1114 97 1117 q 57 1118 60 1111 q 49 1148 49 1128 q 56 1189 49 1168 q 79 1226 64 1210 q 117 1247 94 1243 q 188 1250 149 1256 q 267 1203 228 1244 q 308 1142 290 1176 q 338 1074 325 1108 q 358 1008 350 1040 q 369 954 365 976 q 378 883 374 932 q 385 775 382 835 q 388 743 386 760 q 390 708 389 726 l 393 707 q 405 668 393 683 q 433 642 417 653 q 470 624 450 632 q 508 608 490 617 q 538 590 525 600 q 553 563 550 579 z "},"<":{"ha":714,"x_min":71,"x_max":614,"o":"m 585 690 q 600 669 593 686 q 610 634 607 653 q 610 598 614 615 q 590 575 606 581 q 515 562 558 564 q 422 546 471 560 q 305 513 354 526 q 224 489 256 500 q 306 456 269 474 q 383 422 343 439 q 513 368 463 389 q 576 314 564 347 q 574 288 579 306 q 559 253 569 269 q 535 227 549 238 q 506 224 521 217 q 439 262 474 235 q 358 310 404 289 q 192 388 251 361 q 117 417 132 415 q 86 429 101 417 q 74 463 71 442 q 73 489 75 475 q 82 510 71 503 q 98 535 82 521 q 158 572 114 549 q 267 615 218 601 q 367 646 317 629 q 440 672 407 660 q 501 690 474 683 q 549 698 528 697 q 585 690 569 699 z "},">":{"ha":743,"x_min":75,"x_max":631,"o":"m 589 506 q 617 490 604 503 q 628 457 631 478 q 628 440 626 449 q 627 423 629 431 q 618 410 625 415 q 594 407 611 406 q 579 392 588 394 q 505 373 549 378 q 414 350 461 368 q 240 288 301 310 q 168 254 179 265 q 138 242 157 243 q 104 257 118 240 q 88 272 97 265 q 76 290 78 279 q 90 316 75 300 q 149 357 106 332 q 254 409 206 392 q 351 446 303 426 q 383 459 368 453 q 411 472 397 465 q 367 496 388 483 q 322 519 346 508 q 197 583 246 558 q 138 642 149 607 q 141 667 135 650 q 159 700 147 685 q 185 724 171 715 q 215 726 200 733 q 278 683 246 713 q 356 629 311 654 q 516 540 458 571 q 589 506 574 508 z "},"^":{"ha":685,"x_min":75,"x_max":582,"o":"m 564 622 q 578 592 575 611 q 567 558 582 574 q 553 540 560 550 q 538 527 547 529 q 510 538 528 525 q 463 592 493 551 q 432 634 443 618 q 413 664 421 650 q 398 692 406 678 q 378 731 390 707 q 361 760 369 746 q 346 788 353 774 q 326 758 336 772 q 300 717 317 743 q 224 598 254 644 q 160 546 194 551 q 135 552 151 544 q 104 573 118 560 q 83 601 90 586 q 83 632 75 617 q 133 690 100 660 q 194 760 165 719 q 260 855 239 822 q 293 904 282 888 q 296 936 290 924 q 313 955 299 944 q 347 972 328 965 q 383 977 365 978 q 408 963 400 976 q 434 890 424 933 q 467 801 444 847 q 508 715 492 749 q 535 663 525 682 q 552 635 546 644 q 564 622 558 626 z "},"":{"ha":1235,"x_min":-22,"x_max":1729,"o":"m 1697 999 q 1723 980 1717 993 q 1724 951 1729 967 q 1705 919 1719 935 q 1668 893 1690 903 q 1631 883 1649 885 q 1594 884 1614 882 q 1551 889 1575 886 q 1492 892 1526 892 q 1437 890 1464 890 q 1383 887 1410 890 q 1329 876 1356 883 q 1275 853 1303 868 q 1146 756 1208 814 q 1028 629 1083 699 q 1107 635 1067 631 q 1192 645 1147 639 q 1288 661 1236 651 q 1400 683 1339 671 q 1435 683 1418 696 q 1454 645 1451 669 q 1438 593 1457 621 q 1368 551 1419 565 q 1251 528 1308 535 q 1142 520 1194 522 q 1040 519 1089 518 q 950 519 992 521 q 849 322 888 424 q 832 244 835 286 q 837 163 829 201 q 863 94 844 124 q 910 51 881 64 q 981 38 940 39 q 1063 44 1022 38 q 1138 65 1103 51 q 1194 94 1174 79 q 1231 113 1222 114 q 1235 96 1240 111 q 1212 56 1229 81 q 1168 3 1194 31 q 1110 -49 1142 -24 q 1044 -87 1078 -74 q 981 -106 1017 -100 q 911 -111 946 -112 q 845 -100 876 -110 q 793 -74 814 -90 q 767 -53 782 -65 q 737 -23 753 -40 q 706 17 721 -6 q 681 72 690 40 q 524 -18 606 19 q 360 -72 443 -56 q 307 -89 336 -83 q 248 -95 278 -94 q 189 -92 218 -96 q 138 -76 160 -87 q 109 -65 118 -72 q 96 -50 100 -58 q 49 -7 75 -33 q 3 64 22 19 q -19 174 -15 108 q 6 332 -22 239 q 85 512 32 425 q 211 675 139 599 q 372 816 283 751 q 561 929 461 881 q 640 981 597 960 q 735 1008 682 1001 q 751 1010 743 1010 q 767 1010 758 1010 l 783 1014 q 829 1000 801 1019 q 881 955 857 981 q 921 906 906 929 q 929 878 936 882 q 975 757 958 824 q 1027 804 1000 781 q 1082 850 1054 828 l 1081 850 q 1044 848 1063 838 q 1019 880 1025 858 q 1030 926 1014 901 q 1099 964 1046 950 q 1164 975 1119 969 q 1258 985 1208 981 q 1351 992 1307 989 q 1414 996 1394 994 q 1440 997 1426 996 q 1468 999 1453 997 q 1521 1002 1489 1000 q 1586 1005 1553 1004 q 1650 1004 1619 1006 q 1697 999 1681 1003 m 550 126 q 676 256 624 183 q 683 285 679 271 q 690 317 686 300 q 726 413 704 365 q 775 507 747 460 q 733 503 750 504 q 703 499 715 501 q 669 513 683 496 q 668 558 656 531 q 688 589 676 576 q 719 609 700 601 q 765 621 738 617 q 835 626 793 625 q 808 785 844 725 q 697 846 772 846 q 632 838 665 846 q 567 814 599 829 q 326 611 431 735 q 164 338 222 488 q 147 259 150 301 q 152 178 144 217 q 178 109 160 139 q 225 67 196 79 q 296 53 256 54 q 376 60 336 53 q 452 81 417 67 q 510 110 488 94 q 550 126 544 136 z "},"":{"ha":678,"x_min":-14,"x_max":731,"o":"m 669 213 q 718 231 706 233 q 728 217 731 229 q 712 187 725 204 q 683 160 699 169 q 620 124 668 150 q 514 70 572 99 q 397 17 456 42 q 303 -15 339 -7 q 228 -10 257 -25 q 185 29 199 4 q 67 10 119 -1 q 15 39 33 17 q -8 90 -3 61 q -8 147 -14 118 q 13 194 -1 175 q 47 241 26 214 q 92 294 68 268 q 138 338 115 319 q 181 361 161 357 l 196 365 q 181 382 190 375 q 165 402 164 396 q 174 409 165 408 q 195 406 182 410 q 217 397 208 403 q 251 370 226 390 q 297 318 275 350 q 306 328 301 324 q 315 338 310 333 q 366 378 342 363 q 410 400 390 393 q 447 409 431 407 q 474 410 463 411 q 504 397 488 408 q 535 367 521 385 q 560 328 550 350 q 574 285 571 306 q 562 244 575 264 q 528 208 549 225 q 483 178 507 192 q 438 156 458 165 q 398 136 417 146 q 363 124 379 126 q 330 126 346 121 q 300 154 314 132 q 291 138 296 149 q 288 118 286 128 q 300 101 289 108 q 338 96 311 94 q 406 108 364 97 q 494 134 447 118 q 587 171 540 150 q 669 213 633 192 m 450 293 q 401 266 418 281 q 363 226 383 251 q 385 235 372 229 q 413 249 399 240 q 437 269 426 258 q 450 293 447 281 m 126 144 q 133 139 125 138 q 155 147 142 140 q 182 164 168 153 q 206 189 196 175 q 217 217 213 199 q 221 256 221 235 q 190 225 206 242 q 160 192 174 208 q 137 163 146 175 q 126 144 128 150 z "},"":{"ha":563,"x_min":8,"x_max":561,"o":"m 125 -335 q 94 -331 115 -337 q 53 -310 72 -324 q 21 -281 33 -297 q 15 -247 8 -264 q 39 -209 22 -231 q 84 -147 56 -187 q 153 -41 113 -107 q 249 131 194 25 q 326 281 297 224 q 369 371 354 338 q 388 419 383 404 q 393 443 392 435 q 408 474 394 458 q 444 485 422 489 q 465 478 456 483 q 479 459 475 474 q 480 415 483 444 q 460 335 476 386 q 385 131 428 231 q 300 -53 342 31 q 256 -140 279 -93 q 210 -228 233 -187 q 165 -299 188 -269 q 125 -335 143 -329 m 553 611 q 523 608 540 607 q 488 613 506 608 q 454 626 469 618 q 429 646 439 635 q 415 681 410 667 q 436 710 421 694 q 474 731 451 725 q 514 729 497 736 q 535 706 532 721 q 543 676 539 690 q 549 660 544 669 q 558 640 554 650 q 561 622 561 631 q 553 611 561 614 z "},"":{"ha":674,"x_min":39,"x_max":658,"o":"m 149 -306 q 96 -266 119 -289 q 58 -212 72 -243 q 42 -138 44 -181 q 51 -40 39 -96 q 75 46 64 15 q 100 94 86 76 q 129 126 114 113 q 165 161 144 139 q 223 210 185 183 q 300 263 261 236 q 369 316 339 290 q 407 361 400 342 q 433 413 417 389 q 467 449 450 436 q 499 463 485 463 q 519 446 514 463 q 520 403 525 429 q 505 350 515 378 q 481 294 494 322 q 453 244 467 267 q 406 198 439 222 q 337 145 374 174 q 267 83 300 117 q 221 11 235 50 q 198 -99 197 -56 q 211 -167 199 -142 q 244 -203 224 -193 q 279 -215 264 -214 q 358 -197 322 -218 q 426 -147 393 -175 q 492 -93 458 -119 q 564 -60 525 -67 q 624 -67 603 -53 q 652 -107 646 -82 q 650 -160 658 -132 q 621 -208 642 -189 q 505 -287 563 -260 q 404 -325 447 -314 q 346 -335 379 -332 q 278 -338 313 -339 q 209 -330 243 -337 q 149 -306 175 -322 m 558 592 q 528 588 546 588 q 492 594 510 589 q 459 607 475 599 q 433 626 443 615 q 419 661 414 647 q 440 690 425 675 q 478 711 456 706 q 519 710 501 717 q 540 686 536 701 q 547 657 543 671 q 554 640 549 650 q 563 621 560 631 q 567 603 567 611 q 558 592 567 594 z "},"":{"ha":417,"x_min":110,"x_max":326,"o":"m 239 364 q 253 358 238 365 q 285 335 268 350 q 314 299 301 321 q 319 251 326 278 q 294 203 313 225 q 252 167 275 182 q 204 146 229 153 q 158 143 179 139 q 126 161 138 147 q 113 192 115 175 q 113 227 110 210 q 125 257 117 244 q 147 287 133 269 q 174 319 160 304 q 203 347 189 335 q 229 361 218 358 l 239 364 l 239 364 z "},"":{"ha":575,"x_min":114,"x_max":471,"o":"m 154 1025 q 202 1024 186 1039 q 224 985 218 1008 q 252 947 231 961 q 307 935 274 932 q 363 954 346 938 q 393 997 379 971 q 417 1022 403 1015 q 443 1028 431 1029 q 463 1017 456 1026 q 467 990 471 1007 q 453 949 463 974 q 424 901 444 925 q 369 860 403 878 q 281 840 335 842 q 213 853 240 839 q 167 886 186 867 q 138 925 149 906 q 121 956 128 944 q 115 976 114 965 q 123 997 117 988 q 138 1015 129 1007 q 154 1025 147 1022 z "},"":{"ha":356,"x_min":115,"x_max":258,"o":"m 258 1007 q 251 977 258 993 q 233 947 244 961 q 208 920 222 932 q 181 904 194 908 q 144 903 154 893 q 124 933 133 914 q 118 977 115 954 q 135 1013 121 1000 q 164 1024 149 1026 q 194 1021 179 1022 q 212 1022 201 1021 q 233 1022 222 1022 q 251 1018 243 1021 q 258 1007 258 1015 z "},"":{"ha":413,"x_min":88,"x_max":319,"o":"m 267 1039 q 285 1028 274 1038 q 306 1003 297 1019 q 317 967 315 988 q 307 919 319 946 q 272 872 294 893 q 224 835 250 850 q 170 814 197 821 q 124 811 143 807 q 96 829 104 815 q 88 860 88 843 q 96 896 89 878 q 114 925 103 914 q 142 954 125 938 q 176 987 158 971 q 211 1015 194 1003 q 240 1029 228 1026 l 250 1032 q 255 1038 249 1035 q 267 1039 261 1040 m 243 922 q 258 947 251 932 q 268 982 264 963 q 234 954 251 969 q 202 925 217 939 q 177 900 188 911 q 165 883 167 889 q 171 878 163 878 q 192 885 179 879 q 218 900 204 890 q 243 922 232 910 z "},"":{"ha":571,"x_min":101,"x_max":476,"o":"m 153 908 q 184 945 165 919 q 214 1011 203 971 q 215 1013 214 1013 q 215 1015 215 1014 q 226 1021 217 1021 q 245 1016 235 1021 q 265 1001 256 1011 q 279 975 275 992 q 280 941 285 956 q 254 903 275 926 q 211 865 235 883 q 164 842 188 847 q 121 835 139 836 q 101 849 103 833 q 116 874 101 860 q 153 908 131 889 m 324 907 q 361 944 336 918 q 404 1018 386 971 q 406 1022 406 1019 q 417 1028 408 1028 q 435 1023 425 1028 q 456 1008 446 1018 q 469 981 465 997 q 469 947 476 963 q 439 906 463 932 q 378 855 403 868 q 329 836 353 842 q 291 832 307 832 q 274 847 275 832 q 288 873 272 858 q 324 907 303 888 z "},"":{"ha":531,"x_min":104,"x_max":426,"o":"m 407 1008 q 421 997 415 1006 q 424 971 426 988 q 406 933 415 954 q 386 900 396 913 q 320 824 347 850 q 268 785 293 799 q 238 773 254 778 q 203 771 222 768 q 176 782 192 772 q 147 808 161 792 q 122 844 133 824 q 107 890 111 865 q 108 937 104 914 q 121 976 111 960 q 143 1000 129 992 q 171 1011 157 1008 q 195 1012 185 1014 q 207 1004 206 1010 l 207 1001 q 201 938 200 964 q 209 894 203 913 q 223 866 215 876 q 235 850 231 856 q 260 864 244 854 q 292 889 275 874 q 328 926 310 904 q 360 976 346 947 q 385 1006 375 1000 q 407 1008 396 1011 z "},"":{"ha":457,"x_min":60,"x_max":390,"o":"m 75 774 q 64 786 68 776 q 64 813 60 796 q 86 850 74 829 q 110 883 99 871 q 184 959 154 933 q 240 997 214 985 q 272 1010 256 1004 q 307 1013 289 1015 q 332 1001 318 1011 q 358 976 346 992 q 379 938 371 960 q 389 892 388 917 q 383 846 390 868 q 365 806 376 824 q 340 783 356 790 q 311 772 325 775 q 287 770 297 768 q 276 778 276 772 l 276 782 q 290 844 288 819 q 289 885 292 869 q 280 911 286 901 q 269 926 274 921 q 208 885 250 917 q 125 806 167 854 q 96 776 106 782 q 75 774 86 771 z "},"`":{"ha":503,"x_min":142,"x_max":360,"o":"m 311 879 q 345 845 331 860 q 357 819 360 831 q 333 799 354 804 q 288 801 313 794 q 238 828 265 807 q 181 890 210 850 q 151 939 161 918 q 149 979 142 960 q 165 1006 154 996 q 185 1020 175 1015 q 204 1025 196 1025 q 215 1019 213 1025 q 216 1017 215 1018 q 217 1015 217 1017 q 237 969 224 992 q 265 929 250 947 q 292 898 279 911 q 311 879 304 885 z "},"":{"ha":417,"x_min":107,"x_max":339,"o":"m 158 879 q 178 898 164 885 q 207 929 192 911 q 238 969 222 947 q 263 1015 253 992 q 264 1019 263 1018 q 274 1025 265 1025 q 292 1020 282 1025 q 313 1006 303 1015 q 328 979 322 996 q 289 890 339 940 q 225 834 253 853 q 174 810 197 815 q 129 803 150 803 q 107 819 108 804 q 122 845 107 831 q 158 879 136 860 z "},"":{"ha":515,"x_min":99,"x_max":431,"o":"m 176 1004 q 194 1005 183 1004 q 216 1005 206 1006 q 234 1001 226 1004 q 242 990 242 999 q 234 960 242 976 q 215 930 226 944 q 191 903 204 915 q 164 888 178 892 q 127 887 138 876 q 107 917 117 897 q 101 960 99 938 q 117 996 104 983 q 147 1008 132 1010 q 176 1004 163 1006 m 365 1004 q 383 1005 372 1004 q 405 1005 394 1006 q 423 1001 415 1004 q 431 990 431 999 q 423 960 431 976 q 404 930 415 944 q 380 903 393 915 q 353 888 367 892 q 316 887 326 876 q 296 917 306 897 q 290 960 288 938 q 306 996 293 983 q 336 1008 321 1010 q 365 1004 351 1006 z "},"":{"ha":796,"x_min":-86,"x_max":958,"o":"m 808 964 q 860 956 832 964 q 908 926 889 949 q 932 862 928 903 q 914 756 936 821 q 854 608 894 700 q 765 413 814 517 q 819 406 800 413 q 844 389 839 399 q 842 367 850 379 q 814 346 833 356 q 779 335 803 340 q 722 322 756 329 q 668 209 694 264 q 620 108 642 154 q 581 25 599 61 q 556 -31 564 -11 q 529 -95 538 -71 q 518 -134 521 -119 q 516 -157 515 -149 q 519 -175 517 -165 q 515 -193 521 -185 q 497 -204 508 -201 q 469 -202 485 -207 q 436 -181 453 -197 q 410 -142 419 -164 q 403 -89 401 -119 q 419 -18 406 -58 q 461 75 433 22 q 509 169 481 111 q 571 299 538 228 q 492 288 531 293 q 419 280 453 283 q 356 274 385 276 q 311 271 328 271 q 266 272 288 269 q 225 276 244 274 q 105 80 143 154 q 56 -19 67 6 q 47 -52 49 -35 q 41 -83 44 -69 q 31 -103 38 -96 q 11 -108 25 -111 q -26 -94 -7 -104 q -60 -69 -46 -83 q -80 -39 -74 -54 q -78 -8 -86 -24 q 63 226 -14 107 q 228 458 140 344 q 411 674 315 571 q 608 864 507 778 q 673 914 644 894 q 725 944 701 933 q 769 960 749 956 q 808 964 789 964 m 617 399 q 670 523 643 460 q 722 647 697 586 q 766 765 746 708 q 800 867 786 821 q 724 836 772 867 q 613 749 675 806 q 476 609 550 692 q 326 422 403 526 q 302 389 314 406 q 279 357 290 372 q 349 365 308 360 q 434 375 389 369 q 526 387 479 381 q 617 399 574 393 m 910 1157 q 944 1123 929 1138 q 956 1097 958 1108 q 932 1077 953 1082 q 886 1079 911 1072 q 836 1106 864 1085 q 779 1168 808 1128 q 750 1217 760 1196 q 747 1257 740 1238 q 763 1283 753 1274 q 784 1298 774 1293 q 803 1303 794 1303 q 814 1297 811 1303 q 815 1295 814 1296 q 815 1293 815 1294 q 835 1247 822 1269 q 863 1207 849 1225 q 890 1176 878 1189 q 910 1157 903 1163 z "},"":{"ha":796,"x_min":-86,"x_max":1031,"o":"m 808 964 q 860 956 832 964 q 908 926 889 949 q 932 862 928 903 q 914 756 936 821 q 854 608 894 700 q 765 413 814 517 q 819 406 800 413 q 844 389 839 399 q 842 367 850 379 q 814 346 833 356 q 779 335 803 340 q 722 322 756 329 q 668 209 694 264 q 620 108 642 154 q 581 25 599 61 q 556 -31 564 -11 q 529 -95 538 -71 q 518 -134 521 -119 q 516 -157 515 -149 q 519 -175 517 -165 q 515 -193 521 -185 q 497 -204 508 -201 q 469 -202 485 -207 q 436 -181 453 -197 q 410 -142 419 -164 q 403 -89 401 -119 q 419 -18 406 -58 q 461 75 433 22 q 509 169 481 111 q 571 299 538 228 q 492 288 531 293 q 419 280 453 283 q 356 274 385 276 q 311 271 328 271 q 266 272 288 269 q 225 276 244 274 q 105 80 143 154 q 56 -19 67 6 q 47 -52 49 -35 q 41 -83 44 -69 q 31 -103 38 -96 q 11 -108 25 -111 q -26 -94 -7 -104 q -60 -69 -46 -83 q -80 -39 -74 -54 q -78 -8 -86 -24 q 63 226 -14 107 q 228 458 140 344 q 411 674 315 571 q 608 864 507 778 q 673 914 644 894 q 725 944 701 933 q 769 960 749 956 q 808 964 789 964 m 617 399 q 670 523 643 460 q 722 647 697 586 q 766 765 746 708 q 800 867 786 821 q 724 836 772 867 q 613 749 675 806 q 476 609 550 692 q 326 422 403 526 q 302 389 314 406 q 279 357 290 372 q 349 365 308 360 q 434 375 389 369 q 526 387 479 381 q 617 399 574 393 m 850 1157 q 869 1176 856 1163 q 899 1207 883 1189 q 929 1247 914 1225 q 954 1293 944 1269 q 956 1297 954 1296 q 965 1303 957 1303 q 984 1298 974 1303 q 1004 1283 994 1293 q 1019 1257 1014 1274 q 981 1168 1031 1218 q 917 1112 944 1131 q 865 1088 889 1093 q 821 1081 842 1081 q 799 1097 800 1082 q 813 1123 799 1108 q 850 1157 828 1138 z "},"":{"ha":796,"x_min":-86,"x_max":1032,"o":"m 808 964 q 860 956 832 964 q 908 926 889 949 q 932 862 928 903 q 914 756 936 821 q 854 608 894 700 q 765 413 814 517 q 819 406 800 413 q 844 389 839 399 q 842 367 850 379 q 814 346 833 356 q 779 335 803 340 q 722 322 756 329 q 668 209 694 264 q 620 108 642 154 q 581 25 599 61 q 556 -31 564 -11 q 529 -95 538 -71 q 518 -134 521 -119 q 516 -157 515 -149 q 519 -175 517 -165 q 515 -193 521 -185 q 497 -204 508 -201 q 469 -202 485 -207 q 436 -181 453 -197 q 410 -142 419 -164 q 403 -89 401 -119 q 419 -18 406 -58 q 461 75 433 22 q 509 169 481 111 q 571 299 538 228 q 492 288 531 293 q 419 280 453 283 q 356 274 385 276 q 311 271 328 271 q 266 272 288 269 q 225 276 244 274 q 105 80 143 154 q 56 -19 67 6 q 47 -52 49 -35 q 41 -83 44 -69 q 31 -103 38 -96 q 11 -108 25 -111 q -26 -94 -7 -104 q -60 -69 -46 -83 q -80 -39 -74 -54 q -78 -8 -86 -24 q 63 226 -14 107 q 228 458 140 344 q 411 674 315 571 q 608 864 507 778 q 673 914 644 894 q 725 944 701 933 q 769 960 749 956 q 808 964 789 964 m 617 399 q 670 523 643 460 q 722 647 697 586 q 766 765 746 708 q 800 867 786 821 q 724 836 772 867 q 613 749 675 806 q 476 609 550 692 q 326 422 403 526 q 302 389 314 406 q 279 357 290 372 q 349 365 308 360 q 434 375 389 369 q 526 387 479 381 q 617 399 574 393 m 717 1051 q 706 1064 710 1054 q 706 1090 701 1074 q 728 1128 715 1107 q 751 1161 740 1149 q 826 1237 796 1211 q 882 1275 856 1263 q 914 1288 897 1282 q 949 1290 931 1293 q 974 1279 960 1289 q 1000 1253 988 1269 q 1021 1216 1013 1238 q 1031 1169 1029 1194 q 1025 1124 1032 1146 q 1007 1083 1018 1101 q 982 1060 997 1068 q 953 1049 967 1053 q 928 1048 939 1046 q 918 1056 918 1050 l 918 1060 q 931 1122 929 1097 q 931 1163 933 1147 q 922 1189 928 1179 q 911 1204 915 1199 q 850 1163 892 1194 q 767 1083 808 1132 q 738 1054 747 1060 q 717 1051 728 1049 z "},"":{"ha":404,"x_min":65,"x_max":339,"o":"m 76 911 q 112 950 88 933 q 158 967 136 967 q 196 955 181 967 q 226 922 211 943 q 261 904 242 901 q 286 914 281 907 q 307 942 297 929 q 328 947 317 954 q 336 922 339 940 q 328 889 333 903 q 313 866 324 876 q 287 849 301 856 q 254 842 272 843 q 219 849 236 842 q 194 864 203 856 q 179 878 185 872 q 168 888 174 885 q 150 890 163 892 q 130 883 139 889 q 113 870 121 876 q 97 860 104 864 q 85 858 90 856 q 67 877 69 865 q 76 911 65 889 z "},"":{"ha":796,"x_min":-86,"x_max":1013,"o":"m 808 964 q 860 956 832 964 q 908 926 889 949 q 932 862 928 903 q 914 756 936 821 q 854 608 894 700 q 765 413 814 517 q 819 406 800 413 q 844 389 839 399 q 842 367 850 379 q 814 346 833 356 q 779 335 803 340 q 722 322 756 329 q 668 209 694 264 q 620 108 642 154 q 581 25 599 61 q 556 -31 564 -11 q 529 -95 538 -71 q 518 -134 521 -119 q 516 -157 515 -149 q 519 -175 517 -165 q 515 -193 521 -185 q 497 -204 508 -201 q 469 -202 485 -207 q 436 -181 453 -197 q 410 -142 419 -164 q 403 -89 401 -119 q 419 -18 406 -58 q 461 75 433 22 q 509 169 481 111 q 571 299 538 228 q 492 288 531 293 q 419 280 453 283 q 356 274 385 276 q 311 271 328 271 q 266 272 288 269 q 225 276 244 274 q 105 80 143 154 q 56 -19 67 6 q 47 -52 49 -35 q 41 -83 44 -69 q 31 -103 38 -96 q 11 -108 25 -111 q -26 -94 -7 -104 q -60 -69 -46 -83 q -80 -39 -74 -54 q -78 -8 -86 -24 q 63 226 -14 107 q 228 458 140 344 q 411 674 315 571 q 608 864 507 778 q 673 914 644 894 q 725 944 701 933 q 769 960 749 956 q 808 964 789 964 m 617 399 q 670 523 643 460 q 722 647 697 586 q 766 765 746 708 q 800 867 786 821 q 724 836 772 867 q 613 749 675 806 q 476 609 550 692 q 326 422 403 526 q 302 389 314 406 q 279 357 290 372 q 349 365 308 360 q 434 375 389 369 q 526 387 479 381 q 617 399 574 393 m 750 1124 q 785 1163 761 1146 q 832 1179 810 1179 q 869 1167 854 1179 q 900 1135 885 1156 q 935 1117 915 1114 q 960 1126 954 1119 q 981 1154 971 1142 q 1001 1160 990 1167 q 1010 1134 1013 1153 q 1001 1101 1007 1115 q 986 1078 997 1089 q 960 1062 975 1068 q 928 1055 946 1056 q 893 1061 910 1054 q 867 1076 876 1068 q 853 1091 858 1085 q 842 1101 847 1097 q 824 1103 836 1104 q 803 1095 813 1101 q 786 1083 794 1089 q 771 1072 778 1076 q 758 1071 764 1068 q 741 1090 743 1078 q 750 1124 739 1101 z "},"":{"ha":796,"x_min":-86,"x_max":1046,"o":"m 808 964 q 860 956 832 964 q 908 926 889 949 q 932 862 928 903 q 914 756 936 821 q 854 608 894 700 q 765 413 814 517 q 819 406 800 413 q 844 389 839 399 q 842 367 850 379 q 814 346 833 356 q 779 335 803 340 q 722 322 756 329 q 668 209 694 264 q 620 108 642 154 q 581 25 599 61 q 556 -31 564 -11 q 529 -95 538 -71 q 518 -134 521 -119 q 516 -157 515 -149 q 519 -175 517 -165 q 515 -193 521 -185 q 497 -204 508 -201 q 469 -202 485 -207 q 436 -181 453 -197 q 410 -142 419 -164 q 403 -89 401 -119 q 419 -18 406 -58 q 461 75 433 22 q 509 169 481 111 q 571 299 538 228 q 492 288 531 293 q 419 280 453 283 q 356 274 385 276 q 311 271 328 271 q 266 272 288 269 q 225 276 244 274 q 105 80 143 154 q 56 -19 67 6 q 47 -52 49 -35 q 41 -83 44 -69 q 31 -103 38 -96 q 11 -108 25 -111 q -26 -94 -7 -104 q -60 -69 -46 -83 q -80 -39 -74 -54 q -78 -8 -86 -24 q 63 226 -14 107 q 228 458 140 344 q 411 674 315 571 q 608 864 507 778 q 673 914 644 894 q 725 944 701 933 q 769 960 749 956 q 808 964 789 964 m 617 399 q 670 523 643 460 q 722 647 697 586 q 766 765 746 708 q 800 867 786 821 q 724 836 772 867 q 613 749 675 806 q 476 609 550 692 q 326 422 403 526 q 302 389 314 406 q 279 357 290 372 q 349 365 308 360 q 434 375 389 369 q 526 387 479 381 q 617 399 574 393 m 792 1176 q 810 1177 799 1176 q 831 1177 821 1178 q 849 1174 842 1176 q 857 1163 857 1171 q 849 1133 857 1149 q 831 1102 842 1117 q 806 1076 819 1088 q 779 1060 793 1064 q 742 1059 753 1049 q 722 1089 732 1069 q 717 1133 714 1110 q 732 1168 719 1156 q 763 1180 747 1182 q 792 1176 778 1178 m 981 1176 q 999 1177 988 1176 q 1020 1177 1010 1178 q 1038 1174 1031 1176 q 1046 1163 1046 1171 q 1038 1133 1046 1149 q 1019 1102 1031 1117 q 995 1076 1008 1088 q 968 1060 982 1064 q 931 1059 942 1049 q 911 1089 921 1069 q 906 1133 903 1110 q 921 1168 908 1156 q 951 1180 936 1182 q 981 1176 967 1178 z "},"":{"ha":796,"x_min":-86,"x_max":1011,"o":"m 808 964 q 860 956 832 964 q 908 926 889 949 q 932 862 928 903 q 914 756 936 821 q 854 608 894 700 q 765 413 814 517 q 819 406 800 413 q 844 389 839 399 q 842 367 850 379 q 814 346 833 356 q 779 335 803 340 q 722 322 756 329 q 668 209 694 264 q 620 108 642 154 q 581 25 599 61 q 556 -31 564 -11 q 529 -95 538 -71 q 518 -134 521 -119 q 516 -157 515 -149 q 519 -175 517 -165 q 515 -193 521 -185 q 497 -204 508 -201 q 469 -202 485 -207 q 436 -181 453 -197 q 410 -142 419 -164 q 403 -89 401 -119 q 419 -18 406 -58 q 461 75 433 22 q 509 169 481 111 q 571 299 538 228 q 492 288 531 293 q 419 280 453 283 q 356 274 385 276 q 311 271 328 271 q 266 272 288 269 q 225 276 244 274 q 105 80 143 154 q 56 -19 67 6 q 47 -52 49 -35 q 41 -83 44 -69 q 31 -103 38 -96 q 11 -108 25 -111 q -26 -94 -7 -104 q -60 -69 -46 -83 q -80 -39 -74 -54 q -78 -8 -86 -24 q 63 226 -14 107 q 228 458 140 344 q 411 674 315 571 q 608 864 507 778 q 673 914 644 894 q 725 944 701 933 q 769 960 749 956 q 808 964 789 964 m 617 399 q 670 523 643 460 q 722 647 697 586 q 766 765 746 708 q 800 867 786 821 q 724 836 772 867 q 613 749 675 806 q 476 609 550 692 q 326 422 403 526 q 302 389 314 406 q 279 357 290 372 q 349 365 308 360 q 434 375 389 369 q 526 387 479 381 q 617 399 574 393 m 958 1282 q 977 1272 965 1281 q 998 1247 989 1263 q 1009 1210 1007 1231 q 999 1163 1011 1189 q 964 1115 986 1136 q 915 1078 942 1093 q 862 1057 889 1064 q 815 1054 835 1050 q 788 1072 796 1058 q 780 1103 779 1086 q 788 1139 781 1121 q 806 1168 794 1157 q 833 1197 817 1181 q 868 1230 850 1214 q 903 1258 886 1246 q 932 1272 919 1269 l 942 1275 q 947 1281 940 1278 q 958 1282 953 1283 m 935 1165 q 949 1190 943 1175 q 960 1225 956 1206 q 926 1197 943 1213 q 894 1168 908 1182 q 869 1143 879 1154 q 857 1126 858 1132 q 863 1122 854 1121 q 883 1128 871 1122 q 910 1143 896 1133 q 935 1165 924 1153 z "},"":{"ha":564,"x_min":-15,"x_max":1058,"o":"m 1026 999 q 1052 980 1046 993 q 1053 951 1058 967 q 1034 919 1049 935 q 997 893 1019 903 q 960 883 978 885 q 924 884 943 882 q 880 889 904 886 q 821 892 856 892 q 766 890 793 890 q 712 887 739 890 q 658 876 685 883 q 604 853 632 868 q 475 756 538 814 q 357 629 413 699 q 436 635 396 631 q 521 645 476 639 q 617 661 565 651 q 729 683 668 671 q 764 683 747 696 q 783 645 781 669 q 767 593 786 621 q 697 551 749 565 q 581 528 638 535 q 471 520 524 522 q 369 519 418 518 q 279 519 321 521 q 178 322 217 424 q 161 244 164 286 q 166 163 158 201 q 192 94 174 124 q 239 51 210 64 q 310 38 269 39 q 392 44 351 38 q 467 65 432 51 q 524 94 503 79 q 560 113 551 114 q 564 96 569 111 q 541 56 558 81 q 497 3 524 31 q 439 -49 471 -24 q 374 -87 407 -74 q 310 -106 346 -100 q 240 -111 275 -112 q 174 -100 206 -110 q 122 -74 143 -90 q 75 -34 104 -60 q 24 36 46 -8 q -4 149 1 81 q 19 317 -10 217 q 55 413 33 365 q 104 507 76 460 q 62 503 79 504 q 32 499 44 501 q -1 513 13 496 q -3 558 -15 531 q 19 591 7 578 q 53 611 32 604 q 105 622 74 618 q 185 626 136 625 q 290 745 233 689 q 411 850 347 801 l 410 850 q 373 848 392 838 q 349 880 354 858 q 359 926 343 901 q 428 964 375 950 q 493 975 449 969 q 587 985 538 981 q 680 992 636 989 q 743 996 724 994 q 769 997 756 996 q 797 999 782 997 q 850 1002 818 1000 q 915 1005 882 1004 q 979 1004 949 1006 q 1026 999 1010 1003 m 771 1128 q 805 1094 790 1108 q 817 1068 819 1079 q 793 1048 814 1053 q 747 1050 772 1043 q 697 1077 725 1056 q 640 1139 669 1099 q 611 1188 621 1167 q 608 1228 601 1208 q 624 1254 614 1244 q 645 1269 635 1264 q 664 1274 656 1274 q 675 1268 672 1274 q 676 1266 675 1267 q 676 1264 676 1265 q 697 1218 683 1240 q 724 1178 710 1196 q 751 1147 739 1160 q 771 1128 764 1133 z "},"":{"ha":564,"x_min":-15,"x_max":1058,"o":"m 1026 999 q 1052 980 1046 993 q 1053 951 1058 967 q 1034 919 1049 935 q 997 893 1019 903 q 960 883 978 885 q 924 884 943 882 q 880 889 904 886 q 821 892 856 892 q 766 890 793 890 q 712 887 739 890 q 658 876 685 883 q 604 853 632 868 q 475 756 538 814 q 357 629 413 699 q 436 635 396 631 q 521 645 476 639 q 617 661 565 651 q 729 683 668 671 q 764 683 747 696 q 783 645 781 669 q 767 593 786 621 q 697 551 749 565 q 581 528 638 535 q 471 520 524 522 q 369 519 418 518 q 279 519 321 521 q 178 322 217 424 q 161 244 164 286 q 166 163 158 201 q 192 94 174 124 q 239 51 210 64 q 310 38 269 39 q 392 44 351 38 q 467 65 432 51 q 524 94 503 79 q 560 113 551 114 q 564 96 569 111 q 541 56 558 81 q 497 3 524 31 q 439 -49 471 -24 q 374 -87 407 -74 q 310 -106 346 -100 q 240 -111 275 -112 q 174 -100 206 -110 q 122 -74 143 -90 q 75 -34 104 -60 q 24 36 46 -8 q -4 149 1 81 q 19 317 -10 217 q 55 413 33 365 q 104 507 76 460 q 62 503 79 504 q 32 499 44 501 q -1 513 13 496 q -3 558 -15 531 q 19 591 7 578 q 53 611 32 604 q 105 622 74 618 q 185 626 136 625 q 290 745 233 689 q 411 850 347 801 l 410 850 q 373 848 392 838 q 349 880 354 858 q 359 926 343 901 q 428 964 375 950 q 493 975 449 969 q 587 985 538 981 q 680 992 636 989 q 743 996 724 994 q 769 997 756 996 q 797 999 782 997 q 850 1002 818 1000 q 915 1005 882 1004 q 979 1004 949 1006 q 1026 999 1010 1003 m 715 1124 q 735 1142 721 1129 q 764 1174 749 1156 q 794 1214 779 1192 q 819 1260 810 1236 q 821 1264 819 1263 q 831 1269 822 1269 q 849 1265 839 1269 q 869 1250 860 1260 q 885 1224 879 1240 q 846 1135 896 1185 q 782 1078 810 1097 q 731 1054 754 1060 q 686 1048 707 1047 q 664 1064 665 1049 q 678 1090 664 1075 q 715 1124 693 1104 z "},"":{"ha":564,"x_min":-15,"x_max":1058,"o":"m 1026 999 q 1052 980 1046 993 q 1053 951 1058 967 q 1034 919 1049 935 q 997 893 1019 903 q 960 883 978 885 q 924 884 943 882 q 880 889 904 886 q 821 892 856 892 q 766 890 793 890 q 712 887 739 890 q 658 876 685 883 q 604 853 632 868 q 475 756 538 814 q 357 629 413 699 q 436 635 396 631 q 521 645 476 639 q 617 661 565 651 q 729 683 668 671 q 764 683 747 696 q 783 645 781 669 q 767 593 786 621 q 697 551 749 565 q 581 528 638 535 q 471 520 524 522 q 369 519 418 518 q 279 519 321 521 q 178 322 217 424 q 161 244 164 286 q 166 163 158 201 q 192 94 174 124 q 239 51 210 64 q 310 38 269 39 q 392 44 351 38 q 467 65 432 51 q 524 94 503 79 q 560 113 551 114 q 564 96 569 111 q 541 56 558 81 q 497 3 524 31 q 439 -49 471 -24 q 374 -87 407 -74 q 310 -106 346 -100 q 240 -111 275 -112 q 174 -100 206 -110 q 122 -74 143 -90 q 75 -34 104 -60 q 24 36 46 -8 q -4 149 1 81 q 19 317 -10 217 q 55 413 33 365 q 104 507 76 460 q 62 503 79 504 q 32 499 44 501 q -1 513 13 496 q -3 558 -15 531 q 19 591 7 578 q 53 611 32 604 q 105 622 74 618 q 185 626 136 625 q 290 745 233 689 q 411 850 347 801 l 410 850 q 373 848 392 838 q 349 880 354 858 q 359 926 343 901 q 428 964 375 950 q 493 975 449 969 q 587 985 538 981 q 680 992 636 989 q 743 996 724 994 q 769 997 756 996 q 797 999 782 997 q 850 1002 818 1000 q 915 1005 882 1004 q 979 1004 949 1006 q 1026 999 1010 1003 m 635 1051 q 624 1064 628 1054 q 624 1090 619 1074 q 646 1128 633 1107 q 669 1161 658 1149 q 744 1237 714 1211 q 800 1275 774 1263 q 832 1288 815 1282 q 867 1290 849 1293 q 892 1279 878 1289 q 918 1253 906 1269 q 939 1216 931 1238 q 949 1169 947 1194 q 943 1124 950 1146 q 925 1083 936 1101 q 900 1060 915 1068 q 871 1049 885 1053 q 847 1048 857 1046 q 836 1056 836 1050 l 836 1060 q 849 1122 847 1097 q 849 1163 851 1147 q 840 1189 846 1179 q 829 1204 833 1199 q 768 1163 810 1194 q 685 1083 726 1132 q 656 1054 665 1060 q 635 1051 646 1049 z "},"":{"ha":564,"x_min":-15,"x_max":1058,"o":"m 1026 999 q 1052 980 1046 993 q 1053 951 1058 967 q 1034 919 1049 935 q 997 893 1019 903 q 960 883 978 885 q 924 884 943 882 q 880 889 904 886 q 821 892 856 892 q 766 890 793 890 q 712 887 739 890 q 658 876 685 883 q 604 853 632 868 q 475 756 538 814 q 357 629 413 699 q 436 635 396 631 q 521 645 476 639 q 617 661 565 651 q 729 683 668 671 q 764 683 747 696 q 783 645 781 669 q 767 593 786 621 q 697 551 749 565 q 581 528 638 535 q 471 520 524 522 q 369 519 418 518 q 279 519 321 521 q 178 322 217 424 q 161 244 164 286 q 166 163 158 201 q 192 94 174 124 q 239 51 210 64 q 310 38 269 39 q 392 44 351 38 q 467 65 432 51 q 524 94 503 79 q 560 113 551 114 q 564 96 569 111 q 541 56 558 81 q 497 3 524 31 q 439 -49 471 -24 q 374 -87 407 -74 q 310 -106 346 -100 q 240 -111 275 -112 q 174 -100 206 -110 q 122 -74 143 -90 q 75 -34 104 -60 q 24 36 46 -8 q -4 149 1 81 q 19 317 -10 217 q 55 413 33 365 q 104 507 76 460 q 62 503 79 504 q 32 499 44 501 q -1 513 13 496 q -3 558 -15 531 q 19 591 7 578 q 53 611 32 604 q 105 622 74 618 q 185 626 136 625 q 290 745 233 689 q 411 850 347 801 l 410 850 q 373 848 392 838 q 349 880 354 858 q 359 926 343 901 q 428 964 375 950 q 493 975 449 969 q 587 985 538 981 q 680 992 636 989 q 743 996 724 994 q 769 997 756 996 q 797 999 782 997 q 850 1002 818 1000 q 915 1005 882 1004 q 979 1004 949 1006 q 1026 999 1010 1003 m 694 1190 q 713 1191 701 1190 q 734 1191 724 1192 q 752 1188 744 1190 q 760 1176 760 1185 q 752 1147 760 1163 q 733 1116 744 1131 q 709 1090 722 1101 q 682 1074 696 1078 q 645 1073 656 1063 q 625 1103 635 1083 q 619 1147 617 1124 q 635 1182 622 1169 q 665 1194 650 1196 q 694 1190 681 1192 m 883 1190 q 901 1191 890 1190 q 923 1191 913 1192 q 941 1188 933 1190 q 949 1176 949 1185 q 941 1147 949 1163 q 922 1116 933 1131 q 898 1090 911 1101 q 871 1074 885 1078 q 834 1073 844 1063 q 814 1103 824 1083 q 808 1147 806 1124 q 824 1182 811 1169 q 854 1194 839 1196 q 883 1190 869 1192 z "},"":{"ha":308,"x_min":-107,"x_max":713,"o":"m 646 993 q 693 980 674 996 q 711 947 713 964 q 685 916 711 929 q 596 900 660 903 l 586 900 q 518 784 560 854 q 430 631 476 714 q 335 457 383 547 q 244 282 286 367 q 158 90 188 165 q 114 -29 128 15 q 138 -27 125 -28 q 165 -24 151 -26 q 210 -28 192 -18 q 228 -54 229 -37 q 203 -90 228 -71 q 118 -121 178 -108 q 105 -123 111 -122 q 92 -125 99 -124 q 81 -147 89 -137 q 57 -153 74 -156 q 26 -135 40 -150 q -47 -139 -18 -139 q -85 -131 -72 -139 q -103 -112 -99 -124 q -103 -85 -107 -100 q -92 -58 -100 -71 q -56 -33 -78 -37 q 1 -29 -33 -28 q 6 1 3 -15 q 15 35 10 17 q 50 128 25 68 q 106 260 75 188 q 174 413 138 333 q 242 562 210 492 q 301 688 275 632 q 342 769 328 743 q 370 827 356 797 q 400 888 385 857 q 372 884 385 885 q 351 881 358 883 q 326 881 340 876 q 301 896 311 886 q 287 919 290 906 q 292 949 283 933 q 320 984 306 972 q 363 1003 335 996 q 402 1006 376 1007 q 467 1003 428 1006 q 513 1044 493 1039 q 532 1043 519 1046 q 559 1033 544 1040 q 588 1016 574 1026 q 611 994 603 1006 q 628 994 619 994 q 646 993 636 994 m 613 1157 q 647 1123 632 1138 q 658 1097 661 1108 q 635 1077 656 1082 q 589 1079 614 1072 q 539 1106 567 1085 q 482 1168 511 1128 q 453 1217 463 1196 q 450 1257 443 1238 q 466 1283 456 1274 q 487 1298 476 1293 q 506 1303 497 1303 q 517 1297 514 1303 q 517 1295 517 1296 q 518 1293 518 1294 q 538 1247 525 1269 q 566 1207 551 1225 q 593 1176 581 1189 q 613 1157 606 1163 z "},"":{"ha":308,"x_min":-107,"x_max":794,"o":"m 646 993 q 693 980 674 996 q 711 947 713 964 q 685 916 711 929 q 596 900 660 903 l 586 900 q 518 784 560 854 q 430 631 476 714 q 335 457 383 547 q 244 282 286 367 q 158 90 188 165 q 114 -29 128 15 q 138 -27 125 -28 q 165 -24 151 -26 q 210 -28 192 -18 q 228 -54 229 -37 q 203 -90 228 -71 q 118 -121 178 -108 q 105 -123 111 -122 q 92 -125 99 -124 q 81 -147 89 -137 q 57 -153 74 -156 q 26 -135 40 -150 q -47 -139 -18 -139 q -85 -131 -72 -139 q -103 -112 -99 -124 q -103 -85 -107 -100 q -92 -58 -100 -71 q -56 -33 -78 -37 q 1 -29 -33 -28 q 6 1 3 -15 q 15 35 10 17 q 50 128 25 68 q 106 260 75 188 q 174 413 138 333 q 242 562 210 492 q 301 688 275 632 q 342 769 328 743 q 370 827 356 797 q 400 888 385 857 q 372 884 385 885 q 351 881 358 883 q 326 881 340 876 q 301 896 311 886 q 287 919 290 906 q 292 949 283 933 q 320 984 306 972 q 363 1003 335 996 q 402 1006 376 1007 q 467 1003 428 1006 q 513 1044 493 1039 q 532 1043 519 1046 q 559 1033 544 1040 q 588 1016 574 1026 q 611 994 603 1006 q 628 994 619 994 q 646 993 636 994 m 614 1157 q 633 1176 619 1163 q 663 1207 647 1189 q 693 1247 678 1225 q 718 1293 708 1269 q 719 1297 718 1296 q 729 1303 721 1303 q 748 1298 738 1303 q 768 1283 758 1293 q 783 1257 778 1274 q 744 1168 794 1218 q 681 1112 708 1131 q 629 1088 653 1093 q 585 1081 606 1081 q 563 1097 564 1082 q 577 1123 563 1108 q 614 1157 592 1138 z "},"":{"ha":308,"x_min":-107,"x_max":774,"o":"m 646 993 q 693 980 674 996 q 711 947 713 964 q 685 916 711 929 q 596 900 660 903 l 586 900 q 518 784 560 854 q 430 631 476 714 q 335 457 383 547 q 244 282 286 367 q 158 90 188 165 q 114 -29 128 15 q 138 -27 125 -28 q 165 -24 151 -26 q 210 -28 192 -18 q 228 -54 229 -37 q 203 -90 228 -71 q 118 -121 178 -108 q 105 -123 111 -122 q 92 -125 99 -124 q 81 -147 89 -137 q 57 -153 74 -156 q 26 -135 40 -150 q -47 -139 -18 -139 q -85 -131 -72 -139 q -103 -112 -99 -124 q -103 -85 -107 -100 q -92 -58 -100 -71 q -56 -33 -78 -37 q 1 -29 -33 -28 q 6 1 3 -15 q 15 35 10 17 q 50 128 25 68 q 106 260 75 188 q 174 413 138 333 q 242 562 210 492 q 301 688 275 632 q 342 769 328 743 q 370 827 356 797 q 400 888 385 857 q 372 884 385 885 q 351 881 358 883 q 326 881 340 876 q 301 896 311 886 q 287 919 290 906 q 292 949 283 933 q 320 984 306 972 q 363 1003 335 996 q 402 1006 376 1007 q 467 1003 428 1006 q 513 1044 493 1039 q 532 1043 519 1046 q 559 1033 544 1040 q 588 1016 574 1026 q 611 994 603 1006 q 628 994 619 994 q 646 993 636 994 m 458 1079 q 447 1092 451 1082 q 447 1118 443 1101 q 469 1156 457 1135 q 493 1189 482 1176 q 567 1265 538 1239 q 624 1303 597 1290 q 656 1315 639 1310 q 690 1318 672 1321 q 715 1307 701 1317 q 742 1281 729 1297 q 763 1244 754 1265 q 772 1197 771 1222 q 767 1151 774 1174 q 749 1111 760 1129 q 724 1088 739 1096 q 694 1077 708 1081 q 670 1076 681 1074 q 660 1083 660 1078 l 660 1088 q 673 1150 671 1125 q 672 1191 675 1175 q 663 1217 669 1207 q 653 1232 657 1226 q 592 1191 633 1222 q 508 1111 550 1160 q 479 1082 489 1088 q 458 1079 469 1076 z "},"":{"ha":308,"x_min":-107,"x_max":774,"o":"m 646 993 q 693 980 674 996 q 711 947 713 964 q 685 916 711 929 q 596 900 660 903 l 586 900 q 518 784 560 854 q 430 631 476 714 q 335 457 383 547 q 244 282 286 367 q 158 90 188 165 q 114 -29 128 15 q 138 -27 125 -28 q 165 -24 151 -26 q 210 -28 192 -18 q 228 -54 229 -37 q 203 -90 228 -71 q 118 -121 178 -108 q 105 -123 111 -122 q 92 -125 99 -124 q 81 -147 89 -137 q 57 -153 74 -156 q 26 -135 40 -150 q -47 -139 -18 -139 q -85 -131 -72 -139 q -103 -112 -99 -124 q -103 -85 -107 -100 q -92 -58 -100 -71 q -56 -33 -78 -37 q 1 -29 -33 -28 q 6 1 3 -15 q 15 35 10 17 q 50 128 25 68 q 106 260 75 188 q 174 413 138 333 q 242 562 210 492 q 301 688 275 632 q 342 769 328 743 q 370 827 356 797 q 400 888 385 857 q 372 884 385 885 q 351 881 358 883 q 326 881 340 876 q 301 896 311 886 q 287 919 290 906 q 292 949 283 933 q 320 984 306 972 q 363 1003 335 996 q 402 1006 376 1007 q 467 1003 428 1006 q 513 1044 493 1039 q 532 1043 519 1046 q 559 1033 544 1040 q 588 1016 574 1026 q 611 994 603 1006 q 628 994 619 994 q 646 993 636 994 m 519 1240 q 538 1241 526 1240 q 559 1241 549 1242 q 577 1238 569 1240 q 585 1226 585 1235 q 577 1197 585 1213 q 558 1166 569 1181 q 534 1140 547 1151 q 507 1124 521 1128 q 470 1123 481 1113 q 450 1153 460 1133 q 444 1197 442 1174 q 460 1232 447 1219 q 490 1244 475 1246 q 519 1240 506 1242 m 708 1240 q 726 1241 715 1240 q 748 1241 738 1242 q 766 1238 758 1240 q 774 1226 774 1235 q 766 1197 774 1213 q 747 1166 758 1181 q 723 1140 736 1151 q 696 1124 710 1128 q 659 1123 669 1113 q 639 1153 649 1133 q 633 1197 631 1174 q 649 1232 636 1219 q 679 1244 664 1246 q 708 1240 694 1242 z "},"":{"ha":743,"x_min":-71,"x_max":999,"o":"m 997 831 q 991 798 999 815 q 979 774 983 781 q 934 696 963 744 q 871 590 906 647 q 799 472 836 533 q 729 353 763 410 q 669 251 696 297 q 626 179 642 206 q 594 110 604 139 q 574 63 585 82 q 547 35 564 44 q 494 24 529 25 q 449 43 474 22 q 413 128 425 64 q 406 187 408 149 q 405 273 404 225 q 408 374 406 321 q 413 481 410 428 q 431 747 418 604 q 380 655 408 711 q 320 533 351 599 q 258 401 289 468 q 201 274 228 333 q 152 167 174 214 q 118 100 131 121 q 90 31 100 68 q 68 -34 81 -7 q 33 -70 56 -61 q -33 -56 10 -79 q -70 2 -69 -36 q -26 118 -71 40 q -8 155 -21 128 q 23 218 6 182 q 60 297 40 254 q 99 380 79 339 q 135 457 118 421 q 164 518 151 493 q 200 583 176 544 q 252 664 224 621 q 311 750 281 707 q 369 829 342 793 q 415 890 396 865 q 442 921 435 915 q 480 935 463 939 q 521 919 497 931 q 579 884 560 901 q 606 849 599 867 q 611 815 613 832 q 606 782 610 799 q 601 747 604 774 q 593 681 597 719 q 584 597 589 643 q 574 503 579 550 q 547 257 561 392 q 618 346 582 294 q 690 453 654 397 q 760 565 726 508 q 824 674 794 622 q 878 766 854 725 q 918 831 901 807 q 933 854 929 844 q 942 867 936 864 q 978 863 961 875 q 997 831 994 850 m 674 1124 q 709 1163 685 1146 q 756 1179 733 1179 q 793 1167 778 1179 q 824 1135 808 1156 q 858 1117 839 1114 q 883 1126 878 1119 q 904 1154 894 1142 q 925 1160 914 1167 q 933 1134 936 1153 q 925 1101 931 1115 q 910 1078 921 1089 q 884 1062 899 1068 q 851 1055 869 1056 q 817 1061 833 1054 q 791 1076 800 1068 q 776 1091 782 1085 q 765 1101 771 1097 q 747 1103 760 1104 q 727 1095 736 1101 q 710 1083 718 1089 q 694 1072 701 1076 q 682 1071 688 1068 q 665 1090 667 1078 q 674 1124 663 1101 z "},"":{"ha":924,"x_min":-8,"x_max":1007,"o":"m 943 906 q 982 809 967 863 q 1002 697 997 756 q 999 577 1007 639 q 969 454 992 515 q 873 277 935 360 q 731 129 811 194 q 559 19 651 64 q 374 -44 467 -26 q 321 -61 350 -56 q 262 -67 292 -67 q 203 -64 232 -68 q 151 -49 174 -60 q 123 -37 132 -44 q 110 -22 114 -31 q 63 21 89 -6 q 17 92 36 47 q -5 201 -1 136 q 19 360 -8 267 q 99 540 46 453 q 225 703 153 626 q 386 844 297 779 q 575 957 475 908 q 653 1008 611 988 q 749 1036 696 1029 q 765 1038 757 1038 q 781 1038 772 1038 l 797 1042 q 843 1028 815 1047 q 895 983 871 1008 q 935 933 919 957 q 943 906 950 910 m 800 478 q 846 633 836 561 q 843 759 856 706 q 797 843 831 813 q 711 874 763 874 q 646 865 679 874 q 581 842 613 857 q 340 639 444 763 q 178 365 236 515 q 161 287 164 329 q 166 206 158 244 q 192 137 174 167 q 239 94 210 107 q 310 81 269 82 q 390 88 350 81 q 466 108 431 94 q 524 138 501 122 q 564 154 558 164 q 706 305 651 221 q 800 478 761 389 m 853 1157 q 887 1123 872 1138 q 899 1097 901 1108 q 875 1077 896 1082 q 829 1079 854 1072 q 779 1106 807 1085 q 722 1168 751 1128 q 693 1217 703 1196 q 690 1257 683 1238 q 706 1283 696 1274 q 727 1298 717 1293 q 746 1303 738 1303 q 757 1297 754 1303 q 758 1295 757 1296 q 758 1293 758 1294 q 778 1247 765 1269 q 806 1207 792 1225 q 833 1176 821 1189 q 853 1157 846 1163 z "},"":{"ha":924,"x_min":-8,"x_max":1010,"o":"m 943 906 q 982 809 967 863 q 1002 697 997 756 q 999 577 1007 639 q 969 454 992 515 q 873 277 935 360 q 731 129 811 194 q 559 19 651 64 q 374 -44 467 -26 q 321 -61 350 -56 q 262 -67 292 -67 q 203 -64 232 -68 q 151 -49 174 -60 q 123 -37 132 -44 q 110 -22 114 -31 q 63 21 89 -6 q 17 92 36 47 q -5 201 -1 136 q 19 360 -8 267 q 99 540 46 453 q 225 703 153 626 q 386 844 297 779 q 575 957 475 908 q 653 1008 611 988 q 749 1036 696 1029 q 765 1038 757 1038 q 781 1038 772 1038 l 797 1042 q 843 1028 815 1047 q 895 983 871 1008 q 935 933 919 957 q 943 906 950 910 m 800 478 q 846 633 836 561 q 843 759 856 706 q 797 843 831 813 q 711 874 763 874 q 646 865 679 874 q 581 842 613 857 q 340 639 444 763 q 178 365 236 515 q 161 287 164 329 q 166 206 158 244 q 192 137 174 167 q 239 94 210 107 q 310 81 269 82 q 390 88 350 81 q 466 108 431 94 q 524 138 501 122 q 564 154 558 164 q 706 305 651 221 q 800 478 761 389 m 829 1157 q 849 1176 835 1163 q 878 1207 863 1189 q 908 1247 893 1225 q 933 1293 924 1269 q 935 1297 933 1296 q 944 1303 936 1303 q 963 1298 953 1303 q 983 1283 974 1293 q 999 1257 993 1274 q 960 1168 1010 1218 q 896 1112 924 1131 q 844 1088 868 1093 q 800 1081 821 1081 q 778 1097 779 1082 q 792 1123 778 1108 q 829 1157 807 1138 z "},"":{"ha":924,"x_min":-8,"x_max":1007,"o":"m 943 906 q 982 809 967 863 q 1002 697 997 756 q 999 577 1007 639 q 969 454 992 515 q 873 277 935 360 q 731 129 811 194 q 559 19 651 64 q 374 -44 467 -26 q 321 -61 350 -56 q 262 -67 292 -67 q 203 -64 232 -68 q 151 -49 174 -60 q 123 -37 132 -44 q 110 -22 114 -31 q 63 21 89 -6 q 17 92 36 47 q -5 201 -1 136 q 19 360 -8 267 q 99 540 46 453 q 225 703 153 626 q 386 844 297 779 q 575 957 475 908 q 653 1008 611 988 q 749 1036 696 1029 q 765 1038 757 1038 q 781 1038 772 1038 l 797 1042 q 843 1028 815 1047 q 895 983 871 1008 q 935 933 919 957 q 943 906 950 910 m 800 478 q 846 633 836 561 q 843 759 856 706 q 797 843 831 813 q 711 874 763 874 q 646 865 679 874 q 581 842 613 857 q 340 639 444 763 q 178 365 236 515 q 161 287 164 329 q 166 206 158 244 q 192 137 174 167 q 239 94 210 107 q 310 81 269 82 q 390 88 350 81 q 466 108 431 94 q 524 138 501 122 q 564 154 558 164 q 706 305 651 221 q 800 478 761 389 m 692 1065 q 681 1078 685 1068 q 681 1104 676 1088 q 703 1142 690 1121 q 726 1175 715 1163 q 801 1251 771 1225 q 857 1289 831 1276 q 889 1301 872 1296 q 924 1304 906 1307 q 949 1293 935 1303 q 975 1267 963 1283 q 996 1230 988 1251 q 1006 1183 1004 1208 q 1000 1138 1007 1160 q 982 1097 993 1115 q 957 1074 972 1082 q 928 1063 942 1067 q 903 1062 914 1060 q 893 1069 893 1064 l 893 1074 q 906 1136 904 1111 q 906 1177 908 1161 q 897 1203 903 1193 q 886 1218 890 1213 q 825 1177 867 1208 q 742 1097 783 1146 q 713 1068 722 1074 q 692 1065 703 1063 z "},"":{"ha":924,"x_min":-8,"x_max":1007,"o":"m 943 906 q 982 809 967 863 q 1002 697 997 756 q 999 577 1007 639 q 969 454 992 515 q 873 277 935 360 q 731 129 811 194 q 559 19 651 64 q 374 -44 467 -26 q 321 -61 350 -56 q 262 -67 292 -67 q 203 -64 232 -68 q 151 -49 174 -60 q 123 -37 132 -44 q 110 -22 114 -31 q 63 21 89 -6 q 17 92 36 47 q -5 201 -1 136 q 19 360 -8 267 q 99 540 46 453 q 225 703 153 626 q 386 844 297 779 q 575 957 475 908 q 653 1008 611 988 q 749 1036 696 1029 q 765 1038 757 1038 q 781 1038 772 1038 l 797 1042 q 843 1028 815 1047 q 895 983 871 1008 q 935 933 919 957 q 943 906 950 910 m 800 478 q 846 633 836 561 q 843 759 856 706 q 797 843 831 813 q 711 874 763 874 q 646 865 679 874 q 581 842 613 857 q 340 639 444 763 q 178 365 236 515 q 161 287 164 329 q 166 206 158 244 q 192 137 174 167 q 239 94 210 107 q 310 81 269 82 q 390 88 350 81 q 466 108 431 94 q 524 138 501 122 q 564 154 558 164 q 706 305 651 221 q 800 478 761 389 m 724 1189 q 759 1228 735 1211 q 806 1244 783 1244 q 843 1233 828 1244 q 874 1200 858 1221 q 908 1182 889 1179 q 933 1192 928 1185 q 954 1219 944 1207 q 975 1225 964 1232 q 983 1199 986 1218 q 975 1167 981 1181 q 960 1144 971 1154 q 934 1127 949 1133 q 901 1120 919 1121 q 867 1126 883 1119 q 841 1142 850 1133 q 826 1156 832 1150 q 815 1166 821 1163 q 797 1168 810 1169 q 777 1160 786 1167 q 760 1148 768 1154 q 744 1138 751 1142 q 732 1136 738 1133 q 715 1155 717 1143 q 724 1189 713 1167 z "},"":{"ha":924,"x_min":-8,"x_max":1028,"o":"m 943 906 q 982 809 967 863 q 1002 697 997 756 q 999 577 1007 639 q 969 454 992 515 q 873 277 935 360 q 731 129 811 194 q 559 19 651 64 q 374 -44 467 -26 q 321 -61 350 -56 q 262 -67 292 -67 q 203 -64 232 -68 q 151 -49 174 -60 q 123 -37 132 -44 q 110 -22 114 -31 q 63 21 89 -6 q 17 92 36 47 q -5 201 -1 136 q 19 360 -8 267 q 99 540 46 453 q 225 703 153 626 q 386 844 297 779 q 575 957 475 908 q 653 1008 611 988 q 749 1036 696 1029 q 765 1038 757 1038 q 781 1038 772 1038 l 797 1042 q 843 1028 815 1047 q 895 983 871 1008 q 935 933 919 957 q 943 906 950 910 m 800 478 q 846 633 836 561 q 843 759 856 706 q 797 843 831 813 q 711 874 763 874 q 646 865 679 874 q 581 842 613 857 q 340 639 444 763 q 178 365 236 515 q 161 287 164 329 q 166 206 158 244 q 192 137 174 167 q 239 94 210 107 q 310 81 269 82 q 390 88 350 81 q 466 108 431 94 q 524 138 501 122 q 564 154 558 164 q 706 305 651 221 q 800 478 761 389 m 774 1218 q 792 1219 781 1218 q 813 1219 803 1219 q 831 1215 824 1218 q 839 1204 839 1213 q 831 1174 839 1190 q 813 1144 824 1158 q 788 1117 801 1129 q 761 1101 775 1106 q 724 1101 735 1090 q 704 1131 714 1111 q 699 1174 696 1151 q 714 1210 701 1197 q 744 1222 729 1224 q 774 1218 760 1219 m 963 1218 q 981 1219 969 1218 q 1002 1219 992 1219 q 1020 1215 1013 1218 q 1028 1204 1028 1213 q 1020 1174 1028 1190 q 1001 1144 1013 1158 q 977 1117 990 1129 q 950 1101 964 1106 q 913 1101 924 1090 q 893 1131 903 1111 q 888 1174 885 1151 q 903 1210 890 1197 q 933 1222 918 1224 q 963 1218 949 1219 z "},"":{"ha":888,"x_min":-4,"x_max":1258,"o":"m 1172 1144 q 1197 1140 1181 1147 q 1227 1121 1213 1133 q 1250 1092 1242 1108 q 1251 1060 1258 1075 q 1226 1015 1246 1050 q 1176 928 1207 981 q 1108 811 1146 876 q 1031 674 1071 746 q 951 528 990 603 q 876 382 911 453 q 798 206 825 275 q 759 94 771 136 q 745 31 747 51 q 743 3 743 11 q 740 -15 742 -6 q 732 -34 738 -25 q 716 -49 726 -43 q 689 -53 706 -54 q 664 -42 678 -53 q 641 -8 650 -31 q 632 49 632 14 q 647 135 632 85 q 669 194 654 158 q 706 275 685 229 q 636 188 671 229 q 568 110 601 146 q 503 49 535 75 q 444 11 471 24 q 329 -28 383 -17 q 230 -37 275 -39 q 151 -19 185 -35 q 94 19 117 -4 q 36 106 61 57 q 3 215 11 156 q 9 342 -4 275 q 64 481 22 408 q 145 628 106 553 q 218 769 185 704 q 275 883 251 835 q 308 947 299 931 q 331 982 317 963 q 363 1019 346 1001 q 397 1051 379 1038 q 428 1072 414 1065 q 504 1076 474 1093 q 531 1019 535 1060 q 520 983 528 1000 q 501 952 513 967 q 476 922 489 938 q 450 889 463 907 q 422 847 442 876 q 375 776 401 817 q 319 687 349 735 q 263 592 290 639 q 214 505 236 546 q 181 436 192 464 q 165 340 164 394 q 181 238 165 286 q 226 156 196 190 q 297 119 256 121 q 397 144 339 117 q 527 231 456 172 q 682 377 599 289 q 856 585 765 465 q 902 676 879 632 q 944 758 925 721 q 978 824 963 796 q 1001 869 993 853 q 1044 956 1022 910 q 1089 1042 1067 1001 q 1133 1110 1111 1082 q 1172 1144 1154 1139 m 828 1157 q 862 1123 847 1138 q 874 1097 876 1108 q 850 1077 871 1082 q 804 1079 829 1072 q 754 1106 782 1085 q 697 1168 726 1128 q 668 1217 678 1196 q 665 1257 658 1238 q 681 1283 671 1274 q 702 1298 692 1293 q 721 1303 713 1303 q 732 1297 729 1303 q 733 1295 732 1296 q 733 1293 733 1294 q 753 1247 740 1269 q 781 1207 767 1225 q 808 1176 796 1189 q 828 1157 821 1163 z "},"":{"ha":888,"x_min":-4,"x_max":1258,"o":"m 1172 1144 q 1197 1140 1181 1147 q 1227 1121 1213 1133 q 1250 1092 1242 1108 q 1251 1060 1258 1075 q 1226 1015 1246 1050 q 1176 928 1207 981 q 1108 811 1146 876 q 1031 674 1071 746 q 951 528 990 603 q 876 382 911 453 q 798 206 825 275 q 759 94 771 136 q 745 31 747 51 q 743 3 743 11 q 740 -15 742 -6 q 732 -34 738 -25 q 716 -49 726 -43 q 689 -53 706 -54 q 664 -42 678 -53 q 641 -8 650 -31 q 632 49 632 14 q 647 135 632 85 q 669 194 654 158 q 706 275 685 229 q 636 188 671 229 q 568 110 601 146 q 503 49 535 75 q 444 11 471 24 q 329 -28 383 -17 q 230 -37 275 -39 q 151 -19 185 -35 q 94 19 117 -4 q 36 106 61 57 q 3 215 11 156 q 9 342 -4 275 q 64 481 22 408 q 145 628 106 553 q 218 769 185 704 q 275 883 251 835 q 308 947 299 931 q 331 982 317 963 q 363 1019 346 1001 q 397 1051 379 1038 q 428 1072 414 1065 q 504 1076 474 1093 q 531 1019 535 1060 q 520 983 528 1000 q 501 952 513 967 q 476 922 489 938 q 450 889 463 907 q 422 847 442 876 q 375 776 401 817 q 319 687 349 735 q 263 592 290 639 q 214 505 236 546 q 181 436 192 464 q 165 340 164 394 q 181 238 165 286 q 226 156 196 190 q 297 119 256 121 q 397 144 339 117 q 527 231 456 172 q 682 377 599 289 q 856 585 765 465 q 902 676 879 632 q 944 758 925 721 q 978 824 963 796 q 1001 869 993 853 q 1044 956 1022 910 q 1089 1042 1067 1001 q 1133 1110 1111 1082 q 1172 1144 1154 1139 m 814 1157 q 833 1176 819 1163 q 863 1207 847 1189 q 893 1247 878 1225 q 918 1293 908 1269 q 919 1297 918 1296 q 929 1303 921 1303 q 948 1298 938 1303 q 968 1283 958 1293 q 983 1257 978 1274 q 944 1168 994 1218 q 881 1112 908 1131 q 829 1088 853 1093 q 785 1081 806 1081 q 763 1097 764 1082 q 777 1123 763 1108 q 814 1157 792 1138 z "},"":{"ha":888,"x_min":-4,"x_max":1258,"o":"m 1172 1144 q 1197 1140 1181 1147 q 1227 1121 1213 1133 q 1250 1092 1242 1108 q 1251 1060 1258 1075 q 1226 1015 1246 1050 q 1176 928 1207 981 q 1108 811 1146 876 q 1031 674 1071 746 q 951 528 990 603 q 876 382 911 453 q 798 206 825 275 q 759 94 771 136 q 745 31 747 51 q 743 3 743 11 q 740 -15 742 -6 q 732 -34 738 -25 q 716 -49 726 -43 q 689 -53 706 -54 q 664 -42 678 -53 q 641 -8 650 -31 q 632 49 632 14 q 647 135 632 85 q 669 194 654 158 q 706 275 685 229 q 636 188 671 229 q 568 110 601 146 q 503 49 535 75 q 444 11 471 24 q 329 -28 383 -17 q 230 -37 275 -39 q 151 -19 185 -35 q 94 19 117 -4 q 36 106 61 57 q 3 215 11 156 q 9 342 -4 275 q 64 481 22 408 q 145 628 106 553 q 218 769 185 704 q 275 883 251 835 q 308 947 299 931 q 331 982 317 963 q 363 1019 346 1001 q 397 1051 379 1038 q 428 1072 414 1065 q 504 1076 474 1093 q 531 1019 535 1060 q 520 983 528 1000 q 501 952 513 967 q 476 922 489 938 q 450 889 463 907 q 422 847 442 876 q 375 776 401 817 q 319 687 349 735 q 263 592 290 639 q 214 505 236 546 q 181 436 192 464 q 165 340 164 394 q 181 238 165 286 q 226 156 196 190 q 297 119 256 121 q 397 144 339 117 q 527 231 456 172 q 682 377 599 289 q 856 585 765 465 q 902 676 879 632 q 944 758 925 721 q 978 824 963 796 q 1001 869 993 853 q 1044 956 1022 910 q 1089 1042 1067 1001 q 1133 1110 1111 1082 q 1172 1144 1154 1139 m 692 1079 q 681 1092 685 1082 q 681 1118 676 1101 q 703 1156 690 1135 q 726 1189 715 1176 q 801 1265 771 1239 q 857 1303 831 1290 q 889 1315 872 1310 q 924 1318 906 1321 q 949 1307 935 1317 q 975 1281 963 1297 q 996 1244 988 1265 q 1006 1197 1004 1222 q 1000 1151 1007 1174 q 982 1111 993 1129 q 957 1088 972 1096 q 928 1077 942 1081 q 903 1076 914 1074 q 893 1083 893 1078 l 893 1088 q 906 1150 904 1125 q 906 1191 908 1175 q 897 1217 903 1207 q 886 1232 890 1226 q 825 1191 867 1222 q 742 1111 783 1160 q 713 1082 722 1088 q 692 1079 703 1076 z "},"":{"ha":888,"x_min":-4,"x_max":1258,"o":"m 1172 1144 q 1197 1140 1181 1147 q 1227 1121 1213 1133 q 1250 1092 1242 1108 q 1251 1060 1258 1075 q 1226 1015 1246 1050 q 1176 928 1207 981 q 1108 811 1146 876 q 1031 674 1071 746 q 951 528 990 603 q 876 382 911 453 q 798 206 825 275 q 759 94 771 136 q 745 31 747 51 q 743 3 743 11 q 740 -15 742 -6 q 732 -34 738 -25 q 716 -49 726 -43 q 689 -53 706 -54 q 664 -42 678 -53 q 641 -8 650 -31 q 632 49 632 14 q 647 135 632 85 q 669 194 654 158 q 706 275 685 229 q 636 188 671 229 q 568 110 601 146 q 503 49 535 75 q 444 11 471 24 q 329 -28 383 -17 q 230 -37 275 -39 q 151 -19 185 -35 q 94 19 117 -4 q 36 106 61 57 q 3 215 11 156 q 9 342 -4 275 q 64 481 22 408 q 145 628 106 553 q 218 769 185 704 q 275 883 251 835 q 308 947 299 931 q 331 982 317 963 q 363 1019 346 1001 q 397 1051 379 1038 q 428 1072 414 1065 q 504 1076 474 1093 q 531 1019 535 1060 q 520 983 528 1000 q 501 952 513 967 q 476 922 489 938 q 450 889 463 907 q 422 847 442 876 q 375 776 401 817 q 319 687 349 735 q 263 592 290 639 q 214 505 236 546 q 181 436 192 464 q 165 340 164 394 q 181 238 165 286 q 226 156 196 190 q 297 119 256 121 q 397 144 339 117 q 527 231 456 172 q 682 377 599 289 q 856 585 765 465 q 902 676 879 632 q 944 758 925 721 q 978 824 963 796 q 1001 869 993 853 q 1044 956 1022 910 q 1089 1042 1067 1001 q 1133 1110 1111 1082 q 1172 1144 1154 1139 m 771 1268 q 789 1269 778 1268 q 810 1269 800 1269 q 828 1265 821 1268 q 836 1254 836 1263 q 828 1224 836 1240 q 810 1194 821 1208 q 785 1167 799 1179 q 758 1151 772 1156 q 722 1151 732 1140 q 701 1181 711 1161 q 696 1224 693 1201 q 711 1260 699 1247 q 742 1272 726 1274 q 771 1268 757 1269 m 960 1268 q 978 1269 967 1268 q 999 1269 989 1269 q 1017 1265 1010 1268 q 1025 1254 1025 1263 q 1017 1224 1025 1240 q 999 1194 1010 1208 q 974 1167 988 1179 q 947 1151 961 1156 q 910 1151 921 1140 q 890 1181 900 1161 q 885 1224 882 1201 q 900 1260 888 1247 q 931 1272 915 1274 q 960 1268 946 1269 z "},"":{"ha":608,"x_min":-1,"x_max":854,"o":"m 831 1092 q 839 988 854 1054 q 779 840 824 921 q 740 758 764 814 q 685 631 715 701 q 622 482 656 560 q 558 333 589 404 q 499 206 526 263 q 453 122 472 150 q 273 -109 338 -40 q 179 -169 208 -178 q 143 -153 164 -165 q 103 -127 122 -142 q 70 -99 83 -112 q 60 -78 57 -85 q 81 -53 64 -64 q 128 -18 97 -42 q 203 49 158 6 q 311 172 249 93 q 385 288 346 218 q 465 437 425 357 q 542 601 504 517 q 613 764 579 686 q 550 671 582 718 q 490 581 518 624 q 438 503 461 538 q 400 450 414 469 q 360 401 378 419 q 328 373 343 383 q 299 360 314 363 q 269 358 285 357 q 242 361 257 358 q 213 372 228 364 q 185 397 199 381 q 161 442 171 413 q 145 493 154 461 q 126 563 136 525 q 107 644 117 601 q 88 729 97 688 q 40 938 64 826 q 7 971 15 949 q 2 1017 -1 993 q 16 1061 6 1042 q 38 1088 26 1081 q 80 1092 60 1099 q 128 1072 100 1086 q 197 1033 174 1051 q 230 998 221 1014 q 239 967 239 982 q 236 939 239 953 q 237 911 235 932 q 243 860 239 890 q 253 794 247 831 q 267 722 260 758 q 303 532 282 636 q 342 524 314 507 q 408 583 371 540 q 488 683 446 625 q 570 797 531 740 q 641 899 610 853 q 689 963 672 944 q 693 967 692 965 q 697 972 694 969 q 722 1032 713 1008 q 733 1063 731 1056 q 778 1116 750 1103 q 831 1092 807 1129 m 429 1157 q 449 1176 435 1163 q 478 1207 463 1189 q 508 1247 493 1225 q 533 1293 524 1269 q 535 1297 533 1296 q 544 1303 536 1303 q 563 1298 553 1303 q 583 1283 574 1293 q 599 1257 593 1274 q 560 1168 610 1218 q 496 1112 524 1131 q 444 1088 468 1093 q 400 1081 421 1081 q 378 1097 379 1082 q 392 1123 378 1108 q 429 1157 407 1138 z "},"":{"ha":594,"x_min":-3,"x_max":753,"o":"m 356 357 q 318 341 349 357 q 253 302 288 325 q 190 254 218 279 q 163 214 163 229 q 183 222 165 214 q 227 242 201 231 q 281 265 253 253 q 335 288 310 278 q 378 305 361 299 q 397 310 394 311 q 417 280 413 299 q 410 247 422 261 q 392 226 401 238 q 378 207 383 215 q 375 197 374 199 q 390 203 376 194 q 424 219 399 208 q 481 242 449 229 q 552 269 514 256 q 625 297 590 283 q 688 319 660 310 q 728 333 715 329 q 750 333 747 340 q 742 311 753 326 q 712 276 732 296 q 665 240 692 257 q 593 198 639 224 q 499 147 547 172 q 410 103 451 122 q 354 78 369 83 q 317 73 339 72 q 278 83 296 74 q 253 111 261 93 q 254 157 244 129 q 178 122 217 135 q 115 99 139 108 q 82 99 103 94 q 42 117 61 103 q 10 154 22 131 q 3 213 -3 178 q 37 281 8 247 q 101 342 65 314 q 170 388 136 369 q 221 411 204 407 q 259 417 238 415 q 302 417 281 419 q 344 407 324 415 q 378 383 364 399 q 377 365 385 376 q 356 357 369 354 m 358 540 q 392 506 378 521 q 404 481 407 492 q 381 460 401 465 q 335 463 360 456 q 285 490 313 468 q 228 551 257 511 q 199 600 208 579 q 196 640 189 621 q 212 667 201 657 q 233 681 222 676 q 251 686 243 686 q 263 681 260 686 q 263 678 263 679 q 264 676 264 678 q 284 631 271 653 q 312 590 297 608 q 339 559 326 572 q 358 540 351 546 z "},"":{"ha":594,"x_min":-3,"x_max":753,"o":"m 356 357 q 318 341 349 357 q 253 302 288 325 q 190 254 218 279 q 163 214 163 229 q 183 222 165 214 q 227 242 201 231 q 281 265 253 253 q 335 288 310 278 q 378 305 361 299 q 397 310 394 311 q 417 280 413 299 q 410 247 422 261 q 392 226 401 238 q 378 207 383 215 q 375 197 374 199 q 390 203 376 194 q 424 219 399 208 q 481 242 449 229 q 552 269 514 256 q 625 297 590 283 q 688 319 660 310 q 728 333 715 329 q 750 333 747 340 q 742 311 753 326 q 712 276 732 296 q 665 240 692 257 q 593 198 639 224 q 499 147 547 172 q 410 103 451 122 q 354 78 369 83 q 317 73 339 72 q 278 83 296 74 q 253 111 261 93 q 254 157 244 129 q 178 122 217 135 q 115 99 139 108 q 82 99 103 94 q 42 117 61 103 q 10 154 22 131 q 3 213 -3 178 q 37 281 8 247 q 101 342 65 314 q 170 388 136 369 q 221 411 204 407 q 259 417 238 415 q 302 417 281 419 q 344 407 324 415 q 378 383 364 399 q 377 365 385 376 q 356 357 369 354 m 290 538 q 310 556 296 543 q 339 588 324 569 q 369 628 354 606 q 394 674 385 650 q 396 678 394 676 q 406 683 397 683 q 424 678 414 683 q 444 664 435 674 q 460 638 454 654 q 421 549 471 599 q 357 492 385 511 q 306 468 329 474 q 261 462 282 461 q 239 478 240 463 q 253 503 239 489 q 290 538 268 518 z "},"":{"ha":594,"x_min":-3,"x_max":753,"o":"m 356 357 q 318 341 349 357 q 253 302 288 325 q 190 254 218 279 q 163 214 163 229 q 183 222 165 214 q 227 242 201 231 q 281 265 253 253 q 335 288 310 278 q 378 305 361 299 q 397 310 394 311 q 417 280 413 299 q 410 247 422 261 q 392 226 401 238 q 378 207 383 215 q 375 197 374 199 q 390 203 376 194 q 424 219 399 208 q 481 242 449 229 q 552 269 514 256 q 625 297 590 283 q 688 319 660 310 q 728 333 715 329 q 750 333 747 340 q 742 311 753 326 q 712 276 732 296 q 665 240 692 257 q 593 198 639 224 q 499 147 547 172 q 410 103 451 122 q 354 78 369 83 q 317 73 339 72 q 278 83 296 74 q 253 111 261 93 q 254 157 244 129 q 178 122 217 135 q 115 99 139 108 q 82 99 103 94 q 42 117 61 103 q 10 154 22 131 q 3 213 -3 178 q 37 281 8 247 q 101 342 65 314 q 170 388 136 369 q 221 411 204 407 q 259 417 238 415 q 302 417 281 419 q 344 407 324 415 q 378 383 364 399 q 377 365 385 376 q 356 357 369 354 m 161 493 q 150 506 154 496 q 150 532 146 515 q 172 569 160 549 q 196 603 185 590 q 270 678 240 653 q 326 717 300 704 q 358 729 342 724 q 393 732 375 735 q 418 721 404 731 q 444 695 432 711 q 465 658 457 679 q 475 611 474 636 q 469 565 476 588 q 451 525 463 543 q 426 502 442 510 q 397 491 411 494 q 373 490 383 488 q 363 497 363 492 l 363 501 q 376 564 374 539 q 375 605 378 589 q 366 631 372 621 q 356 646 360 640 q 294 605 336 636 q 211 525 253 574 q 182 496 192 501 q 161 493 172 490 z "},"":{"ha":594,"x_min":-3,"x_max":753,"o":"m 356 357 q 318 341 349 357 q 253 302 288 325 q 190 254 218 279 q 163 214 163 229 q 183 222 165 214 q 227 242 201 231 q 281 265 253 253 q 335 288 310 278 q 378 305 361 299 q 397 310 394 311 q 417 280 413 299 q 410 247 422 261 q 392 226 401 238 q 378 207 383 215 q 375 197 374 199 q 390 203 376 194 q 424 219 399 208 q 481 242 449 229 q 552 269 514 256 q 625 297 590 283 q 688 319 660 310 q 728 333 715 329 q 750 333 747 340 q 742 311 753 326 q 712 276 732 296 q 665 240 692 257 q 593 198 639 224 q 499 147 547 172 q 410 103 451 122 q 354 78 369 83 q 317 73 339 72 q 278 83 296 74 q 253 111 261 93 q 254 157 244 129 q 178 122 217 135 q 115 99 139 108 q 82 99 103 94 q 42 117 61 103 q 10 154 22 131 q 3 213 -3 178 q 37 281 8 247 q 101 342 65 314 q 170 388 136 369 q 221 411 204 407 q 259 417 238 415 q 302 417 281 419 q 344 407 324 415 q 378 383 364 399 q 377 365 385 376 q 356 357 369 354 m 185 557 q 220 596 196 579 q 267 613 244 613 q 304 601 289 613 q 335 568 319 589 q 369 550 350 547 q 394 560 389 553 q 415 588 406 575 q 436 593 425 600 q 444 567 447 586 q 436 535 442 549 q 421 512 432 522 q 395 495 410 501 q 363 488 381 489 q 328 494 344 488 q 302 510 311 501 q 288 524 293 518 q 276 534 282 531 q 258 536 271 538 q 238 528 247 535 q 221 516 229 522 q 206 506 213 510 q 193 504 199 501 q 176 523 178 511 q 185 557 174 535 z "},"":{"ha":594,"x_min":-3,"x_max":753,"o":"m 356 357 q 318 341 349 357 q 253 302 288 325 q 190 254 218 279 q 163 214 163 229 q 183 222 165 214 q 227 242 201 231 q 281 265 253 253 q 335 288 310 278 q 378 305 361 299 q 397 310 394 311 q 417 280 413 299 q 410 247 422 261 q 392 226 401 238 q 378 207 383 215 q 375 197 374 199 q 390 203 376 194 q 424 219 399 208 q 481 242 449 229 q 552 269 514 256 q 625 297 590 283 q 688 319 660 310 q 728 333 715 329 q 750 333 747 340 q 742 311 753 326 q 712 276 732 296 q 665 240 692 257 q 593 198 639 224 q 499 147 547 172 q 410 103 451 122 q 354 78 369 83 q 317 73 339 72 q 278 83 296 74 q 253 111 261 93 q 254 157 244 129 q 178 122 217 135 q 115 99 139 108 q 82 99 103 94 q 42 117 61 103 q 10 154 22 131 q 3 213 -3 178 q 37 281 8 247 q 101 342 65 314 q 170 388 136 369 q 221 411 204 407 q 259 417 238 415 q 302 417 281 419 q 344 407 324 415 q 378 383 364 399 q 377 365 385 376 q 356 357 369 354 m 221 626 q 239 627 228 626 q 260 627 250 628 q 278 624 271 626 q 286 613 286 621 q 278 583 286 599 q 260 552 271 567 q 235 526 249 538 q 208 510 222 514 q 172 509 182 499 q 151 539 161 519 q 146 583 143 560 q 161 618 149 606 q 192 630 176 632 q 221 626 207 628 m 410 626 q 428 627 417 626 q 449 627 439 628 q 467 624 460 626 q 475 613 475 621 q 467 583 475 599 q 449 552 460 567 q 424 526 438 538 q 397 510 411 514 q 360 509 371 499 q 340 539 350 519 q 335 583 332 560 q 350 618 338 606 q 381 630 365 632 q 410 626 396 628 z "},"":{"ha":594,"x_min":-3,"x_max":753,"o":"m 356 357 q 318 341 349 357 q 253 302 288 325 q 190 254 218 279 q 163 214 163 229 q 183 222 165 214 q 227 242 201 231 q 281 265 253 253 q 335 288 310 278 q 378 305 361 299 q 397 310 394 311 q 417 280 413 299 q 410 247 422 261 q 392 226 401 238 q 378 207 383 215 q 375 197 374 199 q 390 203 376 194 q 424 219 399 208 q 481 242 449 229 q 552 269 514 256 q 625 297 590 283 q 688 319 660 310 q 728 333 715 329 q 750 333 747 340 q 742 311 753 326 q 712 276 732 296 q 665 240 692 257 q 593 198 639 224 q 499 147 547 172 q 410 103 451 122 q 354 78 369 83 q 317 73 339 72 q 278 83 296 74 q 253 111 261 93 q 254 157 244 129 q 178 122 217 135 q 115 99 139 108 q 82 99 103 94 q 42 117 61 103 q 10 154 22 131 q 3 213 -3 178 q 37 281 8 247 q 101 342 65 314 q 170 388 136 369 q 221 411 204 407 q 259 417 238 415 q 302 417 281 419 q 344 407 324 415 q 378 383 364 399 q 377 365 385 376 q 356 357 369 354 m 386 694 q 405 684 393 693 q 426 659 417 675 q 437 622 435 643 q 426 575 439 601 q 392 527 414 549 q 343 491 369 506 q 290 469 317 476 q 243 467 263 463 q 215 485 224 471 q 208 516 207 499 q 215 551 208 533 q 233 581 222 569 q 261 610 244 593 q 296 642 278 626 q 331 670 314 658 q 360 685 347 682 l 369 688 q 374 693 368 690 q 386 694 381 696 m 363 578 q 377 603 371 588 q 388 638 383 618 q 353 610 371 625 q 322 581 336 594 q 297 556 307 567 q 285 539 286 544 q 290 534 282 533 q 311 540 299 535 q 338 556 324 546 q 363 578 351 565 z "},"":{"ha":493,"x_min":-15,"x_max":546,"o":"m 485 213 q 533 231 521 233 q 543 217 546 229 q 527 187 540 204 q 499 160 514 169 q 435 124 483 150 q 329 70 388 99 q 213 17 271 42 q 118 -15 154 -7 q 54 -15 81 -24 q 12 11 28 -7 q -10 52 -4 29 q -11 96 -15 75 q 5 147 -7 117 q 35 211 17 178 q 78 278 54 244 q 131 338 103 311 q 181 378 157 363 q 226 400 206 393 q 262 409 246 407 q 289 410 278 411 q 319 397 303 408 q 351 367 336 385 q 376 328 365 350 q 389 285 386 306 q 377 244 390 264 q 343 208 364 225 q 298 178 322 192 q 253 156 274 165 q 213 136 232 146 q 178 124 194 126 q 145 126 161 121 q 115 154 129 132 q 106 138 111 149 q 103 118 101 128 q 115 101 104 108 q 153 96 126 94 q 221 108 179 97 q 309 134 263 118 q 402 171 356 150 q 485 213 449 192 m 265 293 q 216 266 233 281 q 178 226 199 251 q 201 235 188 229 q 228 249 214 240 q 252 269 242 258 q 265 293 263 281 m 317 547 q 351 513 336 528 q 363 488 365 499 q 339 467 360 472 q 293 469 318 463 q 243 497 271 475 q 186 558 215 518 q 157 607 167 586 q 154 647 147 628 q 170 674 160 664 q 191 688 181 683 q 210 693 201 693 q 221 688 218 693 q 222 685 221 686 q 222 683 222 685 q 242 638 229 660 q 270 597 256 615 q 297 566 285 579 q 317 547 310 553 z "},"":{"ha":493,"x_min":-15,"x_max":546,"o":"m 485 213 q 533 231 521 233 q 543 217 546 229 q 527 187 540 204 q 499 160 514 169 q 435 124 483 150 q 329 70 388 99 q 213 17 271 42 q 118 -15 154 -7 q 54 -15 81 -24 q 12 11 28 -7 q -10 52 -4 29 q -11 96 -15 75 q 5 147 -7 117 q 35 211 17 178 q 78 278 54 244 q 131 338 103 311 q 181 378 157 363 q 226 400 206 393 q 262 409 246 407 q 289 410 278 411 q 319 397 303 408 q 351 367 336 385 q 376 328 365 350 q 389 285 386 306 q 377 244 390 264 q 343 208 364 225 q 298 178 322 192 q 253 156 274 165 q 213 136 232 146 q 178 124 194 126 q 145 126 161 121 q 115 154 129 132 q 106 138 111 149 q 103 118 101 128 q 115 101 104 108 q 153 96 126 94 q 221 108 179 97 q 309 134 263 118 q 402 171 356 150 q 485 213 449 192 m 265 293 q 216 266 233 281 q 178 226 199 251 q 201 235 188 229 q 228 249 214 240 q 252 269 242 258 q 265 293 263 281 m 281 540 q 300 559 286 546 q 329 590 314 572 q 360 631 344 608 q 385 676 375 653 q 386 681 385 679 q 396 686 388 686 q 415 681 404 686 q 435 667 425 676 q 450 640 444 657 q 411 551 461 601 q 347 495 375 514 q 296 471 319 476 q 251 465 272 464 q 229 481 231 465 q 244 506 229 492 q 281 540 258 521 z "},"":{"ha":493,"x_min":-15,"x_max":546,"o":"m 485 213 q 533 231 521 233 q 543 217 546 229 q 527 187 540 204 q 499 160 514 169 q 435 124 483 150 q 329 70 388 99 q 213 17 271 42 q 118 -15 154 -7 q 54 -15 81 -24 q 12 11 28 -7 q -10 52 -4 29 q -11 96 -15 75 q 5 147 -7 117 q 35 211 17 178 q 78 278 54 244 q 131 338 103 311 q 181 378 157 363 q 226 400 206 393 q 262 409 246 407 q 289 410 278 411 q 319 397 303 408 q 351 367 336 385 q 376 328 365 350 q 389 285 386 306 q 377 244 390 264 q 343 208 364 225 q 298 178 322 192 q 253 156 274 165 q 213 136 232 146 q 178 124 194 126 q 145 126 161 121 q 115 154 129 132 q 106 138 111 149 q 103 118 101 128 q 115 101 104 108 q 153 96 126 94 q 221 108 179 97 q 309 134 263 118 q 402 171 356 150 q 485 213 449 192 m 265 293 q 216 266 233 281 q 178 226 199 251 q 201 235 188 229 q 228 249 214 240 q 252 269 242 258 q 265 293 263 281 m 160 453 q 149 465 153 456 q 149 492 144 475 q 171 529 158 508 q 194 563 183 550 q 269 638 239 613 q 325 676 299 664 q 357 689 340 683 q 392 692 374 694 q 417 681 403 690 q 443 655 431 671 q 464 617 456 639 q 474 571 472 596 q 468 525 475 547 q 450 485 461 503 q 425 462 440 469 q 396 451 410 454 q 372 449 382 447 q 361 457 361 451 l 361 461 q 374 524 372 499 q 374 565 376 549 q 365 590 371 581 q 354 606 358 600 q 293 565 335 596 q 210 485 251 533 q 181 456 190 461 q 160 453 171 450 z "},"":{"ha":493,"x_min":-15,"x_max":546,"o":"m 485 213 q 533 231 521 233 q 543 217 546 229 q 527 187 540 204 q 499 160 514 169 q 435 124 483 150 q 329 70 388 99 q 213 17 271 42 q 118 -15 154 -7 q 54 -15 81 -24 q 12 11 28 -7 q -10 52 -4 29 q -11 96 -15 75 q 5 147 -7 117 q 35 211 17 178 q 78 278 54 244 q 131 338 103 311 q 181 378 157 363 q 226 400 206 393 q 262 409 246 407 q 289 410 278 411 q 319 397 303 408 q 351 367 336 385 q 376 328 365 350 q 389 285 386 306 q 377 244 390 264 q 343 208 364 225 q 298 178 322 192 q 253 156 274 165 q 213 136 232 146 q 178 124 194 126 q 145 126 161 121 q 115 154 129 132 q 106 138 111 149 q 103 118 101 128 q 115 101 104 108 q 153 96 126 94 q 221 108 179 97 q 309 134 263 118 q 402 171 356 150 q 485 213 449 192 m 265 293 q 216 266 233 281 q 178 226 199 251 q 201 235 188 229 q 228 249 214 240 q 252 269 242 258 q 265 293 263 281 m 224 594 q 242 595 231 594 q 263 595 253 596 q 281 592 274 594 q 289 581 289 589 q 281 551 289 567 q 263 520 274 535 q 238 494 251 506 q 211 478 225 482 q 174 477 185 467 q 154 507 164 488 q 149 551 146 528 q 164 586 151 574 q 194 598 179 600 q 224 594 210 596 m 413 594 q 431 595 419 594 q 452 595 442 596 q 470 592 463 594 q 478 581 478 589 q 470 551 478 567 q 451 520 463 535 q 427 494 440 506 q 400 478 414 482 q 363 477 374 467 q 343 507 353 488 q 338 551 335 528 q 353 586 340 574 q 383 598 368 600 q 413 594 399 596 z "},"":{"ha":351,"x_min":8,"x_max":492,"o":"m 444 257 q 474 269 463 268 q 488 263 485 269 q 485 243 492 256 q 461 215 478 231 q 423 184 450 206 q 362 137 396 163 q 289 84 328 111 q 215 33 250 57 q 152 -7 181 10 q 111 -26 124 -24 q 72 -26 92 -32 q 38 -6 53 -21 q 16 33 24 10 q 11 86 8 57 q 26 153 14 115 q 53 231 38 192 q 87 303 69 269 q 118 353 104 336 q 157 393 146 388 q 176 399 168 399 q 200 389 186 399 q 226 366 214 379 q 246 339 238 353 q 253 317 254 325 q 243 294 251 300 q 215 278 235 289 q 199 258 210 274 q 176 221 188 242 q 153 176 164 200 q 137 134 143 153 q 131 104 131 115 q 140 96 131 93 q 198 122 156 100 q 290 170 240 144 q 383 221 339 196 q 444 257 426 246 z "},"":{"ha":351,"x_min":8,"x_max":492,"o":"m 444 257 q 474 269 463 268 q 488 263 485 269 q 485 243 492 256 q 461 215 478 231 q 423 184 450 206 q 362 137 396 163 q 289 84 328 111 q 215 33 250 57 q 152 -7 181 10 q 111 -26 124 -24 q 72 -26 92 -32 q 38 -6 53 -21 q 16 33 24 10 q 11 86 8 57 q 26 153 14 115 q 53 231 38 192 q 87 303 69 269 q 118 353 104 336 q 157 393 146 388 q 176 399 168 399 q 200 389 186 399 q 226 366 214 379 q 246 339 238 353 q 253 317 254 325 q 243 294 251 300 q 215 278 235 289 q 199 258 210 274 q 176 221 188 242 q 153 176 164 200 q 137 134 143 153 q 131 104 131 115 q 140 96 131 93 q 198 122 156 100 q 290 170 240 144 q 383 221 339 196 q 444 257 426 246 m 251 583 q 285 549 271 564 q 297 524 300 535 q 274 503 294 508 q 228 506 253 499 q 178 533 206 511 q 121 594 150 554 q 92 643 101 622 q 89 683 82 664 q 105 710 94 700 q 126 724 115 719 q 144 729 136 729 q 156 724 153 729 q 156 722 156 722 q 157 719 157 721 q 177 674 164 696 q 205 633 190 651 q 232 602 219 615 q 251 583 244 589 z "},"":{"ha":351,"x_min":8,"x_max":492,"o":"m 444 257 q 474 269 463 268 q 488 263 485 269 q 485 243 492 256 q 461 215 478 231 q 423 184 450 206 q 362 137 396 163 q 289 84 328 111 q 215 33 250 57 q 152 -7 181 10 q 111 -26 124 -24 q 72 -26 92 -32 q 38 -6 53 -21 q 16 33 24 10 q 11 86 8 57 q 26 153 14 115 q 53 231 38 192 q 87 303 69 269 q 118 353 104 336 q 157 393 146 388 q 176 399 168 399 q 200 389 186 399 q 226 366 214 379 q 246 339 238 353 q 253 317 254 325 q 243 294 251 300 q 215 278 235 289 q 199 258 210 274 q 176 221 188 242 q 153 176 164 200 q 137 134 143 153 q 131 104 131 115 q 140 96 131 93 q 198 122 156 100 q 290 170 240 144 q 383 221 339 196 q 444 257 426 246 m 253 592 q 272 610 258 597 q 301 642 286 624 q 332 682 317 660 q 357 728 347 704 q 358 732 357 731 q 368 738 360 738 q 387 733 376 738 q 407 718 397 728 q 422 692 417 708 q 383 603 433 653 q 319 547 347 565 q 268 522 292 528 q 224 516 244 515 q 201 532 203 517 q 216 558 201 543 q 253 592 231 572 z "},"":{"ha":351,"x_min":8,"x_max":492,"o":"m 444 257 q 474 269 463 268 q 488 263 485 269 q 485 243 492 256 q 461 215 478 231 q 423 184 450 206 q 362 137 396 163 q 289 84 328 111 q 215 33 250 57 q 152 -7 181 10 q 111 -26 124 -24 q 72 -26 92 -32 q 38 -6 53 -21 q 16 33 24 10 q 11 86 8 57 q 26 153 14 115 q 53 231 38 192 q 87 303 69 269 q 118 353 104 336 q 157 393 146 388 q 176 399 168 399 q 200 389 186 399 q 226 366 214 379 q 246 339 238 353 q 253 317 254 325 q 243 294 251 300 q 215 278 235 289 q 199 258 210 274 q 176 221 188 242 q 153 176 164 200 q 137 134 143 153 q 131 104 131 115 q 140 96 131 93 q 198 122 156 100 q 290 170 240 144 q 383 221 339 196 q 444 257 426 246 m 99 501 q 88 514 92 504 q 88 540 83 524 q 110 578 97 557 q 133 611 122 599 q 208 687 178 661 q 264 725 238 713 q 296 738 279 732 q 331 740 313 743 q 356 729 342 739 q 382 703 369 719 q 403 666 394 688 q 413 619 411 644 q 407 574 414 596 q 389 533 400 551 q 364 510 379 518 q 335 499 349 503 q 310 498 321 496 q 300 506 300 500 l 300 510 q 313 572 311 547 q 313 613 315 597 q 303 639 310 629 q 293 654 297 649 q 232 613 274 644 q 149 533 190 582 q 119 504 129 510 q 99 501 110 499 z "},"":{"ha":351,"x_min":8,"x_max":492,"o":"m 444 257 q 474 269 463 268 q 488 263 485 269 q 485 243 492 256 q 461 215 478 231 q 423 184 450 206 q 362 137 396 163 q 289 84 328 111 q 215 33 250 57 q 152 -7 181 10 q 111 -26 124 -24 q 72 -26 92 -32 q 38 -6 53 -21 q 16 33 24 10 q 11 86 8 57 q 26 153 14 115 q 53 231 38 192 q 87 303 69 269 q 118 353 104 336 q 157 393 146 388 q 176 399 168 399 q 200 389 186 399 q 226 366 214 379 q 246 339 238 353 q 253 317 254 325 q 243 294 251 300 q 215 278 235 289 q 199 258 210 274 q 176 221 188 242 q 153 176 164 200 q 137 134 143 153 q 131 104 131 115 q 140 96 131 93 q 198 122 156 100 q 290 170 240 144 q 383 221 339 196 q 444 257 426 246 m 147 631 q 165 631 154 631 q 187 631 176 632 q 205 628 197 631 q 213 617 213 625 q 205 587 213 603 q 186 556 197 571 q 162 530 175 542 q 135 514 149 518 q 98 513 108 503 q 78 543 88 524 q 72 587 69 564 q 88 622 75 610 q 118 634 103 636 q 147 631 133 632 m 336 631 q 354 631 343 631 q 376 631 365 632 q 394 628 386 631 q 401 617 401 625 q 394 587 401 603 q 375 556 386 571 q 351 530 364 542 q 324 514 338 518 q 287 513 297 503 q 267 543 276 524 q 261 587 258 564 q 276 622 264 610 q 307 634 292 636 q 336 631 322 632 z "},"":{"ha":703,"x_min":0,"x_max":732,"o":"m 271 493 q 295 467 286 485 q 297 439 304 450 q 283 419 294 435 q 256 374 272 404 q 217 294 239 343 q 169 172 194 244 q 258 248 211 203 q 350 335 306 293 q 431 405 394 376 q 490 432 468 433 q 551 399 535 429 q 543 315 567 368 q 522 253 531 288 q 511 190 514 219 q 513 142 508 161 q 531 128 517 124 q 567 144 544 132 q 616 170 590 156 q 666 199 642 185 q 707 225 690 214 q 728 228 724 235 q 725 206 732 222 q 701 165 718 189 q 654 114 683 140 q 599 65 625 88 q 549 26 574 42 q 501 3 525 11 q 451 0 478 -4 q 411 40 425 4 q 394 122 397 75 q 399 215 392 168 q 422 290 406 263 q 392 272 415 294 q 337 213 368 249 q 270 134 306 176 q 204 58 235 92 q 150 6 172 25 q 110 -24 128 -14 q 79 -35 93 -33 q 51 -36 65 -37 q 26 -17 38 -35 q 8 23 15 0 q 1 69 1 46 q 8 106 0 93 q 24 131 17 119 q 41 157 32 142 q 62 197 50 172 q 89 263 74 222 q 119 338 104 301 q 144 406 133 375 q 164 458 156 436 q 175 486 172 479 q 208 507 182 501 q 271 493 235 513 m 303 636 q 338 675 314 658 q 385 692 363 692 q 422 680 407 692 q 453 647 438 668 q 488 629 468 626 q 513 639 507 632 q 533 667 524 654 q 554 672 543 679 q 563 647 565 665 q 554 614 560 628 q 539 591 550 601 q 513 574 528 581 q 481 567 499 568 q 446 574 463 567 q 420 589 429 581 q 406 603 411 597 q 394 613 400 610 q 376 615 389 617 q 356 608 365 614 q 339 595 347 601 q 324 585 331 589 q 311 583 317 581 q 294 602 296 590 q 303 636 292 614 z "},"":{"ha":339,"x_min":-14,"x_max":338,"o":"m 217 397 q 247 372 225 390 q 291 326 269 354 q 325 263 313 299 q 326 185 338 226 q 286 108 315 143 q 219 48 257 72 q 141 13 182 24 q 67 10 100 3 q 15 39 33 17 q -8 90 -3 61 q -8 147 -14 118 q 13 194 -1 175 q 47 241 26 214 q 92 294 68 268 q 138 338 115 319 q 181 361 161 357 q 188 363 185 363 q 196 365 192 364 q 181 382 190 375 q 165 402 164 396 q 174 409 165 408 q 195 406 182 410 q 217 397 208 403 m 126 144 q 133 139 125 138 q 155 147 142 140 q 182 164 168 153 q 206 189 196 175 q 217 217 213 199 q 221 256 221 235 q 190 225 206 242 q 160 192 174 208 q 137 163 146 175 q 126 144 128 150 m 258 542 q 292 508 278 522 q 304 482 307 493 q 281 462 301 467 q 235 464 260 457 q 185 491 213 469 q 128 553 157 513 q 99 601 108 581 q 96 642 89 622 q 112 668 101 658 q 133 683 122 678 q 151 688 143 688 q 163 682 160 688 q 163 680 163 681 q 164 678 164 679 q 184 632 171 654 q 212 592 197 610 q 239 560 226 574 q 258 542 251 547 z "},"":{"ha":339,"x_min":-14,"x_max":440,"o":"m 217 397 q 247 372 225 390 q 291 326 269 354 q 325 263 313 299 q 326 185 338 226 q 286 108 315 143 q 219 48 257 72 q 141 13 182 24 q 67 10 100 3 q 15 39 33 17 q -8 90 -3 61 q -8 147 -14 118 q 13 194 -1 175 q 47 241 26 214 q 92 294 68 268 q 138 338 115 319 q 181 361 161 357 q 188 363 185 363 q 196 365 192 364 q 181 382 190 375 q 165 402 164 396 q 174 409 165 408 q 195 406 182 410 q 217 397 208 403 m 126 144 q 133 139 125 138 q 155 147 142 140 q 182 164 168 153 q 206 189 196 175 q 217 217 213 199 q 221 256 221 235 q 190 225 206 242 q 160 192 174 208 q 137 163 146 175 q 126 144 128 150 m 260 539 q 279 558 265 544 q 308 589 293 571 q 339 629 324 607 q 364 675 354 651 q 365 679 364 678 q 375 685 367 685 q 394 680 383 685 q 414 665 404 675 q 429 639 424 656 q 390 550 440 600 q 326 494 354 513 q 275 469 299 475 q 231 463 251 463 q 208 479 210 464 q 223 505 208 490 q 260 539 238 519 z "},"":{"ha":339,"x_min":-14,"x_max":425,"o":"m 217 397 q 247 372 225 390 q 291 326 269 354 q 325 263 313 299 q 326 185 338 226 q 286 108 315 143 q 219 48 257 72 q 141 13 182 24 q 67 10 100 3 q 15 39 33 17 q -8 90 -3 61 q -8 147 -14 118 q 13 194 -1 175 q 47 241 26 214 q 92 294 68 268 q 138 338 115 319 q 181 361 161 357 q 188 363 185 363 q 196 365 192 364 q 181 382 190 375 q 165 402 164 396 q 174 409 165 408 q 195 406 182 410 q 217 397 208 403 m 126 144 q 133 139 125 138 q 155 147 142 140 q 182 164 168 153 q 206 189 196 175 q 217 217 213 199 q 221 256 221 235 q 190 225 206 242 q 160 192 174 208 q 137 163 146 175 q 126 144 128 150 m 110 453 q 99 465 103 456 q 99 492 94 475 q 121 529 108 508 q 144 563 133 550 q 219 638 189 613 q 275 676 249 664 q 307 689 290 683 q 342 692 324 694 q 367 681 353 690 q 393 655 381 671 q 414 617 406 639 q 424 571 422 596 q 418 525 425 547 q 400 485 411 503 q 375 462 390 469 q 346 451 360 454 q 322 449 332 447 q 311 457 311 451 l 311 461 q 324 524 322 499 q 324 565 326 549 q 315 590 321 581 q 304 606 308 600 q 243 565 285 596 q 160 485 201 533 q 131 456 140 461 q 110 453 121 450 z "},"":{"ha":339,"x_min":-14,"x_max":400,"o":"m 217 397 q 247 372 225 390 q 291 326 269 354 q 325 263 313 299 q 326 185 338 226 q 286 108 315 143 q 219 48 257 72 q 141 13 182 24 q 67 10 100 3 q 15 39 33 17 q -8 90 -3 61 q -8 147 -14 118 q 13 194 -1 175 q 47 241 26 214 q 92 294 68 268 q 138 338 115 319 q 181 361 161 357 q 188 363 185 363 q 196 365 192 364 q 181 382 190 375 q 165 402 164 396 q 174 409 165 408 q 195 406 182 410 q 217 397 208 403 m 126 144 q 133 139 125 138 q 155 147 142 140 q 182 164 168 153 q 206 189 196 175 q 217 217 213 199 q 221 256 221 235 q 190 225 206 242 q 160 192 174 208 q 137 163 146 175 q 126 144 128 150 m 138 568 q 173 607 149 590 q 219 624 197 624 q 257 612 242 624 q 288 579 272 600 q 322 561 303 558 q 347 571 342 564 q 368 599 358 586 q 389 604 378 611 q 397 578 400 597 q 389 546 394 560 q 374 523 385 533 q 348 506 363 513 q 315 499 333 500 q 281 506 297 499 q 255 521 264 513 q 240 535 246 529 q 229 545 235 542 q 211 547 224 549 q 191 540 200 546 q 174 527 182 533 q 158 517 165 521 q 146 515 151 513 q 128 534 131 522 q 138 568 126 546 z "},"":{"ha":339,"x_min":-14,"x_max":432,"o":"m 217 397 q 247 372 225 390 q 291 326 269 354 q 325 263 313 299 q 326 185 338 226 q 286 108 315 143 q 219 48 257 72 q 141 13 182 24 q 67 10 100 3 q 15 39 33 17 q -8 90 -3 61 q -8 147 -14 118 q 13 194 -1 175 q 47 241 26 214 q 92 294 68 268 q 138 338 115 319 q 181 361 161 357 q 188 363 185 363 q 196 365 192 364 q 181 382 190 375 q 165 402 164 396 q 174 409 165 408 q 195 406 182 410 q 217 397 208 403 m 126 144 q 133 139 125 138 q 155 147 142 140 q 182 164 168 153 q 206 189 196 175 q 217 217 213 199 q 221 256 221 235 q 190 225 206 242 q 160 192 174 208 q 137 163 146 175 q 126 144 128 150 m 178 626 q 196 627 185 626 q 217 627 207 628 q 235 624 228 626 q 243 613 243 621 q 235 583 243 599 q 217 552 228 567 q 192 526 206 538 q 165 510 179 514 q 128 509 139 499 q 108 539 118 519 q 103 583 100 560 q 118 618 106 606 q 149 630 133 632 q 178 626 164 628 m 367 626 q 385 627 374 626 q 406 627 396 628 q 424 624 417 626 q 432 613 432 621 q 424 583 432 599 q 406 552 417 567 q 381 526 394 538 q 354 510 368 514 q 317 509 328 499 q 297 539 307 519 q 292 583 289 560 q 307 618 294 606 q 338 630 322 632 q 367 626 353 628 z "},"":{"ha":522,"x_min":-11,"x_max":525,"o":"m 244 408 q 259 387 254 403 q 236 333 264 371 q 201 278 222 314 q 164 208 181 242 q 140 151 147 174 q 146 139 133 129 q 192 176 158 149 q 263 240 225 204 q 335 314 301 275 q 385 383 369 353 q 406 413 397 410 q 432 413 414 415 q 458 404 440 411 q 492 387 476 397 q 517 364 508 376 q 517 339 525 351 q 489 294 508 326 q 449 223 469 261 q 409 149 428 185 q 385 96 390 114 q 376 62 378 78 q 374 33 375 46 q 369 12 372 21 q 358 -3 367 3 q 326 -8 342 -14 q 288 22 310 -1 q 272 51 276 33 q 269 90 268 69 q 274 131 269 110 q 282 168 278 151 q 230 124 253 146 q 185 84 207 103 q 140 51 163 65 q 89 29 118 36 q 42 34 60 22 q 13 66 24 46 q -3 106 1 86 q -10 136 -8 126 q 3 178 -11 146 q 38 250 18 211 q 77 324 58 289 q 104 375 96 360 q 129 413 119 406 q 164 422 139 421 q 244 408 213 424 m 358 581 q 392 547 378 561 q 404 521 407 532 q 381 501 401 506 q 335 503 360 496 q 285 530 313 508 q 228 592 257 551 q 199 640 208 619 q 196 681 189 661 q 212 707 201 697 q 233 722 222 717 q 251 726 243 726 q 263 721 260 726 q 263 719 263 719 q 264 717 264 718 q 284 671 271 693 q 312 631 297 649 q 339 599 326 613 q 358 581 351 586 z "},"":{"ha":522,"x_min":-11,"x_max":539,"o":"m 244 408 q 259 387 254 403 q 236 333 264 371 q 201 278 222 314 q 164 208 181 242 q 140 151 147 174 q 146 139 133 129 q 192 176 158 149 q 263 240 225 204 q 335 314 301 275 q 385 383 369 353 q 406 413 397 410 q 432 413 414 415 q 458 404 440 411 q 492 387 476 397 q 517 364 508 376 q 517 339 525 351 q 489 294 508 326 q 449 223 469 261 q 409 149 428 185 q 385 96 390 114 q 376 62 378 78 q 374 33 375 46 q 369 12 372 21 q 358 -3 367 3 q 326 -8 342 -14 q 288 22 310 -1 q 272 51 276 33 q 269 90 268 69 q 274 131 269 110 q 282 168 278 151 q 230 124 253 146 q 185 84 207 103 q 140 51 163 65 q 89 29 118 36 q 42 34 60 22 q 13 66 24 46 q -3 106 1 86 q -10 136 -8 126 q 3 178 -11 146 q 38 250 18 211 q 77 324 58 289 q 104 375 96 360 q 129 413 119 406 q 164 422 139 421 q 244 408 213 424 m 358 576 q 378 595 364 582 q 407 626 392 608 q 438 667 422 644 q 463 713 453 689 q 464 717 463 715 q 474 722 465 722 q 492 717 482 722 q 513 703 503 713 q 528 676 522 693 q 489 588 539 638 q 425 531 453 550 q 374 507 397 513 q 329 501 350 500 q 307 517 308 501 q 322 542 307 528 q 358 576 336 557 z "},"":{"ha":522,"x_min":-11,"x_max":531,"o":"m 244 408 q 259 387 254 403 q 236 333 264 371 q 201 278 222 314 q 164 208 181 242 q 140 151 147 174 q 146 139 133 129 q 192 176 158 149 q 263 240 225 204 q 335 314 301 275 q 385 383 369 353 q 406 413 397 410 q 432 413 414 415 q 458 404 440 411 q 492 387 476 397 q 517 364 508 376 q 517 339 525 351 q 489 294 508 326 q 449 223 469 261 q 409 149 428 185 q 385 96 390 114 q 376 62 378 78 q 374 33 375 46 q 369 12 372 21 q 358 -3 367 3 q 326 -8 342 -14 q 288 22 310 -1 q 272 51 276 33 q 269 90 268 69 q 274 131 269 110 q 282 168 278 151 q 230 124 253 146 q 185 84 207 103 q 140 51 163 65 q 89 29 118 36 q 42 34 60 22 q 13 66 24 46 q -3 106 1 86 q -10 136 -8 126 q 3 178 -11 146 q 38 250 18 211 q 77 324 58 289 q 104 375 96 360 q 129 413 119 406 q 164 422 139 421 q 244 408 213 424 m 215 497 q 204 510 208 500 q 204 536 200 519 q 226 574 214 553 q 250 607 239 594 q 324 683 294 657 q 381 721 354 708 q 413 733 396 728 q 447 736 429 739 q 472 725 458 735 q 499 699 486 715 q 519 662 511 683 q 529 615 528 640 q 524 569 531 592 q 506 529 517 547 q 481 506 496 514 q 451 495 465 499 q 427 494 438 492 q 417 501 417 496 l 417 506 q 430 568 428 543 q 429 609 432 593 q 420 635 426 625 q 410 650 414 644 q 349 609 390 640 q 265 529 307 578 q 236 500 246 506 q 215 497 226 494 z "},"":{"ha":522,"x_min":-11,"x_max":556,"o":"m 244 408 q 259 387 254 403 q 236 333 264 371 q 201 278 222 314 q 164 208 181 242 q 140 151 147 174 q 146 139 133 129 q 192 176 158 149 q 263 240 225 204 q 335 314 301 275 q 385 383 369 353 q 406 413 397 410 q 432 413 414 415 q 458 404 440 411 q 492 387 476 397 q 517 364 508 376 q 517 339 525 351 q 489 294 508 326 q 449 223 469 261 q 409 149 428 185 q 385 96 390 114 q 376 62 378 78 q 374 33 375 46 q 369 12 372 21 q 358 -3 367 3 q 326 -8 342 -14 q 288 22 310 -1 q 272 51 276 33 q 269 90 268 69 q 274 131 269 110 q 282 168 278 151 q 230 124 253 146 q 185 84 207 103 q 140 51 163 65 q 89 29 118 36 q 42 34 60 22 q 13 66 24 46 q -3 106 1 86 q -10 136 -8 126 q 3 178 -11 146 q 38 250 18 211 q 77 324 58 289 q 104 375 96 360 q 129 413 119 406 q 164 422 139 421 q 244 408 213 424 m 301 640 q 319 641 308 640 q 341 641 331 642 q 359 638 351 640 q 367 626 367 635 q 359 597 367 613 q 340 566 351 581 q 316 540 329 551 q 289 524 303 528 q 252 523 263 513 q 232 553 242 533 q 226 597 224 574 q 242 632 229 619 q 272 644 257 646 q 301 640 288 642 m 490 640 q 508 641 497 640 q 530 641 519 642 q 548 638 540 640 q 556 626 556 635 q 548 597 556 613 q 529 566 540 581 q 505 540 518 551 q 478 524 492 528 q 441 523 451 513 q 421 553 431 533 q 415 597 413 574 q 431 632 418 619 q 461 644 446 646 q 490 640 476 642 z "},"":{"ha":556,"x_min":-249,"x_max":578,"o":"m 525 126 q 548 111 561 131 q 472 69 535 92 q 453 63 464 67 q 428 56 442 60 q 388 -45 408 3 q 346 -129 367 -93 q 232 -272 296 -215 q 103 -365 168 -329 q -22 -419 38 -400 q -119 -446 -81 -437 q -176 -440 -149 -453 q -221 -399 -203 -426 q -244 -331 -239 -371 q -232 -243 -249 -292 q -174 -160 -218 -203 q -58 -75 -131 -117 q 112 7 14 -33 q 333 81 210 47 q 371 191 357 140 q 393 274 385 242 q 277 183 326 222 q 182 132 228 144 q 133 133 158 125 q 86 156 107 140 q 53 195 65 172 q 49 244 42 218 q 67 281 53 258 q 102 328 82 304 q 146 372 122 351 q 190 406 169 393 q 221 422 208 417 q 242 430 233 428 q 259 431 251 432 q 275 429 267 431 q 292 422 288 426 q 294 410 296 417 q 287 394 293 403 q 275 378 281 386 q 257 355 269 371 q 231 320 244 339 q 207 282 218 301 q 194 250 196 263 q 204 235 193 238 q 246 244 215 232 q 291 272 267 253 q 339 314 315 292 q 383 358 363 336 q 415 393 403 379 q 431 421 419 428 q 454 411 439 417 q 484 397 469 406 q 508 376 499 389 q 517 344 518 363 q 510 310 515 333 q 494 256 504 288 q 473 188 485 225 q 447 110 461 150 q 486 118 467 114 q 525 126 506 122 m 246 -101 q 307 17 282 -43 q 163 -38 239 -6 q 17 -117 88 -71 q -85 -199 -44 -157 q -145 -274 -125 -240 q -164 -327 -165 -307 q -142 -346 -162 -347 q -72 -328 -121 -344 q 36 -283 -22 -312 q 151 -208 94 -253 q 246 -101 208 -162 m 397 581 q 417 599 403 586 q 446 631 431 613 q 476 671 461 649 q 501 717 492 693 q 503 721 501 719 q 513 726 504 726 q 531 722 521 726 q 551 707 542 717 q 567 681 561 697 q 528 592 578 642 q 464 535 492 554 q 413 511 436 517 q 368 505 389 504 q 346 521 347 506 q 360 547 346 532 q 397 581 375 561 z "},"":{"ha":556,"x_min":-249,"x_max":561,"o":"m 525 126 q 548 111 561 131 q 472 69 535 92 q 453 63 464 67 q 428 56 442 60 q 388 -45 408 3 q 346 -129 367 -93 q 232 -272 296 -215 q 103 -365 168 -329 q -22 -419 38 -400 q -119 -446 -81 -437 q -176 -440 -149 -453 q -221 -399 -203 -426 q -244 -331 -239 -371 q -232 -243 -249 -292 q -174 -160 -218 -203 q -58 -75 -131 -117 q 112 7 14 -33 q 333 81 210 47 q 371 191 357 140 q 393 274 385 242 q 277 183 326 222 q 182 132 228 144 q 133 133 158 125 q 86 156 107 140 q 53 195 65 172 q 49 244 42 218 q 67 281 53 258 q 102 328 82 304 q 146 372 122 351 q 190 406 169 393 q 221 422 208 417 q 242 430 233 428 q 259 431 251 432 q 275 429 267 431 q 292 422 288 426 q 294 410 296 417 q 287 394 293 403 q 275 378 281 386 q 257 355 269 371 q 231 320 244 339 q 207 282 218 301 q 194 250 196 263 q 204 235 193 238 q 246 244 215 232 q 291 272 267 253 q 339 314 315 292 q 383 358 363 336 q 415 393 403 379 q 431 421 419 428 q 454 411 439 417 q 484 397 469 406 q 508 376 499 389 q 517 344 518 363 q 510 310 515 333 q 494 256 504 288 q 473 188 485 225 q 447 110 461 150 q 486 118 467 114 q 525 126 506 122 m 246 -101 q 307 17 282 -43 q 163 -38 239 -6 q 17 -117 88 -71 q -85 -199 -44 -157 q -145 -274 -125 -240 q -164 -327 -165 -307 q -142 -346 -162 -347 q -72 -328 -121 -344 q 36 -283 -22 -312 q 151 -208 94 -253 q 246 -101 208 -162 m 296 664 q 314 665 303 664 q 335 665 325 665 q 353 661 346 664 q 361 650 361 658 q 353 620 361 636 q 335 590 346 604 q 310 563 324 575 q 283 547 297 551 q 247 547 257 536 q 226 576 236 557 q 221 620 218 597 q 236 656 224 643 q 267 667 251 669 q 296 664 282 665 m 485 664 q 503 665 492 664 q 524 665 514 665 q 542 661 535 664 q 550 650 550 658 q 542 620 550 636 q 524 590 535 604 q 499 563 513 575 q 472 547 486 551 q 435 547 446 536 q 415 576 425 557 q 410 620 407 597 q 425 656 413 643 q 456 667 440 669 q 485 664 471 665 z "},"":{"ha":363,"x_min":-31,"x_max":471,"o":"m 307 325 q 379 351 346 343 q 435 362 413 360 q 464 360 457 364 q 457 350 471 356 q 406 324 436 340 q 342 285 376 307 q 272 241 307 264 q 206 196 236 218 q 208 179 207 188 q 211 163 208 171 q 212 50 224 103 q 161 -32 200 -3 q 83 -58 125 -60 q 14 -33 40 -57 q -6 -12 3 -25 q -24 8 -15 1 q -29 23 -28 13 q -28 47 -31 33 q -19 77 -25 61 q -6 107 -14 93 q 39 158 10 132 q 108 213 68 185 q 101 235 106 224 q 93 257 96 246 q 93 364 74 317 q 139 438 113 411 q 184 467 158 457 q 233 481 210 478 q 277 483 257 485 q 306 476 297 481 q 324 450 322 468 q 319 428 326 432 q 310 422 314 422 q 296 421 306 421 q 213 347 243 421 q 199 267 199 315 q 255 299 226 283 q 307 325 283 314 m 126 51 q 128 90 132 68 q 122 139 125 111 q 115 133 119 138 q 76 96 90 114 q 55 63 61 78 q 48 38 49 49 q 47 22 47 28 q 60 3 49 11 q 97 14 76 3 q 126 51 118 25 m 431 771 q 444 759 439 768 q 447 733 450 750 q 429 696 439 717 q 410 663 419 675 q 344 587 371 613 q 292 547 317 561 q 262 535 278 540 q 226 533 246 531 q 200 544 215 535 q 171 570 185 554 q 146 607 157 586 q 131 653 135 628 q 131 699 128 676 q 144 739 135 722 q 167 763 153 754 q 194 774 181 771 q 219 774 208 776 q 231 767 229 772 l 231 764 q 225 701 224 726 q 233 657 226 675 q 247 628 239 639 q 258 613 254 618 q 283 626 268 617 q 316 651 299 636 q 351 688 333 667 q 383 739 369 710 q 409 768 399 763 q 431 771 419 774 z "},"":{"ha":608,"x_min":-1,"x_max":854,"o":"m 831 1092 q 839 988 854 1054 q 779 840 824 921 q 740 758 764 814 q 685 631 715 701 q 622 482 656 560 q 558 333 589 404 q 499 206 526 263 q 453 122 472 150 q 273 -109 338 -40 q 179 -169 208 -178 q 143 -153 164 -165 q 103 -127 122 -142 q 70 -99 83 -112 q 60 -78 57 -85 q 81 -53 64 -64 q 128 -18 97 -42 q 203 49 158 6 q 311 172 249 93 q 385 288 346 218 q 465 437 425 357 q 542 601 504 517 q 613 764 579 686 q 550 671 582 718 q 490 581 518 624 q 438 503 461 538 q 400 450 414 469 q 360 401 378 419 q 328 373 343 383 q 299 360 314 363 q 269 358 285 357 q 242 361 257 358 q 213 372 228 364 q 185 397 199 381 q 161 442 171 413 q 145 493 154 461 q 126 563 136 525 q 107 644 117 601 q 88 729 97 688 q 40 938 64 826 q 7 971 15 949 q 2 1017 -1 993 q 16 1061 6 1042 q 38 1088 26 1081 q 80 1092 60 1099 q 128 1072 100 1086 q 197 1033 174 1051 q 230 998 221 1014 q 239 967 239 982 q 236 939 239 953 q 237 911 235 932 q 243 860 239 890 q 253 794 247 831 q 267 722 260 758 q 303 532 282 636 q 342 524 314 507 q 408 583 371 540 q 488 683 446 625 q 570 797 531 740 q 641 899 610 853 q 689 963 672 944 q 693 967 692 965 q 697 972 694 969 q 722 1032 713 1008 q 733 1063 731 1056 q 778 1116 750 1103 q 831 1092 807 1129 m 407 1282 q 425 1283 414 1282 q 447 1283 436 1283 q 465 1279 457 1282 q 472 1268 472 1276 q 465 1238 472 1254 q 446 1208 457 1222 q 422 1181 435 1193 q 394 1165 408 1169 q 358 1165 368 1154 q 338 1194 347 1175 q 332 1238 329 1215 q 347 1274 335 1261 q 378 1285 363 1288 q 407 1282 393 1283 m 596 1282 q 614 1283 603 1282 q 635 1283 625 1283 q 653 1279 646 1282 q 661 1268 661 1276 q 653 1238 661 1254 q 635 1208 646 1222 q 610 1181 624 1193 q 583 1165 597 1169 q 547 1165 557 1154 q 526 1194 536 1175 q 521 1238 518 1215 q 536 1274 524 1261 q 567 1285 551 1288 q 596 1282 582 1283 z "},"":{"ha":617,"x_min":-6,"x_max":833,"o":"m 678 929 q 654 926 665 929 q 628 915 643 924 q 590 891 613 907 q 535 846 568 875 q 477 799 513 826 q 401 737 442 771 q 319 665 361 703 q 240 588 276 626 q 176 509 203 549 q 138 435 149 469 q 133 383 128 403 q 156 349 139 363 q 198 328 172 336 q 256 311 224 319 q 377 273 318 293 q 476 217 436 253 q 526 147 508 188 q 533 64 543 107 q 484 -44 524 15 q 388 -155 444 -103 q 265 -243 332 -207 q 133 -282 199 -279 q 43 -256 68 -285 q 17 -188 18 -228 q 31 -108 15 -149 q 61 -46 46 -67 q 109 8 76 -25 q 177 72 142 40 q 242 128 213 104 q 282 157 272 153 q 295 148 303 167 q 247 76 288 129 q 215 32 233 58 q 176 -24 196 6 q 137 -84 156 -54 q 107 -138 118 -114 q 93 -178 96 -162 q 103 -194 90 -194 q 166 -179 126 -196 q 248 -129 206 -162 q 332 -46 290 -96 q 401 71 374 4 q 419 128 417 103 q 407 165 421 154 q 355 195 386 182 q 299 215 324 208 q 234 232 276 221 q 147 262 192 243 q 65 308 103 281 q 13 376 26 336 q 2 476 -6 426 q 34 572 10 525 q 92 663 58 619 q 161 742 126 706 q 217 798 183 765 q 287 865 250 831 q 360 935 324 900 q 429 998 397 969 q 484 1046 461 1026 q 514 1069 507 1065 q 581 1086 538 1081 q 664 1076 625 1092 q 706 1040 693 1064 q 717 991 718 1015 q 706 948 717 967 q 678 929 694 929 m 814 1365 q 828 1353 822 1363 q 831 1328 833 1344 q 813 1290 822 1311 q 793 1257 803 1269 q 727 1181 754 1207 q 675 1142 700 1156 q 645 1130 661 1135 q 610 1128 629 1125 q 583 1139 599 1129 q 554 1165 568 1149 q 529 1201 540 1181 q 514 1247 518 1222 q 515 1294 511 1271 q 528 1333 518 1317 q 550 1357 536 1349 q 578 1368 564 1365 q 602 1369 592 1371 q 614 1361 613 1367 l 614 1358 q 608 1295 607 1321 q 616 1251 610 1269 q 630 1223 622 1233 q 642 1207 638 1213 q 667 1221 651 1211 q 699 1246 682 1231 q 735 1283 717 1261 q 767 1333 753 1304 q 792 1363 782 1357 q 814 1365 803 1368 z "},"":{"ha":1275,"x_min":129,"x_max":1217,"o":"m 742 300 q 767 275 749 293 q 802 229 786 257 q 823 165 818 201 q 807 88 828 129 q 751 10 788 46 q 671 -49 714 -25 q 585 -84 628 -74 q 510 -87 542 -94 q 465 -58 478 -81 q 453 -8 451 -36 q 466 49 454 21 q 496 97 478 78 q 541 144 514 117 q 597 197 568 171 q 653 241 625 222 q 700 264 681 260 q 715 268 704 265 q 704 285 711 278 q 692 305 690 299 q 703 312 694 311 q 723 309 711 313 q 742 300 735 306 m 688 92 q 704 120 697 103 q 717 160 711 138 q 678 128 697 146 q 642 95 658 111 q 613 66 625 79 q 599 47 601 53 q 605 42 596 40 q 628 49 614 43 q 659 67 643 56 q 688 92 675 78 m 882 1067 q 911 1063 892 1069 q 947 1043 931 1056 q 972 1014 964 1031 q 971 982 981 997 q 936 938 964 972 q 867 851 908 903 q 775 733 826 799 q 668 597 724 668 q 556 450 613 525 q 451 304 500 375 q 333 126 378 197 q 263 9 288 54 q 228 -58 238 -36 q 218 -89 219 -81 q 203 -119 213 -104 q 171 -131 193 -133 q 149 -118 160 -129 q 133 -85 138 -107 q 136 -28 129 -62 q 169 57 143 7 q 224 150 188 90 q 308 283 261 210 q 408 435 356 356 q 509 584 461 514 q 595 710 557 654 q 653 792 633 765 q 706 867 678 828 q 761 943 733 907 q 685 943 732 943 q 594 944 639 943 q 515 946 549 944 q 476 949 481 947 q 476 936 472 950 q 486 902 479 922 q 499 860 493 882 q 504 826 504 839 q 503 824 503 825 q 499 792 503 808 q 488 758 496 776 q 431 681 468 717 q 351 622 393 646 q 265 587 308 597 q 190 583 222 576 q 145 613 158 590 q 133 663 132 635 q 145 720 133 692 q 175 768 157 749 q 220 815 193 788 q 276 867 247 842 q 333 912 306 893 q 379 935 360 931 l 396 939 q 392 946 393 943 q 388 951 390 949 l 383 956 q 382 964 381 961 q 380 979 379 975 q 406 990 381 983 q 447 997 415 993 q 523 1006 479 1001 q 616 1016 567 1011 q 710 1024 665 1021 q 788 1031 754 1028 q 833 1035 821 1033 l 838 1035 q 882 1067 865 1063 m 368 763 q 385 790 378 772 q 397 831 392 808 q 358 799 378 817 q 322 766 339 782 q 294 737 306 750 q 279 718 282 724 q 285 713 276 711 q 308 720 293 714 q 339 738 322 726 q 368 763 356 749 m 1131 300 q 1156 275 1138 293 q 1191 229 1175 257 q 1212 165 1207 201 q 1196 88 1217 129 q 1140 10 1176 46 q 1060 -49 1103 -25 q 974 -84 1017 -74 q 899 -87 931 -94 q 853 -58 867 -81 q 842 -8 840 -36 q 855 49 843 21 q 885 97 867 78 q 930 144 903 117 q 985 197 957 171 q 1042 241 1014 222 q 1089 264 1069 260 q 1104 268 1093 265 q 1093 285 1100 278 q 1081 305 1079 299 q 1092 312 1083 311 q 1112 309 1100 313 q 1131 300 1124 306 m 1076 92 q 1093 120 1086 103 q 1106 160 1100 138 q 1067 128 1086 146 q 1031 95 1047 111 q 1002 66 1014 79 q 988 47 990 53 q 994 42 985 40 q 1017 49 1003 43 q 1048 67 1032 56 q 1076 92 1064 78 z "},"":{"ha":876,"x_min":-49,"x_max":967,"o":"m 958 979 q 965 942 963 964 q 963 892 967 919 q 944 835 958 865 q 903 774 931 804 q 830 701 883 753 q 705 581 776 650 q 552 434 633 513 q 397 281 471 356 l 399 281 q 376 258 394 276 q 336 219 357 240 q 298 179 315 197 q 279 160 281 161 q 215 92 243 124 q 164 35 186 61 q 313 37 231 35 q 472 42 394 39 q 611 49 549 46 q 700 57 674 53 q 754 68 735 63 q 785 79 774 74 q 801 91 796 85 q 813 106 807 97 q 826 112 818 114 q 842 99 835 110 q 851 67 849 88 q 849 19 854 47 q 833 -27 843 -8 q 803 -57 822 -46 q 752 -74 783 -68 q 674 -81 721 -79 q 551 -83 629 -82 q 383 -90 472 -85 q 202 -104 293 -94 q 42 -132 111 -114 q 24 -154 35 -144 q -4 -157 13 -164 q -28 -140 -15 -160 q -44 -91 -40 -119 q -37 -33 -49 -62 q 11 14 -26 -3 l 24 32 q 97 122 51 68 q 194 239 142 176 q 253 300 214 261 q 344 388 293 339 q 454 494 396 438 q 568 605 513 550 q 672 710 624 660 q 751 801 719 761 q 794 865 783 840 q 783 893 804 890 q 578 872 671 882 q 499 864 538 868 q 428 856 460 860 q 373 847 396 851 q 343 840 350 843 q 314 829 329 833 q 280 830 299 825 q 238 853 261 835 q 183 911 214 871 q 153 953 164 935 q 150 999 142 972 q 173 1028 154 1011 q 216 1055 192 1044 q 265 1063 240 1065 q 307 1039 290 1061 q 535 1053 428 1047 q 627 1058 581 1056 q 716 1062 674 1060 q 793 1065 758 1064 q 850 1064 828 1065 q 901 1053 882 1063 q 933 1032 921 1044 q 950 1006 944 1019 q 958 979 956 992 m 764 1331 q 778 1319 772 1328 q 781 1293 783 1310 q 763 1256 772 1276 q 743 1222 753 1235 q 677 1147 704 1172 q 625 1107 650 1121 q 595 1095 611 1100 q 560 1093 579 1090 q 533 1104 549 1094 q 504 1130 518 1114 q 479 1167 490 1146 q 464 1213 468 1188 q 465 1259 461 1236 q 478 1299 468 1282 q 500 1322 486 1314 q 528 1333 514 1331 q 552 1334 542 1336 q 564 1326 563 1332 l 564 1324 q 558 1260 557 1286 q 566 1217 560 1235 q 580 1188 572 1199 q 592 1172 588 1178 q 617 1186 601 1176 q 649 1211 632 1196 q 685 1248 667 1226 q 717 1299 703 1269 q 742 1328 732 1322 q 764 1331 753 1333 z "},"":{"ha":536,"x_min":19,"x_max":525,"o":"m 142 440 q 249 456 199 449 q 340 467 299 464 q 413 468 381 471 q 465 453 444 465 q 506 390 506 428 q 456 313 507 353 q 408 280 438 299 q 344 240 378 261 q 276 198 310 219 q 217 159 242 176 q 180 130 192 142 q 179 117 168 118 q 224 112 196 113 q 285 112 253 111 q 348 114 317 113 q 400 118 379 115 q 422 111 421 119 q 408 90 424 103 q 363 62 393 76 q 290 38 332 47 q 144 21 207 17 q 35 61 82 25 q 29 95 19 72 q 65 147 39 118 q 126 206 90 175 q 200 265 163 236 q 271 316 238 293 q 325 351 304 339 q 265 357 317 368 q 117 313 213 346 q 72 307 85 301 q 61 326 60 313 q 74 360 63 340 q 98 398 85 381 q 124 428 111 415 q 142 440 136 440 m 506 775 q 519 763 514 772 q 522 738 525 754 q 504 700 514 721 q 485 667 494 679 q 419 591 446 617 q 367 551 392 565 q 337 540 353 544 q 301 538 321 535 q 275 549 290 539 q 246 574 260 558 q 221 611 232 590 q 206 657 210 632 q 206 703 203 681 q 219 743 210 726 q 242 767 228 758 q 269 778 256 775 q 294 778 283 781 q 306 771 304 776 l 306 768 q 300 705 299 731 q 308 661 301 679 q 322 633 314 643 q 333 617 329 622 q 358 631 343 621 q 391 656 374 640 q 426 692 408 671 q 458 743 444 714 q 484 772 474 767 q 506 775 494 778 z "},"":{"ha":631,"x_min":-32,"x_max":658,"o":"m 636 6 q 657 -21 656 0 q 643 -65 658 -42 q 597 -106 628 -87 q 521 -126 567 -125 q 395 -141 456 -128 q 281 -167 335 -154 q 179 -189 226 -181 q 92 -189 132 -197 q 52 -182 74 -185 q 12 -172 31 -179 q -19 -150 -7 -164 q -32 -110 -32 -136 q -19 -22 -31 -69 q 8 71 -8 25 q 41 159 24 117 q 72 232 58 201 q 6 232 29 221 q -11 252 -3 236 q -24 287 -19 268 q -25 324 -28 306 q -7 349 -22 342 q 58 365 21 360 q 136 381 94 369 q 189 494 161 436 q 244 607 217 551 q 299 715 272 663 q 349 814 325 768 q 388 901 372 861 q 418 949 403 940 q 448 963 435 958 q 478 967 461 968 q 516 960 494 967 q 571 940 538 954 q 596 908 600 928 q 573 865 592 888 q 530 818 554 842 q 493 775 506 794 q 453 708 476 747 q 406 624 431 669 q 354 531 381 579 q 304 439 328 483 q 374 466 349 456 q 406 482 399 476 q 435 494 417 493 q 468 479 454 496 q 485 464 475 471 q 497 447 496 457 q 482 421 497 436 q 424 379 467 406 q 320 329 367 346 q 225 293 274 313 q 210 266 217 278 q 201 247 204 254 q 174 185 192 228 q 144 94 157 142 q 126 3 131 46 q 139 -56 122 -39 q 182 -65 151 -67 q 253 -56 213 -64 q 342 -39 294 -49 q 438 -22 390 -29 q 488 -13 460 -19 q 544 -1 517 -7 q 597 7 572 4 q 636 6 622 10 z "},"":{"ha":303,"x_min":-46,"x_max":663,"o":"m 660 979 q 653 963 663 967 q 635 949 643 960 q 590 889 619 926 q 519 788 561 851 q 421 632 476 725 q 297 406 365 539 q 421 444 408 436 q 453 454 433 454 q 483 436 472 454 q 499 419 489 428 q 508 401 508 411 q 492 376 508 390 q 431 340 476 363 q 326 301 372 313 q 231 275 279 289 q 142 88 175 163 q 92 -35 110 13 q 68 -110 75 -83 q 56 -151 61 -136 q 22 -199 44 -186 q -24 -182 -1 -212 q -38 -96 -46 -153 q 1 32 -31 -39 q 34 108 13 56 q 85 229 56 160 q 37 222 57 222 q 1 231 17 222 q -14 253 -7 236 q -24 289 -21 269 q -22 325 -26 308 q -1 347 -17 342 q 63 358 26 357 q 143 368 100 360 q 194 484 168 425 q 247 597 221 543 q 299 699 274 651 q 346 783 324 747 q 481 990 433 926 q 554 1049 529 1053 q 585 1037 567 1046 q 619 1017 603 1028 q 648 996 636 1007 q 660 979 660 985 z "}}}
